<svg width="440" height="956" viewBox="0 0 440 956" fill="none" xmlns="http://www.w3.org/2000/svg">
<g clip-path="url(#clip0_337_515)">
<rect width="440" height="956" fill="white"/>
<path d="M514.312 241.224C481.046 417.575 311.131 533.562 134.771 500.316C-41.5725 467.043 -157.576 297.125 -124.31 120.774C-91.0509 -55.5747 78.8729 -171.571 255.216 -138.312C431.574 -105.048 547.571 64.8701 514.312 241.224Z" fill="#005F61"/>
<path d="M139.205 454.643C159.962 455.554 157.531 435.186 164.207 423.52C166.845 418.902 166.566 412.011 159.602 409.508C152.265 406.886 130.44 424.839 128.394 434.723C124.337 445.572 127.758 454.144 139.205 454.643Z" fill="#BEDD07"/>
<path d="M518.412 212.366C514.727 230.808 505.481 246.451 493.942 263.005C487.9 258.014 494.833 250.088 486.08 247.178C479.508 259 473.027 271.172 466.053 283.029C461.299 291.128 454.782 299.955 463.272 307.901C472.191 316.268 477.285 303.069 486.535 300.479C484.494 318.357 468.245 318.754 458.593 325.918C455.942 327.884 454.166 325.908 453 322.431C445.975 301.528 438.505 280.791 430.967 259.38C453.611 262.514 471.544 245.705 460.871 230.398C445.809 208.799 457.322 191.413 466.579 178.85C489.503 147.759 475.27 124.234 458.014 99.7476C453.209 92.9365 453.539 85.0319 448.791 75.2292C460.262 81.1045 469.45 85.7968 478.806 90.5803C484.995 55.2869 467.691 27.4136 450.048 1.80348C441.652 -10.3819 424.864 -19.5541 408.299 -23.6557C404.983 -24.477 400.981 -23.3935 398.612 -26.5759C393.256 -33.7338 383.737 -41.6997 391.537 -50.4605C398.109 -57.8473 402.886 -46.2228 408.713 -43.641C411.151 -42.5642 413.253 -40.7208 416.996 -41.046C392.697 -69.1002 361.936 -89.4838 331.971 -110.87C348.118 -104.92 363.048 -97.2788 376.987 -88.2759C341.31 -112.408 300.238 -129.825 255.218 -138.315C150.691 -158.023 48.4309 -125.297 -24.4659 -58.6554C1.40821 -78.6109 33.9342 -84.5542 63.4934 -96.8707C74.4825 -114.135 90.4011 -108.316 105.837 -104.905C91.7401 -102.179 77.66 -99.4657 63.5748 -96.7313C60.2015 -91.4649 56.8249 -86.2052 51.7045 -78.211C71.7779 -82.0903 87.8908 -76.3809 104.745 -72.1582C130.392 -65.7386 154.227 -79.9233 178.375 -86.5503C188.432 -89.3046 188.729 -104.38 196.886 -112.602C212.21 -128.016 228.146 -136.183 249.57 -130.633C267.338 -126.028 285.009 -120.961 302.655 -115.847C316.667 -111.789 318.323 -98.5764 321.763 -87.5093C323.364 -82.3525 318.257 -78.44 312.388 -78.9427C308.632 -79.2729 304.147 -88.3721 301.675 -78.5561C300.366 -73.3512 306.523 -72.792 310.331 -71.2804C312.246 -70.5205 314.006 -69.369 316.999 -67.7662C307.996 -56.8186 298.18 -59.5514 286.946 -61.9672C276.385 -64.2453 266.069 -70.7893 254.396 -67.2618C253.023 -57.1554 271.455 -60.4142 266.215 -47.824C262.654 -39.2707 258.226 -32.954 248.355 -32.1542C247.682 -32.1061 247.073 -31.5669 246.394 -31.3877C239.601 -29.6488 240.271 -10.128 228.778 -22.2072C219.876 -31.5536 236.15 -36.6756 237.476 -47.0441C225.204 -44.9452 218.197 -37.9184 214.464 -27.7706C208.68 -12.0726 194.173 -8.42897 183.73 -21.9517C174.566 -33.8516 162.913 -38.1109 150.223 -34.3494C130.095 -28.3646 110.725 -19.7764 91.2324 -11.8188C86.5235 -9.89241 82.9878 -5.7012 85.4385 0.17246C89.409 9.68646 83.7759 13.4264 76.1833 15.3179C71.6071 16.4561 65.36 18.2929 62.8048 12.6864C59.8298 6.14403 64.2218 0.461162 68.1741 -4.59118C71.1557 -8.4157 74.5522 -11.915 78.9724 -16.9408C66.5995 -23.0368 57.8619 -13.9791 48.2384 -12.8409C32.6117 -10.9626 35.6067 0.487703 36.131 10.974C36.6138 20.6987 25.7027 23.7998 23.1674 33.4151C19.1355 48.6683 10.7431 34.5466 4.00491 33.1031C-6.00524 30.9644 -24.3116 47.1219 -21.9239 58.257C-19.3289 70.3444 -24.2435 72.6906 -33.5485 75.4101C-94.293 93.2136 -109.882 149.909 -101.502 195.813C-98.0927 214.506 -88.6549 227.926 -72.8623 235.305C-48.9992 246.46 -36.9864 262.883 -39.7639 289.57C-40.6749 298.362 -36.1187 306.039 -32.7139 313.791C-26.9232 327.003 -24.431 340.203 -26.2197 355.01C-29.8982 385.644 -7.29114 405.256 7.23213 428.07C17.828 444.701 33.7268 453.221 53.1315 455.169C58.0097 455.678 63.1383 455.829 67.8953 454.877C85.0966 451.425 116.604 405.647 113.048 388.579C110.114 374.502 112.267 365.142 126.42 357.21C144.824 346.891 162.08 333.967 174.611 316.202C179.064 309.885 185.515 303.346 182.142 295.209C178.123 285.533 168.768 290.323 161.445 290.31C157.28 290.31 152.941 291.758 147.568 286.132C166.595 279.614 185.012 274.416 202.502 267.051C227.782 256.385 234.741 242.237 226.36 223.033C269.967 220.146 290.901 234.822 301.369 276.611C305.786 294.22 314.912 307.035 332.113 313.957C335.467 315.311 338.284 317.652 341.68 315.269C345.795 312.399 346.431 307.786 344.207 303.92C324.229 269.11 353.761 251.029 369.942 228.892C375.905 220.732 382.561 222.32 390.907 230.065C407.758 245.688 418.858 263.613 424.221 285.792C425.968 293.041 428.949 297.439 417.312 296.59C405.163 295.705 406.556 302.381 412.589 309.663C417.091 315.082 421.549 320.577 425.636 326.32C438.543 344.497 447.656 346.257 466.196 333.942C470.185 331.291 474.382 328.917 478.663 326.313C479.891 328.323 481.383 329.869 481.094 330.4C451.507 382.717 497.038 332.756 514.31 241.22C516.129 231.566 517.46 221.945 518.412 212.366ZM133.531 -112.159C137.907 -116.562 142.42 -117.978 148.539 -115.645C144.092 -109.826 139.591 -108.341 133.531 -112.159ZM119.061 93.8889C122.312 91.3801 126.282 92.1483 127.765 96.0824C130.299 102.814 137.611 103.937 141.461 108.941C141.461 108.941 141.461 108.941 141.461 108.928C145.363 110.114 150.139 109.992 151.864 114.637C152.169 115.47 149.865 118.344 148.552 118.503C144.436 119.006 142.531 115.726 140.82 112.567C133.905 111.04 126.996 109.527 120.093 107.962C116.557 107.139 112.325 105.752 112.905 101.75C113.325 98.8632 116.44 95.9048 119.061 93.8889ZM118.932 21.7258C118.163 15.6497 120.51 11.1964 126.256 8.16164C129.665 15.9417 122.134 17.7503 119.061 21.837C114.045 26.219 108.561 28.6912 100.776 25.5636C106.338 19.8277 112.934 21.9399 118.932 21.7258ZM82.6973 155.698C74.061 147.269 65.5907 142.285 51.3229 142.707C37.3024 143.105 29.723 127.79 30.4133 113.609C30.7999 105.673 31.8634 98.4036 28.0804 91.1827C28.0655 91.1959 28.0522 91.2026 28.0406 91.2026C28.0406 91.1959 28.0539 91.1826 28.0539 91.1677C17.4995 87.4759 6.93185 83.7759 -4.77736 79.6759C3.96846 75.1678 11.7503 71.4063 19.2732 67.1952C24.3886 64.3297 29.7711 61.29 34.943 65.322C42.2187 70.9965 33.7217 74.7646 32.2301 79.3839C30.9541 83.3478 29.4608 87.2553 28.0521 91.1677C28.0588 91.1777 28.0655 91.1843 28.0804 91.1843C29.3779 90.6368 30.6821 89.6346 31.968 89.6644C39.0845 89.8038 39.6502 74.0644 48.1339 81.4911C55.1408 87.6219 52.7516 95.5166 43.9493 100.42C41.1253 101.998 40.727 105.092 42.8459 107.72C45.4741 110.987 49.1477 110.994 52.3932 109.124C61.4094 103.919 65.2588 105.673 68.5325 116.386C73.336 132.122 80.9767 119.464 89.5383 115.213C89.014 131.585 96.6133 140.662 112.323 142.685C118.027 143.423 123.948 146.282 122.376 153.729C120.898 160.722 115.597 165.197 108.45 164.044C99.5751 162.614 89.998 162.793 82.6973 155.698ZM110.418 196.175C124.392 216.831 127.532 241.344 135.064 264.557C116.025 245.589 115.665 220.081 110.418 196.175ZM201.648 101.531C190.078 114.418 206.66 125.22 203.528 137.447C202.593 141.057 205.887 146.77 199.577 147.253C194.276 147.654 191.978 142.312 193.255 138.399C197.231 126.27 174.783 109.856 201.648 101.531ZM179.877 192.741C191.379 198.007 195.241 204.641 196.816 217.126C183.28 212.158 181.105 204.597 179.877 192.741ZM457.744 37.8153C468.22 43.2758 465.234 54.3063 471.195 68.1941C455.623 60.7475 450.458 53.4784 452.094 42.4695C452.381 40.5763 456.823 37.3391 457.744 37.8153Z" fill="#BEDD07"/>
<path opacity="0.3" d="M440.005 394.451C441.555 392.693 443.1 390.946 444.603 389.154C446.3 387.116 447.945 385.032 449.601 382.955C451.107 381.062 452.612 379.17 454.076 377.245C455.647 375.161 457.18 373.049 458.706 370.929C460.162 368.913 461.613 366.89 463.027 364.839C464.486 362.72 465.893 360.575 467.301 358.42C468.695 356.281 470.069 354.142 471.413 351.974C472.755 349.812 474.051 347.631 475.34 345.438C476.659 343.191 477.959 340.913 479.23 338.629C480.444 336.442 481.637 334.24 482.804 332.025C484.048 329.644 485.254 327.241 486.449 324.824C487.531 322.617 488.617 320.407 489.651 318.17C490.824 315.665 491.936 313.118 493.041 310.561C494 308.348 494.966 306.138 495.893 303.894C496.968 301.221 497.991 298.525 499.014 295.809C499.841 293.622 500.683 291.447 501.465 289.223C502.479 286.326 503.42 283.39 504.355 280.451C505.019 278.367 505.729 276.296 506.358 274.178C507.354 270.842 508.251 267.446 509.139 264.056C509.602 262.284 510.128 260.544 510.556 258.762C511.838 253.557 513.012 248.304 514.049 242.989C516.602 229.797 518.231 216.662 519.156 203.592C516.932 209.101 514.531 214.52 512.033 219.893C511.417 221.218 510.805 222.544 510.169 223.853C507.697 229.025 505.117 234.145 502.396 239.178C501.871 240.16 501.307 241.103 500.768 242.078C498.46 246.24 496.072 250.348 493.61 254.4C492.676 255.939 491.737 257.484 490.784 259.017C487.962 263.512 485.042 267.942 482.025 272.298C480.889 273.947 479.702 275.565 478.526 277.184C476.319 280.262 474.054 283.297 471.75 286.297C470.401 288.057 469.07 289.832 467.69 291.556C464.605 295.422 461.436 299.22 458.19 302.947C456.561 304.823 454.885 306.673 453.206 308.517C450.945 311.022 448.637 313.488 446.29 315.932C444.329 317.979 442.356 320.025 440.354 322.028C437.226 325.126 434.044 328.169 430.813 331.16C368.605 388.621 285.947 424.107 196.194 424.107C163.614 424.107 131.969 419.421 101.902 410.724C101.935 410.704 101.97 410.689 102.011 410.669C70.2435 401.495 40.2429 387.861 12.7328 370.459C12.7328 370.466 12.7328 370.466 12.7328 370.466C-51.6023 329.767 -102.255 268.689 -129.488 196.831C-122.468 342.898 -16.8729 470.821 133.074 499.963C227.34 518.283 319.98 493.819 391.011 440.157C390.998 440.183 390.992 440.198 390.985 440.211C392.342 439.174 393.655 438.082 395 437.032C403.753 430.204 412.157 422.935 420.184 415.238C421.497 413.984 422.836 412.763 424.125 411.482C426.141 409.482 428.082 407.405 430.048 405.354C431.565 403.766 433.121 402.192 434.611 400.577C436.445 398.573 438.22 396.502 440.005 394.451Z" fill="#005D6A"/>
<path opacity="0.2" d="M396.2 -37.8118C396.2 -0.0528264 306.152 11.2764 195.073 11.2764C83.9905 11.2764 -6.05273 -0.0528264 -6.05273 -37.8118C-6.05273 -75.5708 83.9905 -125.452 195.073 -125.452C306.152 -125.452 396.2 -75.5725 396.2 -37.8118Z" fill="white"/>
<path opacity="0.2" d="M2.71687 14.745C2.71687 28.8003 -8.67214 40.1975 -22.7275 40.1975C-36.7829 40.1975 -48.1719 28.8003 -48.1719 14.745C-48.1719 0.698014 -36.7829 -10.6992 -22.7275 -10.6992C-8.67214 -10.6992 2.71687 0.698014 2.71687 14.745Z" fill="white"/>
<path d="M206.407 459.998C206.407 459.998 168.428 449.205 130.786 466.496C93.1458 483.785 25.1401 438.991 -7.1714 392.108C-39.4823 345.226 -42.0196 272.583 -31.0239 273.278C-20.0276 273.975 -0.572398 276.76 13.0444 291.498C26.6629 306.237 37.7436 322.368 40.7042 337.569C40.7042 337.569 17.9506 365.534 24.2945 365.418C30.6385 365.304 38.5903 342.094 44.4264 350.332C50.2626 358.572 77.3296 384.102 87.5641 387.235C87.5641 387.235 67.01 412.65 73.6079 411.72C80.2052 410.792 92.7242 393.152 94.8387 395.358C96.9543 397.563 124.358 410.793 124.358 410.793C124.358 410.793 108.372 435.046 112.939 433.886C117.507 432.726 133.325 417.989 133.325 417.989C133.325 417.989 189.913 438.761 206.407 459.998Z" fill="#009590"/>
<path opacity="0.39" d="M-31.3632 273.292C-41.9583 274.126 -39.1386 345.721 -7.16893 392.107C25.1426 438.991 93.1483 483.785 130.789 466.496C168.43 449.204 206.409 459.998 206.409 459.998C206.283 459.836 206.148 459.675 206.019 459.514C200.551 456.585 173.109 442.202 147.734 434.562C140.12 432.269 132.287 429.301 124.496 425.797C120.061 429.535 115.168 433.321 112.942 433.887C110.604 434.48 113.655 428.413 117.189 422.347C106.024 416.82 95.1173 410.251 85.249 403.026C81.1975 407.084 76.7392 411.282 73.6103 411.721C70.0524 412.222 74.3897 405.065 79.1413 398.361C74.8353 394.932 70.777 391.382 67.0519 387.747C46.872 368.055 42.2369 374.294 34.2155 355.208C30.8144 359.9 27.3666 365.363 24.297 365.419C20.7544 365.484 26.2854 356.791 31.8614 349.101C24.7563 328.964 25.1123 313.011 1.7796 288.684C-7.47189 279.036 -19.688 274.808 -31.3632 273.292Z" fill="#00A9A1"/>
<path d="M206.18 459.571C206.702 459.871 206.999 460.044 206.999 460.044C206.766 459.882 206.485 459.725 206.18 459.571Z" fill="#08B859"/>
<path d="M8.67879 407.505C49.823 453.573 96.0171 478.506 130.788 466.495C164.316 454.914 197.954 455.441 206.18 459.57C201.985 457.176 182.297 446.303 168.546 444.924C153.083 443.377 143.46 440.737 143.46 440.737L126.406 454.849L137.157 436.277C137.157 436.277 113.598 430.721 99.5956 420.981C98.6685 420.336 97.7807 419.693 96.9237 419.05C91.4927 425.025 76.7336 439.876 63.858 440.298C63.858 440.298 83.2613 428.924 92.9379 415.897C83.4404 407.97 77.7178 400.175 65.9502 391.39C51.6824 380.738 51.6824 380.738 51.6824 380.738C51.6824 380.738 26.6637 399.218 28.9197 393.757C31.1751 388.294 41.5289 376.277 41.5289 376.277C41.5289 376.277 34.1631 378.733 27.7923 362.165C23.7031 351.531 23.1075 337.672 19.2454 324.584C13.399 328.868 0.101126 336.504 -13.9059 330.135C-13.9059 330.135 5.48371 324.812 15.0981 313.892C13.363 310.448 11.2337 307.143 8.547 304.078C-6.45109 286.962 -35.4517 270.663 -38.7032 279.313C-41.9548 287.961 -32.4654 361.434 8.67879 407.505Z" fill="#16B4AE"/>
<g opacity="0.39">
<path d="M-38.7032 279.313C-41.9548 287.962 -32.4654 361.434 8.67879 407.505C49.823 453.573 96.0171 478.506 130.788 466.495C143.971 461.942 157.165 459.267 168.83 457.939C165.643 455.695 162.744 452.441 159.331 450.862C151.97 447.454 144.127 452.392 136.855 456.147C129.582 459.9 120.42 462.041 114.841 454.618C113.382 452.676 112.324 450.235 110.934 448.198C106.522 441.727 99.3965 440.221 92.9721 441.129C86.5488 442.039 80.3384 444.951 73.9099 445.795C68.4435 446.512 61.4639 444.037 60.5887 436.6C59.8647 430.441 63.9932 424.254 62.4687 418.376C61.9455 416.36 60.8118 414.749 59.5891 413.419C46.7922 399.51 24.6999 411.518 13.5998 395.096C12.4804 393.439 11.5196 391.491 11.1789 389.282C10.7276 386.367 11.3889 383.378 11.8927 380.478C13.0983 373.545 13.2986 365.678 10.2866 359.871C6.55007 352.668 -0.586965 351.126 -6.74721 348.533C-12.908 345.94 -19.6554 339.442 -18.7767 330.686C-18.0276 323.208 -12.0088 318.63 -10.5505 311.352C-9.46418 305.934 -11.2169 300.036 -14.0349 295.96C-16.8528 291.882 -20.6008 289.291 -24.3008 286.883C-28.8686 283.91 -33.7411 281.085 -38.685 279.271C-38.6901 279.286 -38.6981 279.3 -38.7032 279.313Z" fill="#00A9A1"/>
</g>
<path d="M207 460.044C207 460.044 171.654 455.739 126.387 468.229C77.9844 481.582 7.05799 428.06 -18.5079 372.835C-43.8078 318.183 -44.9786 243.919 -42.0186 238.929C-39.0585 233.939 -33.3068 240.207 -33.3068 240.207C-33.3068 240.207 -46.6338 316.521 -3.36427 386.655C-3.36427 386.655 59.1979 481.69 135.27 461.212C187.621 447.121 207 460.044 207 460.044Z" fill="#009E97"/>
<path opacity="0.39" d="M67.8768 424.704C66.2393 419.084 75.4064 409.793 80.4147 413.814C85.4236 417.833 69.5149 430.323 67.8768 424.704Z" fill="#00A9A1"/>
<path d="M-36.0618 567.57C-57.9715 577.676 -81.2021 606.731 -81.2021 606.731C-62.2016 605.273 -40.0762 583.686 -32.6744 574.361C-46.4874 600.188 -59.3722 643.943 -59.3722 643.943C-43.1383 634.503 -32.7275 597.054 -29.1843 581.417C-32.6168 612.073 -20.5804 666.224 -20.5804 666.224C-7.70192 640.778 -21.6993 580.968 -21.6993 580.968L-21.5116 579.614C-12.7787 630.615 22.7262 657.357 22.7262 657.357C21.0459 619.767 -19.615 574.798 -19.615 574.798L-17.9291 572.901C3.22928 613.134 50.7899 607.03 50.7899 607.03C32.0547 579.374 -16.4342 568.558 -16.4342 568.558L-16.1912 567.464C-16.1912 567.464 0.212204 568.991 12.0917 567.905C23.9717 566.817 43.1234 550.542 43.1234 550.542C43.1234 550.542 27.3653 542.578 11.3345 542.478C-4.69682 542.382 -20.5633 554.896 -20.5633 554.896C-20.5633 554.896 0.766781 535.856 7.82736 523.944C14.8896 512.031 16.8421 499.636 16.8421 499.636C16.8421 499.636 2.95198 497.129 -8.03741 506.846C-19.0268 516.566 -27.3055 555.339 -27.3055 555.339C-27.3055 555.339 -26.1861 536.146 -28.094 512.222C-30.0008 488.301 -39.8708 478.983 -39.8708 478.983C-53.1058 507.257 -31.733 556.173 -31.733 556.173C-70.9966 508.919 -78.4412 451.364 -78.5901 443.498C-78.674 439.031 -83.7633 444.893 -83.7633 444.893C-87.2796 489.712 -32.7862 557.973 -32.7862 557.973C-51.3685 551.3 -87.7617 554.987 -87.7617 554.987C-67.7148 574.935 -36.0618 567.57 -36.0618 567.57Z" fill="#5AE0DC"/>
<path d="M106.891 535.623C106.891 535.623 114.013 525.606 125.793 531.701C137.575 537.794 136.879 536.974 142.392 544.967L149.446 552.622C149.446 552.622 148.451 553.437 138.452 556.08C128.453 558.724 121.936 560.827 116.768 556.723C111.6 552.619 103.855 539.508 103.359 537.595C102.863 535.685 106.891 535.623 106.891 535.623Z" fill="#5AE0DC"/>
<path d="M86.0691 531.259C86.0691 531.259 91.4403 534.098 97.7203 541.561C104 549.026 106.887 556.477 108.834 562.704C110.781 568.931 112.772 577.67 112.772 577.67C112.772 577.67 96.8554 569.905 91.4911 562.411C86.129 554.917 83.9997 538.628 86.0691 531.259Z" fill="#5AE0DC"/>
<path d="M69.6132 518.629C69.6132 518.629 77.0885 525.199 79.2584 533.849C81.4304 542.501 82.9938 556.066 82.4905 562.618C81.9867 569.167 81.4658 573.2 81.9553 577.597C81.9553 577.597 78.8179 574.87 75.5766 570.51C72.3359 566.15 69.1043 563.048 66.1779 551.386C63.2521 539.725 64.1382 522.477 69.6132 518.629Z" fill="#5AE0DC"/>
<path d="M56.5618 494.274C56.5618 494.274 61.9706 507.142 62.2422 516.447C62.5149 525.752 61.9809 535.511 58.8486 542.862C55.7162 550.211 51.5107 558.165 51.5107 558.165C51.5107 558.165 49.2992 548.659 47.8175 535.304C46.3364 521.947 51.8547 499.501 56.5618 494.274Z" fill="#5AE0DC"/>
<path d="M46.7083 465.991C46.7083 465.991 49.9884 474.046 50.3068 483.725C50.6257 493.403 47.551 503.227 41.1397 512.308C34.7267 521.39 32.7292 532.764 32.7292 532.764C32.7292 532.764 25.1477 507.787 30.4333 491.612C35.7178 475.439 44.8751 468.282 46.7083 465.991Z" fill="#5AE0DC"/>
<path d="M40.1128 463.355C37.9407 470.058 33.964 475.422 28.821 479.606C23.6781 483.788 20.9571 482.411 17.8967 487.818C14.8368 493.221 12.2773 496.761 12.2773 496.761C12.2773 496.761 13.7659 479.96 17.0831 467.391C20.4003 454.822 21.433 449.831 26.6878 444.774C31.9414 439.716 40.3068 435.043 40.3068 435.043C40.3068 435.043 42.2861 456.652 40.1128 463.355Z" fill="#5AE0DC"/>
<path d="M44.9379 440.116C44.9379 440.116 49.0664 439.508 55.6306 440.612C62.1937 441.716 64.7309 440.56 70.4946 446.029C76.2583 451.497 77.8445 456.686 80.2796 458.397C82.7153 460.107 86.9385 463.596 86.9385 463.596C86.9385 463.596 84.1999 468.16 74.2032 468.483C64.2066 468.808 57.0427 470.976 52.5742 463.053C48.1062 455.131 42.9473 441.751 42.9473 441.751L44.9379 440.116Z" fill="#5AE0DC"/>
<path d="M56.8145 486.808C56.8145 486.808 61.9928 481.63 66.8664 480.411C71.7412 479.192 75.1234 479.199 80.9893 481.803C86.8546 484.404 90.0856 486.39 91.1309 486.459C92.1744 486.528 90.6299 489.187 84.2603 493.953C77.8901 498.717 61.1233 505.987 56.8145 486.808Z" fill="#5AE0DC"/>
<path d="M68.3574 514.283C68.3574 514.283 76.3115 506.25 81.362 504.628C86.4137 503.008 92.8392 499.303 97.1817 502.112C101.522 504.921 108.984 507.278 108.984 507.278C108.984 507.278 104.23 507.525 100.216 512.102C96.2015 516.678 92.4096 521.001 85.9863 521.599C79.5631 522.198 68.3574 514.283 68.3574 514.283Z" fill="#5AE0DC"/>
<path d="M93.4785 530.989C93.4785 530.989 105.992 514.307 115.819 511.612C125.647 508.919 133.807 508.323 133.807 508.323C133.807 508.323 128.534 509.381 119.276 518.884C110.017 528.387 98.3316 530.916 93.4785 530.989Z" fill="#5AE0DC"/>
<path d="M107.7 538.497C107.7 538.497 90.4513 529.938 83.643 524.398C76.8357 518.859 74.0001 519.332 69.8784 512.979C65.7573 506.626 63.5727 502.393 60.8933 496.248C58.2135 490.101 52.4075 476.788 50.3244 472.008C48.2402 467.227 46.6022 463.471 45.8182 451.599C45.0343 439.724 39.8257 425.456 39.9821 418.838C40.1367 412.22 38.259 399.39 38.6127 394C38.9659 388.612 39.2198 383.768 37.7312 380.353C36.2421 376.938 31.6206 373.313 32.1655 376.113C32.7098 378.91 35.9317 390.175 35.8764 396.246C35.8199 402.318 37.944 417.264 37.988 422.792C38.033 428.318 37.8813 430.298 39.0686 437.666C40.2548 445.038 43.4231 460.053 44.4135 463.875C45.4052 467.699 47.7358 474.595 50.5635 481.082C53.3923 487.568 57.4113 496.785 59.8915 504.023C62.3711 511.259 67.239 517 70.2698 520.075C73.3011 523.151 85.0785 531.564 88.0122 532.867C90.9443 534.169 107.7 538.497 107.7 538.497Z" fill="#00A39D"/>
<path d="M145.249 552.152C141.235 551.567 137.254 550.675 133.293 549.654C131.308 549.161 129.34 548.57 127.367 547.997C125.4 547.387 123.436 546.765 121.48 546.085C119.525 545.403 117.581 544.659 115.639 543.903L112.745 542.675C112.265 542.463 111.779 542.272 111.302 542.045L109.872 541.356C107.957 540.477 106.079 539.432 104.213 538.37L101.46 536.622C100.568 535.963 99.6838 535.287 98.8086 534.608C102.526 536.753 106.37 538.334 110.213 539.892C114.064 541.418 117.938 542.848 121.834 544.178C125.721 545.552 129.624 546.847 133.53 548.158C137.434 549.459 141.342 550.766 145.249 552.152Z" fill="#00A39D"/>
<path d="M127.623 510.609C124.828 512.557 121.933 514.183 119.025 515.746C117.551 516.525 116.163 517.275 114.785 518.222C113.416 519.179 112.05 520.158 110.708 521.232L106.645 524.384C105.275 525.409 103.91 526.465 102.492 527.4C101.077 528.343 99.6379 529.237 98.1299 529.91C96.6276 530.558 95.0575 531.104 93.4805 530.989C95.0329 530.664 96.4747 529.887 97.872 529.009C99.2773 528.148 100.619 527.085 101.965 526.044C103.297 524.963 104.637 523.889 105.964 522.769C107.301 521.674 108.643 520.582 110.005 519.515C111.372 518.464 112.773 517.466 114.203 516.543C115.647 515.667 117.176 514.888 118.655 514.301C121.628 513.013 124.615 511.797 127.623 510.609Z" fill="#00A39D"/>
<path d="M111.018 575.195C110.858 574.642 110.602 574.159 110.346 573.683C110.093 573.204 109.819 572.747 109.542 572.296C108.981 571.396 108.395 570.526 107.797 569.676C106.601 567.97 105.353 566.333 104.098 564.705L100.265 559.908C98.986 558.295 97.7136 556.663 96.4727 554.97C95.2426 553.266 94.0501 551.496 92.9227 549.646C92.375 548.7 91.8181 547.767 91.3149 546.771C91.0616 546.276 90.7871 545.804 90.5532 545.287L89.8531 543.745C88.0068 539.629 86.7819 534.896 86.6016 530.117C87.3832 534.782 88.841 539.077 90.7963 542.913C92.7498 546.752 95.0423 550.257 97.49 553.577C99.9057 556.943 102.481 560.132 104.886 563.62C106.088 565.359 107.24 567.162 108.326 569.043C108.856 570.002 109.385 570.958 109.86 571.969C110.319 572.988 110.803 574.027 111.018 575.195Z" fill="#00A39D"/>
<path d="M68.3574 514.283C71.2598 515.566 74.2621 516.209 77.2335 516.172C78.7181 516.126 80.1929 515.945 81.6336 515.532C83.0708 515.136 84.4932 514.5 85.8899 513.792C88.6959 512.379 91.4083 510.527 94.2388 508.915C95.6498 508.101 97.099 507.35 98.6103 506.849C100.113 506.372 101.724 506.121 103.212 506.688C101.679 506.564 100.212 507.068 98.8135 507.776C97.4071 508.472 96.0583 509.391 94.7049 510.313C93.3573 511.257 91.9977 512.188 90.6255 513.12C89.243 514.021 87.8389 514.887 86.3891 515.638C84.9251 516.339 83.444 516.997 81.8858 517.36C80.3333 517.692 78.7631 517.843 77.2061 517.705C74.0983 517.451 71.035 516.322 68.3574 514.283Z" fill="#00A39D"/>
<path d="M81.4908 571.553C81.0304 571.779 80.5049 571.575 80.0799 571.248C79.9658 571.174 79.8648 571.078 79.7689 570.971C79.6713 570.867 79.5669 570.771 79.4739 570.661C79.3033 570.42 79.1099 570.199 78.9547 569.936C78.2963 568.92 77.8365 567.724 77.4034 566.528C76.5909 564.099 75.9959 561.554 75.5474 558.979C74.6151 553.845 74.0782 548.624 73.4774 543.464C72.916 538.291 72.2627 533.173 71.2854 528.161C70.292 523.155 68.9067 518.303 67.1797 513.606C69.4185 517.874 71.1427 522.686 72.3592 527.716C72.9742 530.229 73.4461 532.801 73.87 535.379C74.2642 537.966 74.5997 540.567 74.8964 543.161L75.7248 550.937C75.9822 553.524 76.3028 556.093 76.6383 558.651L76.9139 560.559L77.2397 562.449C77.465 563.705 77.7292 564.944 78.0504 566.154C78.3739 567.354 78.7408 568.552 79.2674 569.601C79.3912 569.874 79.5492 570.103 79.6896 570.36C79.8539 570.573 80.0057 570.828 80.1974 570.997C80.5551 571.38 81.0144 571.676 81.4908 571.553Z" fill="#00A39D"/>
<path d="M88.5574 488.007C86.0424 489.601 83.3956 490.772 80.71 491.709C78.0216 492.642 75.2755 493.297 72.4992 493.629C69.7235 493.935 66.9101 493.94 64.1378 493.37C61.3752 492.827 58.6262 491.684 56.2676 489.676C58.8813 490.934 61.5572 491.589 64.2587 491.841C65.6081 491.962 66.9637 492.016 68.3165 491.962C69.6704 491.941 71.026 491.841 72.3782 491.668C73.7327 491.532 75.0844 491.312 76.4331 491.057C77.7848 490.826 79.129 490.509 80.4784 490.211C83.1719 489.567 85.8581 488.825 88.5574 488.007Z" fill="#00A39D"/>
<path d="M56.8748 491.795C57.2593 493.021 57.5417 494.302 57.8213 495.576C58.1015 496.855 58.3411 498.149 58.5779 499.443C59.0235 502.042 59.3972 504.674 59.6294 507.345C59.8707 510.013 59.974 512.723 59.7749 515.479C59.6539 516.881 59.4508 518.196 59.2089 519.507C58.9773 520.821 58.6983 522.119 58.3936 523.402C57.766 525.962 56.998 528.432 56.2979 530.875C55.9436 532.094 55.6144 533.314 55.3423 534.552C55.2036 535.169 55.0906 535.794 54.9782 536.421L54.6547 538.359C53.8041 543.539 52.9026 548.704 51.8613 553.837C52.3161 548.551 52.9111 543.292 53.5576 538.05L53.7984 536.083C53.8959 535.412 54.0032 534.744 54.1316 534.085C54.3855 532.766 54.6964 531.479 55.0262 530.214C55.7046 527.693 56.4463 525.269 57.0317 522.78C57.3363 521.543 57.6165 520.298 57.851 519.035C58.1003 517.775 58.2886 516.487 58.4289 515.257C58.688 512.731 58.6252 510.102 58.518 507.486C58.3867 504.868 58.1705 502.243 57.8892 499.626C57.7551 498.318 57.5994 497.008 57.4356 495.702C57.3563 495.048 57.2685 494.396 57.1777 493.744C57.0876 493.09 57.0071 492.434 56.8748 491.795Z" fill="#00A39D"/>
<path d="M83.6978 464.119C82.0671 465.488 80.0765 465.902 78.1589 465.865C77.1889 465.849 76.2315 465.638 75.2793 465.395C74.8063 465.251 74.3379 465.081 73.8723 464.904L72.499 464.28C70.728 463.417 68.9673 462.584 67.1626 461.831C65.3637 461.061 63.5299 460.152 61.7989 459.042C58.3476 456.775 55.0743 454.175 51.881 451.361C50.2857 449.956 48.7275 448.472 47.2087 446.914C46.4573 446.116 45.7047 445.324 44.9858 444.472C44.2675 443.624 43.5572 442.746 42.9473 441.75C43.6633 442.595 44.4461 443.315 45.2261 444.036C46.0088 444.753 46.8036 445.441 47.6058 446.114C49.2045 447.471 50.8317 448.766 52.4618 450.047C54.1027 451.305 55.7356 452.577 57.3993 453.771C59.0551 454.988 60.7142 456.191 62.4042 457.256C64.0805 458.37 65.803 459.23 67.59 460.064C69.3718 460.92 71.1702 461.813 72.9086 462.855C74.606 463.861 76.3719 464.608 78.2068 464.903C80.0291 465.195 81.9393 465.084 83.6978 464.119Z" fill="#00A39D"/>
<path d="M41.416 435.227C41.3076 435.569 41.3378 435.961 41.3201 436.333L41.3076 437.464C41.2922 438.22 41.2665 438.975 41.2254 439.731C41.1427 441.245 40.9784 442.752 40.7473 444.248C40.2703 447.229 39.4784 450.145 38.3624 452.823C38.088 453.498 37.7896 454.152 37.478 454.788C37.3246 455.108 37.1688 455.429 37.0073 455.745L36.5035 456.672C36.1783 457.301 35.7932 457.87 35.4383 458.471C35.0521 459.036 34.6795 459.621 34.2675 460.151C32.65 462.338 30.7729 464.036 29.0384 465.81C27.288 467.555 25.634 469.446 24.1688 471.589C22.6979 473.702 21.4239 476.126 20.1806 478.569C17.7352 483.51 15.5215 488.703 13.3711 493.959C14.984 488.346 16.933 482.91 19.2409 477.732C20.3957 475.14 21.6732 472.64 23.1732 470.319C24.6789 468.029 26.4053 466.037 28.1883 464.222C29.9838 462.436 31.7891 460.805 33.3341 458.799C34.9163 456.852 36.2194 454.481 37.4044 452.036C38.5461 449.555 39.4482 446.849 40.0689 444.006C40.3913 442.587 40.6349 441.132 40.8323 439.662C40.9333 438.925 41.0155 438.185 41.0931 437.439L41.214 436.321C41.2654 435.954 41.2722 435.555 41.416 435.227Z" fill="#00A39D"/>
<path d="M32.8926 527.81C32.5571 527.268 32.4692 526.523 32.3882 525.837C32.3346 525.135 32.3152 524.427 32.3368 523.722C32.3694 522.309 32.5188 520.913 32.7003 519.532C33.0837 516.767 33.6269 514.068 34.2602 511.395C34.9055 508.688 35.8509 506.121 36.9663 503.729C38.0897 501.339 39.4003 499.139 40.757 497.042C42.1269 494.961 43.5607 492.986 44.8456 490.922C46.1191 488.855 47.275 486.686 47.2784 484.071C47.3526 482.716 47.3509 481.346 47.3344 479.97C47.3241 478.593 47.267 477.216 47.1986 475.836C47.0713 473.073 46.8557 470.312 46.6177 467.545C47.1689 470.23 47.574 472.967 47.8998 475.727C48.1993 478.495 48.4338 481.288 48.3984 484.133C48.4001 484.816 48.3722 485.624 48.241 486.375C48.1006 487.119 47.8998 487.833 47.6556 488.498C47.1638 489.829 46.5367 490.998 45.8926 492.112C44.5769 494.313 43.1539 496.29 41.8268 498.358C39.1264 502.414 36.7523 506.842 35.3117 511.916C34.6025 514.488 33.9184 517.094 33.3838 519.746C33.1065 521.069 32.8794 522.413 32.7322 523.769C32.6512 524.446 32.6136 525.131 32.6033 525.818C32.6136 526.491 32.6204 527.215 32.8926 527.81Z" fill="#00A39D"/>
<path d="M79.3272 781.54C79.3272 781.54 73.3838 754.958 59.8777 738.65C46.3716 722.344 10.748 695.917 10.748 695.917C10.748 695.917 29.1928 766.623 79.3272 781.54Z" fill="#005F61"/>
<path d="M-0.770425 683.028C-0.155371 681.061 15.945 714.023 12.4669 765.218C12.4669 765.218 -12.3675 720.123 -0.770425 683.028Z" fill="#005F61"/>
<path d="M7.64258 689.483C7.64258 689.483 25.2726 714.562 63.232 693.594C63.232 693.594 21.9292 668.224 7.64258 689.483Z" fill="#097F73"/>
<path d="M47.9374 663.782C47.9374 663.782 3.32254 660.37 -4.20703 674.744C-4.20703 674.744 28.7754 686.721 47.9374 663.782Z" fill="#005F61"/>
<path d="M-18.9638 744.434C-18.9638 744.434 0.522862 694.035 -8.84845 673.094C-8.84845 673.094 -28.1411 711.173 -18.9638 744.434Z" fill="#097F73"/>
<path d="M-10.252 667.274C-10.252 667.274 24.6561 669.797 39.9001 642.129C39.9001 642.129 -4.24519 648.826 -10.252 667.274Z" fill="#097F73"/>
<path d="M-17.8203 655.728C-17.8203 655.728 22.751 652.455 38.7784 620.83C38.7784 620.83 -9.31339 625.084 -17.8203 655.728Z" fill="#005F61"/>
<path d="M-23.963 644.013C-23.963 644.013 8.92185 630.943 26.0972 597.527C26.0972 597.527 -12.5691 597.343 -27.2129 640.777L-23.963 644.013Z" fill="#005F61"/>
<path d="M-32.9252 634.053C-32.9252 634.053 -3.3387 605.221 10.172 574.686C10.172 574.686 -22.4967 590.254 -36.207 629.402L-32.9252 634.053Z" fill="#097F73"/>
<path d="M14.2073 698.783C14.2073 698.783 -63.1161 601.807 -75.5759 543.096C-75.5759 543.096 -76.7632 539.771 -79.1549 542.815C-81.5461 545.859 -58.6955 618.065 14.2073 698.783Z" fill="#005F61"/>
<path d="M64.1301 594.591C64.1432 594.953 64.1564 595.314 64.1695 595.676C64.2094 596.773 64.4616 597.761 65.0373 598.551C65.5907 599.31 66.3501 599.742 67.1329 599.742C67.9157 599.742 68.6751 599.31 69.2286 598.551C69.8042 597.761 70.0564 596.773 70.0964 595.676C70.1095 595.314 70.1226 594.953 70.1357 594.591C70.2179 592.346 68.7076 590.471 67.1324 590.471C65.5582 590.471 64.0485 592.346 64.1301 594.591Z" fill="#005F61"/>
<path d="M55.3845 589.424C58.6863 589.424 58.6863 582.4 55.3845 582.4C52.0828 582.401 52.0828 589.424 55.3845 589.424Z" fill="#005F61"/>
<path d="M64.4201 583.715C64.6837 583.689 64.9472 583.663 65.2108 583.636C65.0368 583.604 64.8639 583.572 64.6899 583.54C64.7242 583.556 64.759 583.574 64.7932 583.589C66.0324 584.183 67.319 582.638 67.319 580.95C67.319 579.261 66.0324 577.716 64.7932 578.31C64.759 578.326 64.7242 578.342 64.6899 578.359C64.8634 578.327 65.0368 578.295 65.2108 578.263C64.9472 578.236 64.6837 578.21 64.4201 578.184C63.3229 578.074 62.4043 579.524 62.4043 580.949C62.4043 582.374 63.3229 583.824 64.4201 583.715Z" fill="#005F61"/>
<path d="M56.2908 608.02C59.5926 608.02 59.5926 600.996 56.2908 600.996C52.989 600.996 52.989 608.02 56.2908 608.02Z" fill="#005F61"/>
<path d="M44.5365 589.424C47.8377 589.424 47.8377 582.4 44.5365 582.4C41.2352 582.401 41.2352 589.424 44.5365 589.424Z" fill="#005F61"/>
<path d="M50.9292 572.189C51.0844 572.388 51.2395 572.589 51.3947 572.789C51.6173 573.076 51.9088 573.249 52.1753 573.445C53.0573 574.093 53.9987 572.801 53.5263 571.591C53.4293 571.342 53.3346 571.09 53.2313 570.845C53.0813 570.488 52.816 570.181 52.6106 569.882C52.1661 569.234 51.377 569.267 50.9292 569.882C50.4819 570.495 50.4562 571.58 50.9292 572.189Z" fill="#005F61"/>
<path d="M-70.681 498.095C-62.3926 509.467 -45.8163 503.07 -39.6013 503.783C-33.3846 504.492 -36.4924 522.971 -16.2897 522.971C3.91237 522.971 14.7905 511.598 31.3673 490.279C47.9436 468.959 43.2816 467.537 54.1597 444.796C65.0384 422.056 64.0023 396.47 64.0023 396.47C54.6783 403.577 44.3183 398.602 36.0299 397.892C27.7415 397.18 16.3453 398.602 -2.82128 404.286C-21.9884 409.974 -20.9517 410.683 -36.493 417.08C-52.0331 423.473 -54.1047 430.58 -65.5015 445.505C-76.8971 460.431 -78.97 486.726 -70.681 498.095ZM54.1597 426.318C62.9662 429.871 38.101 451.903 33.9576 446.216C29.8131 440.531 45.3533 422.765 54.1597 426.318ZM37.6154 468.155C40.6536 473.515 34.1425 481.257 25.0262 483.045C15.9105 484.831 4.62442 482.449 10.7014 476.494C16.7795 470.538 34.5767 462.798 37.6154 468.155ZM13.7555 406.42C31.3673 407.129 21.5253 454.034 4.94849 451.19C-11.6277 448.349 -3.85797 405.708 13.7555 406.42ZM9.39994 503.294C11.5703 509.843 -1.45253 511.035 -5.35967 506.272C-9.26623 501.505 7.22899 496.742 9.39994 503.294ZM-13.1112 516.963C-17.5837 520.309 -26.9334 515.848 -24.4943 509.711C-22.0557 503.577 -8.64091 513.615 -13.1112 516.963ZM-18.88 434.846C-9.55607 432.714 -12.1458 464.693 -19.3987 462.562C-26.6504 460.431 -28.2046 436.977 -18.88 434.846ZM-57.7312 450.481C-57.7312 450.481 -54.6228 454.034 -46.8536 466.116C-39.0838 478.198 -25.0962 481.039 -31.831 488.858C-38.5658 496.674 -54.6234 486.726 -59.2859 474.645C-63.9473 462.562 -68.0912 447.637 -57.7312 450.481Z" fill="#005F61"/>
<path d="M-36.4946 417.079C-52.0347 423.473 -54.1064 430.58 -65.5032 445.505C-76.8994 460.431 -78.9716 486.725 -70.6832 498.095C-70.37 498.525 -70.0402 498.922 -69.7053 499.302C-68.2932 492.725 -67.2371 486.186 -65.4735 483.769C-61.078 477.739 -57.7819 498.089 -42.397 495.83C-39.9219 495.466 -38.2451 493.945 -37.1274 491.569C-44.819 492.387 -55.6052 484.185 -59.2876 474.644C-63.949 462.562 -68.0929 447.637 -57.7328 450.481C-57.7328 450.481 -54.6245 454.034 -46.8553 466.116C-43.3709 471.534 -38.641 475.091 -35.0859 478.075C-34.9422 461.981 -38.463 438.881 -31.9582 425.728C-22.9914 407.599 -17.2676 426.733 -3.99144 431.055C-2.75392 418.964 3.9843 406.025 13.7533 406.42C18.3776 406.606 21.1071 409.981 22.3213 414.801C24.0826 411.941 26.4623 408.788 30.1275 405.376C45.5125 391.054 41.1169 406.883 53.2046 405.376C56.9754 404.906 60.6926 401.721 64.0229 397.561C64.0149 396.855 64.0001 396.469 64.0001 396.469C54.6761 403.576 44.316 398.601 36.0276 397.891C27.7392 397.179 16.343 398.601 -2.82352 404.285C-21.9901 409.973 -20.9539 410.683 -36.4946 417.079Z" fill="#097F73"/>
<path d="M64.002 396.469C63.5884 398.293 62.987 400.029 62.3377 401.732C61.6565 403.41 60.9028 405.041 60.0732 406.599C58.4215 409.731 56.4611 412.558 54.3238 415.109C52.1677 417.632 49.8255 419.86 47.3636 421.817C44.9844 423.731 42.6092 425.575 40.319 427.649C35.7227 431.736 31.2746 436.126 27.0856 440.917C22.9149 445.722 18.9045 450.812 15.4407 456.49L14.133 458.605L12.8994 460.79C12.4761 461.508 12.095 462.264 11.7144 463.017L10.5414 465.324C8.86907 468.66 6.96115 471.613 4.922 474.338C2.87999 477.061 0.731872 479.591 -1.48244 481.983C-3.69161 484.387 -5.99151 486.617 -8.35416 488.704C-13.0629 492.907 -18.0313 496.558 -23.2347 499.461C-25.8456 500.874 -28.5163 502.111 -31.2612 502.943C-32.6283 503.382 -34.0244 503.659 -35.4166 503.865C-36.8167 503.999 -38.2214 504.004 -39.6016 503.782C-36.819 503.688 -34.134 502.766 -31.5442 501.556C-28.9539 500.337 -26.4349 498.849 -23.9976 497.134C-21.5499 495.455 -19.1633 493.607 -16.8423 491.618C-14.5213 489.629 -12.2333 487.57 -10.0247 485.359C-5.6275 480.921 -1.36149 476.2 2.38019 470.867C4.25274 468.217 6.034 465.452 7.47065 462.489C9.0254 459.329 10.6977 456.03 12.5617 453.119C13.4723 451.617 14.4639 450.227 15.4247 448.796C16.4272 447.428 17.4011 446.015 18.4458 444.71C20.4884 442.031 22.6348 439.522 24.8331 437.106C27.0634 434.754 29.3114 432.438 31.6489 430.302C32.8003 429.201 33.991 428.182 35.1698 427.138C36.3754 426.154 37.5638 425.133 38.7894 424.198C41.2114 422.271 43.7098 420.491 46.2134 418.817C48.6456 417.204 50.9758 415.301 53.173 413.123C55.3833 410.967 57.4213 408.467 59.2636 405.697C61.0848 402.91 62.7816 399.892 64.002 396.469Z" fill="#097F73"/>
<path d="M31.3657 490.279C22.8833 496.595 11.8688 494.242 3.54555 500.091C6.24426 500.14 8.65655 501.057 9.39827 503.294C11.2902 509.007 1.63078 510.64 -3.46367 507.807C-7.6772 514.03 -7.08782 516.703 -13.1128 516.963C-17.0628 519.917 -24.8109 516.781 -24.889 511.784C-27.9232 510.376 -30.9334 509.89 -33.7383 512.564C-31.2821 517.62 -27.1644 522.971 -16.2914 522.971C3.91071 522.97 14.7888 511.598 31.3657 490.279Z" fill="#097F73"/>
<path d="M56.0278 428.929C56.0444 430.223 55.3871 431.823 54.2825 433.538C54.0189 434.346 53.7644 435.176 53.5299 436.035C49.0888 452.283 46.1276 450.76 40.5761 460.917C39.1041 463.609 38.4486 466.431 38.0931 469.258C38.5804 470.789 38.3995 472.452 37.6874 474.084C37.4792 477.48 37.2881 480.781 36.2148 483.762C47.0753 468.374 44.5107 464.965 54.1587 444.795C58.4156 435.896 60.8438 426.566 62.228 418.501C60.198 421.066 57.9472 424.516 56.0278 428.929Z" fill="#097F73"/>
<path d="M464.51 617.063L464.51 915.958C464.51 957.914 464.51 986.411 464.51 986.411H214.3C214.3 986.411 203.29 872.711 314.688 873.745C426.085 874.779 339.601 797.256 365.417 729.036C382.96 682.677 421.732 706.958 445.217 674.656C456.287 659.421 444.009 615.11 464.51 617.063Z" fill="#5AE0DC"/>
<path opacity="0.39" d="M410.384 896.268C423.314 898.997 436.923 909.054 464.51 915.959C464.51 957.914 464.51 986.411 464.51 986.411H343.229C343.22 986.36 343.22 986.298 343.211 986.235C341.066 960.663 355.015 929.065 370.206 911.927C382.075 898.531 395.737 892.02 410.384 896.268Z" fill="#00A9A1"/>
<path d="M134.506 569.51C134.636 569.021 134.799 568.224 134.994 567.117C135.222 566.01 135.58 565.262 136.068 564.871C136.557 564.48 137.436 564.301 138.705 564.334C140.007 564.367 140.658 564.676 140.658 565.262C140.691 565.848 138.868 573.546 135.189 588.357C131.544 603.169 129.086 612.641 127.816 616.775C126.579 620.91 125.44 623.921 124.398 625.809C123.357 627.697 121.941 629.422 120.15 630.984C118.393 632.547 117.123 633.312 116.342 633.279C115.561 633.247 115.154 633.084 115.121 632.791C115.121 632.498 115.316 632.059 115.707 631.473C119.451 625.776 122.771 617.101 125.668 605.447L134.506 569.51ZM173.617 603.738C173.617 605.366 171.762 608.361 168.051 612.723C164.34 617.085 161.557 619.965 159.701 621.365C157.878 622.732 156.039 623.416 154.184 623.416C150.733 623.383 149.008 620.649 149.008 615.213C149.008 612.641 149.529 608.621 150.57 603.152C151.612 597.651 152.165 594.656 152.23 594.168C148.78 595.307 145.476 599.637 142.318 607.156C141.667 608.751 140.626 611.469 139.193 615.311C137.794 619.119 136.801 621.382 136.215 622.098C135.499 622.944 134.555 623.367 133.383 623.367C132.211 623.367 131.609 622.944 131.576 622.098C131.576 620.535 136.801 607.579 147.25 583.23C148.878 579.389 149.822 577.241 150.082 576.785C150.635 575.711 151.791 575.76 153.549 576.932C154.07 577.29 154.33 577.648 154.33 578.006C154.363 578.364 154.118 578.934 153.598 579.715C152.393 581.603 151.319 583.8 150.375 586.307L148.52 591.141L150.082 589.236C151.482 587.511 152.605 586.209 153.451 585.33C154.298 584.419 154.997 583.914 155.551 583.816C156.137 583.686 156.739 583.621 157.357 583.621C158.692 583.719 159.392 584.435 159.457 585.77C159.457 586.421 159.229 587.299 158.773 588.406C156.723 593.126 155.144 600.271 154.037 609.842C153.744 612.576 153.598 614.985 153.598 617.068C153.63 619.119 154.135 620.161 155.111 620.193C156.479 620.193 158.969 618.077 162.582 613.846C166.195 609.581 168.799 606.049 170.395 603.25C170.818 602.566 171.42 602.208 172.201 602.176C173.015 602.371 173.487 602.892 173.617 603.738ZM190.902 588.553L185.873 588.309C182.911 588.341 180.518 589.969 178.695 593.191C176.872 596.414 174.61 602.811 171.908 612.381C169.206 621.919 167.367 627.957 166.391 630.496C161.671 642.573 156.69 649.116 151.449 650.125C150.961 650.223 150.505 650.271 150.082 650.271C148.227 650.271 147.217 649.409 147.055 647.684C147.055 646.74 147.576 646.089 148.617 645.73C152.654 644.559 155.453 643.159 157.016 641.531C158.546 639.904 159.848 637.951 160.922 635.672C163.852 629.422 166.944 619.184 170.199 604.959C173.454 590.734 176.742 578.396 180.062 567.947C180.876 565.408 181.918 563.504 183.188 562.234C184.49 560.965 185.645 560.314 186.654 560.281C189.031 560.281 190.219 562.202 190.219 566.043C190.219 567.41 189.828 568.452 189.047 569.168C188.266 569.852 187.419 570.193 186.508 570.193C185.596 570.161 184.831 569.852 184.213 569.266C183.627 571.414 182.943 573.774 182.162 576.346C181.381 578.917 180.616 581.717 179.867 584.744C180.779 583.768 181.804 583.279 182.943 583.279C184.115 583.247 185.759 583.621 187.875 584.402C189.991 585.151 191.586 585.525 192.66 585.525L196.859 584.5C197.348 584.565 197.608 584.777 197.641 585.135C197.641 586.893 196.062 587.983 192.904 588.406C192.221 588.504 191.553 588.553 190.902 588.553ZM239.291 592.166C238.803 591.059 238.168 590.506 237.387 590.506C237.159 590.506 236.98 590.538 236.85 590.604C234.018 591.71 230.079 593.94 225.033 597.293C220.02 600.646 217.432 603.071 217.27 604.568C217.302 604.861 217.497 605.04 217.855 605.105C218.832 605.105 220.688 604.324 223.422 602.762C226.189 601.167 227.702 600.304 227.963 600.174C228.223 600.076 228.679 599.832 229.33 599.441L230.746 598.611C236.182 595.584 239.031 593.436 239.291 592.166ZM230.355 608.865V608.719C230.616 607.091 230.746 606.212 230.746 606.082C230.714 605.561 230.242 605.301 229.33 605.301C228.419 605.268 227.41 605.496 226.303 605.984C225.229 606.473 222.836 607.775 219.125 609.891C215.414 611.974 212.322 613.016 209.848 613.016C209.066 613.016 208.106 612.658 206.967 611.941C204.753 610.509 204.704 608.507 206.82 605.936C208.448 604.08 211.199 601.72 215.072 598.855L223.959 592.215C230.307 587.527 234.473 585.2 236.459 585.232C238.445 585.265 240.398 586.421 242.318 588.699C241.505 589.155 240.967 590.327 240.707 592.215C240.74 592.182 240.935 592.166 241.293 592.166C241.651 592.166 241.993 592.264 242.318 592.459C242.676 592.622 242.855 593.37 242.855 594.705C242.855 596.007 242.725 596.674 242.465 596.707C242.009 596.707 241.081 597.342 239.682 598.611C238.282 599.848 237.24 601.004 236.557 602.078C235.938 607.124 234.864 613.048 233.334 619.852C230.079 634.272 226.628 644.331 222.982 650.027C221.876 651.72 220.525 653.364 218.93 654.959C215.349 658.41 212.061 660.135 209.066 660.135C207.634 660.135 206.918 659.793 206.918 659.109C206.951 658.849 207.406 658.605 208.285 658.377C209.197 658.182 210.206 657.758 211.312 657.107C213.624 655.708 215.512 653.836 216.977 651.492C219.678 647.195 221.99 641.938 223.91 635.721C225.863 629.503 228.012 620.551 230.355 608.865ZM243.783 625.027C243.783 627.664 244.304 630.203 245.346 632.645C247.104 636.746 249.708 638.797 253.158 638.797C255.86 638.797 258.122 638.097 259.945 636.697C261.801 635.33 263.982 633.068 266.488 629.91C267.27 628.901 268.083 628.559 268.93 628.885C269.776 629.178 270.199 629.845 270.199 630.887C270.199 633.947 268.376 636.567 264.73 638.748C261.117 640.929 257.667 642.02 254.379 642.02C244.646 642.02 239.779 636.258 239.779 624.734C239.779 619.689 240.723 614.432 242.611 608.963L243.1 607.547C249.187 590.099 253.907 578.396 257.26 572.439C259.604 568.143 262.143 565.994 264.877 565.994C268.751 566.027 270.72 567.426 270.785 570.193C270.785 571.919 269.63 574.653 267.318 578.396C265.007 582.107 260.368 588.602 253.402 597.879C251.645 599.865 250.082 602.111 248.715 604.617C245.427 610.802 243.783 617.605 243.783 625.027ZM252.768 592.41C253.256 592.378 255.502 588.862 259.506 581.863C263.542 574.832 265.544 571.202 265.512 570.975C265.479 570.714 265.349 570.584 265.121 570.584C264.893 570.551 264.747 570.568 264.682 570.633C263.607 571.284 261.329 574.751 257.846 581.033C254.395 587.283 252.67 590.994 252.67 592.166C252.67 592.264 252.702 592.345 252.768 592.41ZM286.557 611.941C286.459 612.82 286.41 613.699 286.41 614.578C286.41 615.424 286.768 615.864 287.484 615.896C289.047 615.896 291.244 613.113 294.076 607.547C296.941 601.98 298.926 597.081 300.033 592.85C300.326 591.678 300.473 590.799 300.473 590.213C300.473 589.594 300.212 589.285 299.691 589.285C296.176 589.285 293.067 592.28 290.365 598.27C288.38 602.664 287.11 607.221 286.557 611.941ZM297.104 560.77C297.494 559.923 298.389 559.484 299.789 559.451C301.189 559.386 302.1 559.63 302.523 560.184C302.979 560.704 303.191 561.128 303.158 561.453C303.158 561.779 303.061 562.12 302.865 562.479C297.299 572.114 293.946 580.464 292.807 587.527C295.15 586.128 297.413 585.428 299.594 585.428C301.775 585.428 303.272 586.258 304.086 587.918C304.379 588.569 304.525 589.301 304.525 590.115C304.525 592.492 302.979 597.293 299.887 604.52C296.794 611.746 293.555 617.345 290.17 621.316C288.087 623.725 286.312 624.946 284.848 624.979C282.895 624.979 281.837 622.798 281.674 618.436C281.674 618.012 281.658 617.605 281.625 617.215C281.625 613.895 282.569 608.816 284.457 601.98C286.378 595.145 290.593 581.408 297.104 560.77ZM314.535 598.074C315.186 597.977 316.586 596.577 318.734 593.875C320.883 591.173 321.957 589.057 321.957 587.527C321.957 587.299 321.876 587.039 321.713 586.746C321.062 587.397 319.695 589.253 317.611 592.312C315.561 595.372 314.535 597.293 314.535 598.074ZM333.969 605.35C335.596 603.592 336.508 603.283 336.703 604.422C336.703 604.845 336.443 605.545 335.922 606.521C334.327 609.484 331.885 612.625 328.598 615.945C323.389 621.219 318.783 623.855 314.779 623.855C312.891 623.855 311.28 623.318 309.945 622.244C307.439 620.193 306.186 616.629 306.186 611.551C306.186 608.654 307.064 604.585 308.822 599.344C310.613 594.07 313.347 589.301 317.025 585.037C318.653 582.954 320.346 581.912 322.104 581.912C322.95 581.912 323.829 582.091 324.74 582.449C326.889 583.328 327.963 584.744 327.963 586.697C327.963 586.99 327.865 587.462 327.67 588.113C326.335 590.75 324.187 593.794 321.225 597.244C318.262 600.695 315.251 603.445 312.191 605.496C311.15 609.272 310.629 612.218 310.629 614.334C310.629 616.45 310.678 617.801 310.775 618.387C311.068 619.754 312.159 620.438 314.047 620.438C315.935 620.438 318.116 619.575 320.59 617.85C323.064 616.092 325.701 613.781 328.5 610.916C331.299 608.051 332.878 606.44 333.236 606.082C333.627 605.724 333.871 605.48 333.969 605.35Z" fill="black"/>
<path d="M202.279 587.723C200.652 587.983 198.552 592.052 195.98 599.93C193.409 607.807 192.123 612.462 192.123 613.895C192.123 615.327 192.253 616.043 192.514 616.043C193.881 616.043 196.013 613.113 198.91 607.254C201.807 601.362 203.256 595.975 203.256 591.092C203.256 588.878 202.93 587.755 202.279 587.723ZM201.498 581.668C202.41 581.668 203.191 581.928 203.842 582.449C204.981 583.426 205.551 585.314 205.551 588.113C205.551 600.906 203.272 610.493 198.715 616.873L198.031 617.898C195.199 622 192.921 624.051 191.195 624.051C189.079 623.823 187.859 622.277 187.533 619.412C187.533 617.036 188.493 612.218 190.414 604.959C192.367 597.7 194.597 591.417 197.104 586.111C198.536 583.182 200.001 581.701 201.498 581.668Z" fill="#0C8206"/>
<path d="M275.619 587.723C273.992 587.983 271.892 592.052 269.32 599.93C266.749 607.807 265.463 612.462 265.463 613.895C265.463 615.327 265.593 616.043 265.854 616.043C267.221 616.043 269.353 613.113 272.25 607.254C275.147 601.362 276.596 595.975 276.596 591.092C276.596 588.878 276.27 587.755 275.619 587.723ZM274.838 581.668C275.749 581.668 276.531 581.928 277.182 582.449C278.321 583.426 278.891 585.314 278.891 588.113C278.891 600.906 276.612 610.493 272.055 616.873L271.371 617.898C268.539 622 266.26 624.051 264.535 624.051C262.419 623.823 261.199 622.277 260.873 619.412C260.873 617.036 261.833 612.218 263.754 604.959C265.707 597.7 267.937 591.417 270.443 586.111C271.876 583.182 273.34 581.701 274.838 581.668Z" fill="#024C59"/>
<path d="M160.335 681.072C160.335 680.981 160.403 680.425 160.54 679.404C160.677 678.379 160.807 677.189 160.93 675.836C161.053 674.478 161.13 673.719 161.162 673.56C161.199 673.4 161.271 673.27 161.381 673.17C161.495 673.07 161.67 673.02 161.907 673.02C162.058 673.02 162.192 673.083 162.311 673.211C162.429 673.339 162.488 673.478 162.488 673.628C162.488 673.824 162.447 674.143 162.365 674.585C162.247 675.191 162.074 676.422 161.846 678.276C161.622 680.131 161.511 681.182 161.511 681.428C161.511 681.587 161.534 681.697 161.579 681.756C161.629 681.811 161.72 681.838 161.853 681.838C162.067 681.838 162.573 681.772 163.37 681.64C163.862 681.562 164.792 681.487 166.159 681.414C166.405 681.405 166.708 681.353 167.068 681.257C167.137 681.239 167.187 681.229 167.219 681.229C167.392 681.229 167.529 681.286 167.629 681.4C167.729 681.514 167.779 681.651 167.779 681.811C167.779 682.07 167.679 682.278 167.479 682.433C167.278 682.583 167.055 682.658 166.809 682.658C166.713 682.658 166.524 682.645 166.241 682.617C165.954 682.594 165.74 682.583 165.599 682.583C164.113 682.583 162.68 682.815 161.299 683.28C161.066 683.358 160.857 683.396 160.67 683.396C160.465 683.396 160.305 683.308 160.191 683.13C160.082 682.952 160.027 682.779 160.027 682.61C160.027 682.51 160.071 682.291 160.157 681.954C160.253 681.558 160.312 681.264 160.335 681.072ZM174.889 680.683C174.889 681.147 174.476 681.708 173.651 682.364C172.831 683.021 171.983 683.349 171.108 683.349C170.375 683.349 169.807 683.132 169.406 682.699C169.01 682.266 168.812 681.662 168.812 680.888C168.812 679.584 169.251 678.345 170.131 677.169C171.01 675.993 171.972 675.405 173.016 675.405C173.357 675.405 173.635 675.517 173.85 675.74C174.068 675.964 174.178 676.232 174.178 676.547C174.178 677.249 173.834 677.921 173.146 678.563C172.457 679.206 171.537 679.837 170.384 680.457C170.147 680.58 170.028 680.74 170.028 680.936C170.028 681.314 170.138 681.617 170.356 681.845C170.575 682.073 170.899 682.187 171.327 682.187C172.307 682.187 173.307 681.644 174.328 680.56C174.479 680.409 174.592 680.334 174.67 680.334C174.816 680.334 174.889 680.45 174.889 680.683ZM170.138 679.616C172.07 678.468 173.036 677.545 173.036 676.848C173.036 676.574 172.913 676.438 172.667 676.438C172.248 676.438 171.774 676.745 171.245 677.36C170.721 677.976 170.352 678.728 170.138 679.616ZM180.932 680.512C180.294 681.368 179.662 682.011 179.038 682.439C178.414 682.868 177.842 683.082 177.322 683.082C176.971 683.082 176.668 682.934 176.413 682.638C176.158 682.341 176.03 681.961 176.03 681.496C176.03 680.298 176.566 679.008 177.637 677.627C178.708 676.242 179.772 675.549 180.829 675.549C181.212 675.549 181.497 675.768 181.684 676.205C181.743 676.351 181.836 676.424 181.964 676.424C182.328 676.424 182.511 676.565 182.511 676.848C182.511 676.989 182.488 677.183 182.442 677.429C182.196 678.773 182.073 679.721 182.073 680.272C182.073 681.375 182.283 682.036 182.702 682.255C182.903 682.364 183.003 682.499 183.003 682.658C183.003 682.799 182.905 682.941 182.709 683.082C182.513 683.228 182.324 683.301 182.142 683.301C181.791 683.301 181.501 683.059 181.273 682.576C181.046 682.093 180.932 681.405 180.932 680.512ZM180.515 676.663C179.913 676.663 179.214 677.228 178.416 678.358C177.618 679.484 177.22 680.418 177.22 681.161C177.22 681.685 177.393 681.947 177.739 681.947C178.241 681.947 178.936 681.441 179.824 680.43C180.713 679.418 181.157 678.488 181.157 677.641C181.157 676.989 180.943 676.663 180.515 676.663ZM185.922 680.286C185.967 680.204 186.022 680.09 186.086 679.944C186.396 679.233 186.681 678.677 186.94 678.276C187.2 677.871 187.485 677.483 187.795 677.114C188.109 676.745 188.394 676.465 188.649 676.273C188.909 676.082 189.144 675.95 189.354 675.877C189.563 675.799 189.766 675.761 189.962 675.761C190.358 675.761 190.682 675.882 190.933 676.123C191.183 676.36 191.309 676.638 191.309 676.957C191.309 677.098 191.263 677.226 191.172 677.34C191.085 677.454 190.951 677.511 190.769 677.511C190.577 677.511 190.402 677.426 190.242 677.258C190.078 677.089 189.907 677.005 189.729 677.005C189.256 677.005 188.599 677.579 187.761 678.728C186.922 679.876 186.412 681.141 186.229 682.521C186.184 682.877 186.097 683.112 185.97 683.226C185.842 683.34 185.662 683.396 185.43 683.396C185.206 683.396 185.045 683.23 184.944 682.897C184.844 682.565 184.794 682.004 184.794 681.216C184.794 681.002 184.805 680.53 184.828 679.801C184.855 678.939 184.91 678.244 184.992 677.716C185.006 677.629 185.029 677.426 185.061 677.107C185.092 676.757 185.131 676.513 185.177 676.376C185.227 676.239 185.325 676.112 185.471 675.993C185.621 675.875 185.783 675.815 185.956 675.815C186.125 675.815 186.25 675.87 186.332 675.979C186.419 676.084 186.462 676.198 186.462 676.321C186.462 676.499 186.416 676.75 186.325 677.073C186.22 677.433 186.159 677.682 186.141 677.818C186.127 677.973 186.102 678.135 186.065 678.304C186.02 678.5 185.974 679.015 185.929 679.849L185.922 680.102V680.286ZM196.606 677.743C196.369 677.743 196.11 677.898 195.827 678.208C195.549 678.518 195.123 679.213 194.549 680.293C193.792 681.742 193.302 682.567 193.079 682.768C192.86 682.968 192.678 683.068 192.532 683.068C191.994 683.068 191.726 682.809 191.726 682.289C191.726 682.07 191.762 681.76 191.835 681.359C192.086 679.983 192.211 678.532 192.211 677.005C192.211 676.832 192.284 676.64 192.43 676.431C192.58 676.216 192.721 676.109 192.854 676.109C193.09 676.109 193.259 676.182 193.359 676.328C193.46 676.474 193.51 676.768 193.51 677.21C193.51 677.67 193.373 678.618 193.1 680.054C193.008 680.528 192.963 680.828 192.963 680.956C192.963 681.029 192.981 681.065 193.018 681.065C193.086 681.065 193.403 680.521 193.968 679.432C194.537 678.324 195.036 677.545 195.465 677.094C195.893 676.643 196.365 676.417 196.88 676.417C197.29 676.417 197.623 676.604 197.878 676.978C198.138 677.351 198.327 678.033 198.445 679.021C198.573 680.147 198.687 680.849 198.787 681.127C198.892 681.4 199.056 681.537 199.279 681.537C199.421 681.537 199.598 681.487 199.812 681.387C199.849 681.368 199.876 681.359 199.895 681.359C200.09 681.359 200.188 681.473 200.188 681.701C200.188 681.902 200.054 682.116 199.785 682.344C199.516 682.567 199.193 682.679 198.814 682.679C198.427 682.679 198.126 682.526 197.912 682.221C197.702 681.911 197.536 681.088 197.413 679.753C197.285 678.413 197.017 677.743 196.606 677.743ZM209.622 676.103C210.091 676.066 210.534 676.023 210.948 675.973C211.358 675.927 211.7 675.904 211.974 675.904C212.32 675.904 212.539 675.936 212.63 676C212.721 676.064 212.767 676.175 212.767 676.335C212.767 676.704 212.509 676.905 211.994 676.937C211.333 676.978 210.725 677.035 210.169 677.107C209.613 677.18 209.312 677.242 209.267 677.292C209.226 677.338 209.089 677.88 208.856 678.919C208.624 679.953 208.508 680.626 208.508 680.936C208.508 681.437 208.574 681.772 208.706 681.94C208.838 682.104 209.036 682.187 209.301 682.187C209.693 682.187 210.237 681.893 210.935 681.305C211.203 681.063 211.411 680.942 211.557 680.942C211.753 680.942 211.851 681.047 211.851 681.257C211.851 681.585 211.534 682.011 210.9 682.535C210.271 683.055 209.627 683.314 208.966 683.314C207.863 683.314 207.312 682.665 207.312 681.366C207.312 680.897 207.425 680.17 207.653 679.186C207.877 678.206 207.988 677.618 207.988 677.422C207.988 677.354 207.934 677.319 207.824 677.319L207.113 677.381C206.53 677.381 206.238 677.148 206.238 676.684C206.238 676.419 206.373 676.287 206.642 676.287H208.05C208.146 676.287 208.23 676.244 208.303 676.157C208.376 676.071 208.483 675.781 208.624 675.289C208.765 674.792 208.891 674.302 209 673.819C209.109 673.341 209.324 673.102 209.643 673.102C209.839 673.102 209.991 673.17 210.101 673.307C210.21 673.443 210.265 673.571 210.265 673.689C210.265 673.753 210.183 674.079 210.019 674.667L209.622 676.103ZM214.523 680.949C216.219 677.818 217.616 676.253 218.714 676.253C219.006 676.253 219.243 676.419 219.425 676.752C219.607 677.085 219.755 677.823 219.869 678.967C219.983 680.184 220.241 681.063 220.642 681.605C220.847 681.883 220.949 682.089 220.949 682.221C220.949 682.339 220.881 682.449 220.744 682.549C220.607 682.649 220.462 682.699 220.307 682.699C219.951 682.699 219.637 682.501 219.363 682.104C219.09 681.703 218.914 681.002 218.837 679.999C218.759 679.051 218.677 678.431 218.591 678.14C218.504 677.848 218.361 677.702 218.16 677.702C217.682 677.702 216.718 678.953 215.269 681.455C214.836 682.202 214.517 682.692 214.312 682.925C214.106 683.153 213.92 683.267 213.751 683.267C213.55 683.267 213.382 683.207 213.245 683.089C213.108 682.97 213.04 682.825 213.04 682.651C213.04 682.524 213.076 682.278 213.149 681.913C213.71 679.019 214.152 676.157 214.476 673.327C214.549 672.666 214.665 672.227 214.824 672.008C214.988 671.789 215.125 671.68 215.234 671.68C215.43 671.68 215.608 671.759 215.768 671.919C215.927 672.078 216.007 672.299 216.007 672.582C216.007 673.421 215.802 674.571 215.392 676.034C215.191 676.759 214.979 677.679 214.756 678.796C214.533 679.912 214.421 680.603 214.421 680.867C214.421 680.922 214.446 680.949 214.496 680.949H214.523ZM228.018 680.683C228.018 681.147 227.605 681.708 226.78 682.364C225.96 683.021 225.112 683.349 224.237 683.349C223.504 683.349 222.936 683.132 222.535 682.699C222.139 682.266 221.94 681.662 221.94 680.888C221.94 679.584 222.38 678.345 223.26 677.169C224.139 675.993 225.101 675.405 226.145 675.405C226.486 675.405 226.764 675.517 226.979 675.74C227.197 675.964 227.307 676.232 227.307 676.547C227.307 677.249 226.963 677.921 226.274 678.563C225.586 679.206 224.666 679.837 223.513 680.457C223.276 680.58 223.157 680.74 223.157 680.936C223.157 681.314 223.267 681.617 223.485 681.845C223.704 682.073 224.028 682.187 224.456 682.187C225.436 682.187 226.436 681.644 227.457 680.56C227.607 680.409 227.721 680.334 227.799 680.334C227.945 680.334 228.018 680.45 228.018 680.683ZM223.267 679.616C225.199 678.468 226.165 677.545 226.165 676.848C226.165 676.574 226.042 676.438 225.796 676.438C225.377 676.438 224.903 676.745 224.374 677.36C223.85 677.976 223.481 678.728 223.267 679.616ZM241.621 677.593C241.466 677.802 241.181 678.274 240.767 679.008C239.039 682.116 238.073 683.67 237.868 683.67C237.558 683.67 237.308 683.488 237.116 683.123C236.925 682.763 236.66 681.804 236.323 680.245C235.991 678.687 235.708 677.196 235.476 675.774C235.389 675.373 235.305 675.045 235.223 674.79C235.109 674.448 235.052 674.193 235.052 674.024C235.052 673.847 235.118 673.687 235.25 673.546C235.387 673.4 235.537 673.327 235.701 673.327C235.902 673.327 236.075 673.482 236.221 673.792C236.371 674.097 236.537 674.842 236.72 676.027C237.112 678.602 237.513 680.548 237.923 681.865C239.062 680.047 239.771 678.892 240.049 678.399C240.327 677.903 240.719 677.103 241.225 676C241.357 675.758 241.539 675.638 241.771 675.638C241.872 675.638 241.986 675.738 242.113 675.938C242.241 676.134 242.464 676.679 242.783 677.572C243.576 679.783 244.116 681.109 244.403 681.551C246.007 678.898 246.939 676.148 247.199 673.3C247.199 673.236 247.258 673.149 247.377 673.04C247.5 672.926 247.616 672.869 247.726 672.869C248.09 672.869 248.272 673.102 248.272 673.566C248.272 674.049 248.149 674.774 247.903 675.74C247.662 676.702 247.37 677.59 247.028 678.406C246.691 679.217 246.121 680.455 245.319 682.118C245.187 682.387 245.076 682.626 244.984 682.836C244.939 682.923 244.85 682.995 244.718 683.055C244.59 683.114 244.488 683.144 244.41 683.144C244.214 683.144 244.016 683.036 243.815 682.822C243.615 682.608 243.31 681.981 242.899 680.942C242.489 679.899 242.193 679.115 242.011 678.591C241.883 678.231 241.753 677.898 241.621 677.593ZM250.959 683.342C250.335 683.342 249.82 683.105 249.414 682.631C249.008 682.157 248.806 681.571 248.806 680.874C248.806 679.698 249.2 678.541 249.988 677.401C250.781 676.257 251.729 675.686 252.832 675.686C253.561 675.686 254.151 675.966 254.603 676.526C255.058 677.087 255.286 677.755 255.286 678.529C255.286 679.714 254.817 680.812 253.878 681.824C252.944 682.836 251.971 683.342 250.959 683.342ZM250.009 680.696C250.009 681.157 250.104 681.533 250.296 681.824C250.492 682.116 250.749 682.262 251.068 682.262C251.747 682.262 252.429 681.89 253.112 681.147C253.796 680.4 254.138 679.571 254.138 678.659C254.138 678.099 254.006 677.645 253.741 677.299C253.481 676.948 253.131 676.772 252.688 676.772C251.955 676.772 251.324 677.224 250.795 678.126C250.271 679.024 250.009 679.881 250.009 680.696ZM258.26 680.286C258.305 680.204 258.36 680.09 258.424 679.944C258.734 679.233 259.019 678.677 259.278 678.276C259.538 677.871 259.823 677.483 260.133 677.114C260.447 676.745 260.732 676.465 260.987 676.273C261.247 676.082 261.482 675.95 261.691 675.877C261.901 675.799 262.104 675.761 262.3 675.761C262.696 675.761 263.02 675.882 263.271 676.123C263.521 676.36 263.646 676.638 263.646 676.957C263.646 677.098 263.601 677.226 263.51 677.34C263.423 677.454 263.289 677.511 263.106 677.511C262.915 677.511 262.74 677.426 262.58 677.258C262.416 677.089 262.245 677.005 262.067 677.005C261.593 677.005 260.937 677.579 260.099 678.728C259.26 679.876 258.75 681.141 258.567 682.521C258.522 682.877 258.435 683.112 258.308 683.226C258.18 683.34 258 683.396 257.768 683.396C257.544 683.396 257.382 683.23 257.282 682.897C257.182 682.565 257.132 682.004 257.132 681.216C257.132 681.002 257.143 680.53 257.166 679.801C257.193 678.939 257.248 678.244 257.33 677.716C257.344 677.629 257.367 677.426 257.398 677.107C257.43 676.757 257.469 676.513 257.515 676.376C257.565 676.239 257.663 676.112 257.809 675.993C257.959 675.875 258.121 675.815 258.294 675.815C258.463 675.815 258.588 675.87 258.67 675.979C258.757 676.084 258.8 676.198 258.8 676.321C258.8 676.499 258.754 676.75 258.663 677.073C258.558 677.433 258.497 677.682 258.479 677.818C258.465 677.973 258.44 678.135 258.403 678.304C258.358 678.5 258.312 679.015 258.267 679.849L258.26 680.102V680.286ZM266.613 671.427C266.941 671.427 267.105 671.636 267.105 672.056C267.105 672.429 266.907 673.318 266.511 674.722C266.26 675.606 266.066 676.581 265.93 677.647C265.793 678.714 265.725 679.55 265.725 680.156C265.725 680.908 265.772 681.656 265.868 682.398C265.886 682.54 265.896 682.642 265.896 682.706C265.896 682.934 265.818 683.13 265.663 683.294C265.508 683.458 265.344 683.54 265.171 683.54C264.929 683.54 264.761 683.39 264.665 683.089C264.574 682.788 264.528 682.303 264.528 681.633C264.528 680.106 264.711 678.215 265.075 675.959C265.444 673.703 265.736 672.384 265.95 672.001C266.169 671.618 266.39 671.427 266.613 671.427ZM273.128 680.17C272.517 681.15 271.87 681.906 271.187 682.439C270.503 682.968 269.874 683.232 269.3 683.232C268.858 683.232 268.507 683.064 268.247 682.727C267.992 682.385 267.864 681.931 267.864 681.366C267.864 680.213 268.331 679.031 269.266 677.818C270.204 676.606 271.216 676 272.301 676C272.775 676 273.215 676.203 273.62 676.608L274.577 672.138C274.646 671.832 274.771 671.627 274.953 671.522C275.14 671.418 275.286 671.365 275.391 671.365C275.71 671.365 275.869 671.648 275.869 672.213C275.869 672.313 275.764 672.687 275.555 673.334C275.222 674.337 274.905 675.569 274.604 677.032C274.308 678.491 274.16 679.662 274.16 680.546C274.16 681.457 274.358 681.913 274.755 681.913C275.01 681.913 275.274 681.829 275.548 681.66C275.662 681.578 275.769 681.537 275.869 681.537C276.015 681.537 276.088 681.633 276.088 681.824C276.088 682.057 275.883 682.326 275.473 682.631C275.067 682.936 274.65 683.089 274.222 683.089C273.47 683.089 273.094 682.364 273.094 680.915C273.094 680.669 273.105 680.421 273.128 680.17ZM272.232 676.971C271.494 676.971 270.763 677.472 270.038 678.475C269.313 679.473 268.951 680.396 268.951 681.243C268.951 681.813 269.14 682.098 269.519 682.098C269.874 682.098 270.305 681.911 270.811 681.537C271.321 681.163 271.845 680.569 272.383 679.753C272.921 678.933 273.189 678.317 273.189 677.907C273.189 677.707 273.096 677.502 272.909 677.292C272.727 677.078 272.501 676.971 272.232 676.971ZM277.612 684.299C278.46 684.089 279.005 683.791 279.246 683.403C279.488 683.021 279.608 682.747 279.608 682.583C279.608 682.118 279.545 681.79 279.417 681.599C279.358 681.512 279.328 681.428 279.328 681.346C279.328 681.277 279.358 681.179 279.417 681.052C279.481 680.924 279.545 680.86 279.608 680.86C279.704 680.86 279.854 680.897 280.06 680.97C280.265 681.038 280.385 681.1 280.422 681.154C280.458 681.204 280.518 681.373 280.6 681.66C280.686 681.947 280.729 682.193 280.729 682.398C280.729 682.476 280.643 682.715 280.47 683.116C280.301 683.522 280.069 683.836 279.772 684.06C279.476 684.287 279.198 684.426 278.938 684.477C278.834 684.495 278.736 684.52 278.645 684.552C278.285 684.711 277.991 684.791 277.763 684.791C277.631 684.791 277.564 684.684 277.564 684.47C277.564 684.388 277.58 684.331 277.612 684.299ZM143.758 708.492C143.029 708.492 142.379 708.13 141.81 707.405C141.244 706.681 140.962 705.929 140.962 705.149C140.962 704.229 141.242 703.178 141.803 701.998C142.363 700.818 143.095 699.856 143.997 699.113C144.899 698.366 145.838 697.992 146.813 697.992C147.561 697.992 148.183 698.086 148.68 698.272C149.176 698.455 149.623 698.719 150.02 699.065C150.416 699.412 150.68 699.767 150.812 700.132C150.945 700.496 151.011 701.007 151.011 701.663C151.011 702.283 150.824 703.007 150.45 703.837C150.076 704.666 149.493 705.475 148.7 706.264C147.912 707.052 147.164 707.622 146.458 707.973C145.752 708.319 144.852 708.492 143.758 708.492ZM142.213 705.088C142.213 705.721 142.413 706.255 142.814 706.688C143.215 707.12 143.68 707.337 144.209 707.337C145.585 707.337 146.85 706.703 148.003 705.437C149.156 704.17 149.732 702.825 149.732 701.403C149.732 700.861 149.625 700.435 149.411 700.125C149.201 699.811 148.862 699.544 148.393 699.325C147.923 699.102 147.397 698.99 146.813 698.99C145.793 698.99 144.77 699.683 143.744 701.068C142.723 702.454 142.213 703.794 142.213 705.088ZM157.013 702.743C156.776 702.743 156.516 702.898 156.233 703.208C155.955 703.518 155.529 704.213 154.955 705.293C154.199 706.742 153.709 707.567 153.485 707.768C153.267 707.968 153.084 708.068 152.938 708.068C152.401 708.068 152.132 707.809 152.132 707.289C152.132 707.07 152.168 706.76 152.241 706.359C152.492 704.983 152.617 703.532 152.617 702.005C152.617 701.832 152.69 701.64 152.836 701.431C152.986 701.216 153.128 701.109 153.26 701.109C153.497 701.109 153.665 701.182 153.766 701.328C153.866 701.474 153.916 701.768 153.916 702.21C153.916 702.67 153.779 703.618 153.506 705.054C153.415 705.528 153.369 705.828 153.369 705.956C153.369 706.029 153.387 706.065 153.424 706.065C153.492 706.065 153.809 705.521 154.374 704.432C154.944 703.324 155.443 702.545 155.871 702.094C156.299 701.643 156.771 701.417 157.286 701.417C157.696 701.417 158.029 701.604 158.284 701.978C158.544 702.351 158.733 703.033 158.852 704.021C158.979 705.147 159.093 705.849 159.193 706.127C159.298 706.4 159.462 706.537 159.686 706.537C159.827 706.537 160.005 706.487 160.219 706.387C160.255 706.368 160.283 706.359 160.301 706.359C160.497 706.359 160.595 706.473 160.595 706.701C160.595 706.902 160.46 707.116 160.191 707.344C159.923 707.567 159.599 707.679 159.221 707.679C158.833 707.679 158.533 707.526 158.318 707.221C158.109 706.911 157.942 706.088 157.819 704.753C157.692 703.413 157.423 702.743 157.013 702.743ZM167.492 705.683C167.492 706.147 167.08 706.708 166.255 707.364C165.435 708.021 164.587 708.349 163.712 708.349C162.978 708.349 162.411 708.132 162.01 707.699C161.613 707.266 161.415 706.662 161.415 705.888C161.415 704.584 161.855 703.345 162.734 702.169C163.614 700.993 164.576 700.405 165.619 700.405C165.961 700.405 166.239 700.517 166.453 700.74C166.672 700.964 166.781 701.232 166.781 701.547C166.781 702.249 166.437 702.921 165.749 703.563C165.061 704.206 164.14 704.837 162.987 705.457C162.75 705.58 162.632 705.74 162.632 705.936C162.632 706.314 162.741 706.617 162.96 706.845C163.179 707.073 163.502 707.187 163.931 707.187C164.91 707.187 165.911 706.644 166.932 705.56C167.082 705.409 167.196 705.334 167.273 705.334C167.419 705.334 167.492 705.45 167.492 705.683ZM162.741 704.616C164.674 703.468 165.64 702.545 165.64 701.848C165.64 701.574 165.517 701.438 165.271 701.438C164.851 701.438 164.377 701.745 163.849 702.36C163.325 702.976 162.955 703.728 162.741 704.616ZM181.677 705.936C181.854 705.936 181.943 706.045 181.943 706.264C181.943 706.492 181.69 706.817 181.185 707.241C180.679 707.665 180.093 708.002 179.428 708.253C178.767 708.504 178.161 708.629 177.609 708.629C176.803 708.629 176.067 708.362 175.401 707.829C174.741 707.296 174.41 706.523 174.41 705.512C174.41 703.666 175.203 701.87 176.789 700.125C178.38 698.375 179.911 697.5 181.383 697.5C181.934 697.5 182.374 697.671 182.702 698.013C183.035 698.35 183.201 698.744 183.201 699.195C183.201 699.615 183.176 699.945 183.126 700.187C183.08 700.428 182.937 700.633 182.695 700.802C182.454 700.966 182.26 701.048 182.114 701.048C182.009 701.048 181.918 701.002 181.841 700.911C181.763 700.82 181.725 700.697 181.725 700.542C181.725 700.437 181.763 700.218 181.841 699.886C181.918 699.558 181.957 699.314 181.957 699.154C181.957 698.689 181.754 698.457 181.349 698.457C180.72 698.457 179.94 698.819 179.011 699.544C178.086 700.264 177.299 701.18 176.652 702.292C176.005 703.399 175.682 704.42 175.682 705.354C175.682 705.979 175.866 706.498 176.235 706.913C176.609 707.323 177.14 707.528 177.828 707.528C178.225 707.528 178.705 707.43 179.271 707.234C179.84 707.034 180.362 706.767 180.836 706.435C181.31 706.102 181.59 705.936 181.677 705.936ZM186.045 708.342C185.421 708.342 184.906 708.105 184.5 707.631C184.094 707.157 183.892 706.571 183.892 705.874C183.892 704.698 184.286 703.541 185.074 702.401C185.867 701.257 186.815 700.686 187.918 700.686C188.647 700.686 189.237 700.966 189.688 701.526C190.144 702.087 190.372 702.755 190.372 703.529C190.372 704.714 189.903 705.812 188.964 706.824C188.03 707.836 187.057 708.342 186.045 708.342ZM185.095 705.696C185.095 706.157 185.19 706.533 185.382 706.824C185.578 707.116 185.835 707.262 186.154 707.262C186.833 707.262 187.515 706.89 188.198 706.147C188.882 705.4 189.224 704.571 189.224 703.659C189.224 703.099 189.091 702.645 188.827 702.299C188.567 701.948 188.216 701.772 187.774 701.772C187.041 701.772 186.41 702.224 185.881 703.126C185.357 704.024 185.095 704.881 185.095 705.696ZM196.791 705.026C196.208 706.006 195.611 706.765 195 707.303C194.389 707.84 193.822 708.109 193.298 708.109C192.997 708.109 192.689 707.934 192.375 707.583C192.065 707.232 191.91 706.692 191.91 705.963C191.91 705.366 192.054 704.486 192.341 703.324C192.582 702.354 192.703 701.672 192.703 701.28C192.835 701.007 193.043 700.87 193.325 700.87C193.517 700.87 193.669 700.938 193.783 701.075C193.897 701.207 193.954 701.346 193.954 701.492C193.954 701.811 193.842 702.265 193.619 702.853C193.195 703.996 192.983 704.979 192.983 705.799C192.983 706.546 193.157 706.92 193.503 706.92C193.945 706.92 194.508 706.544 195.191 705.792C195.875 705.04 196.461 703.992 196.948 702.647C197.14 702.11 197.295 701.761 197.413 701.602C197.536 701.438 197.7 701.355 197.905 701.355C198.215 701.355 198.37 701.561 198.37 701.971C198.37 702.021 198.327 702.187 198.24 702.47C197.967 703.468 197.83 704.411 197.83 705.3C197.83 706.366 198.006 707.057 198.356 707.371C198.539 707.54 198.63 707.676 198.63 707.781C198.63 707.909 198.536 708.025 198.35 708.13C198.167 708.235 198.001 708.287 197.851 708.287C197.532 708.287 197.274 708.05 197.078 707.576C196.882 707.102 196.784 706.403 196.784 705.478V705.252C196.784 705.179 196.786 705.104 196.791 705.026ZM205.165 702.743C204.928 702.743 204.668 702.898 204.386 703.208C204.108 703.518 203.682 704.213 203.107 705.293C202.351 706.742 201.861 707.567 201.638 707.768C201.419 707.968 201.237 708.068 201.091 708.068C200.553 708.068 200.284 707.809 200.284 707.289C200.284 707.07 200.321 706.76 200.394 706.359C200.644 704.983 200.77 703.532 200.77 702.005C200.77 701.832 200.842 701.64 200.988 701.431C201.139 701.216 201.28 701.109 201.412 701.109C201.649 701.109 201.818 701.182 201.918 701.328C202.018 701.474 202.068 701.768 202.068 702.21C202.068 702.67 201.932 703.618 201.658 705.054C201.567 705.528 201.521 705.828 201.521 705.956C201.521 706.029 201.54 706.065 201.576 706.065C201.645 706.065 201.961 705.521 202.526 704.432C203.096 703.324 203.595 702.545 204.023 702.094C204.452 701.643 204.924 701.417 205.438 701.417C205.849 701.417 206.181 701.604 206.437 701.978C206.696 702.351 206.885 703.033 207.004 704.021C207.132 705.147 207.245 705.849 207.346 706.127C207.451 706.4 207.615 706.537 207.838 706.537C207.979 706.537 208.157 706.487 208.371 706.387C208.408 706.368 208.435 706.359 208.453 706.359C208.649 706.359 208.747 706.473 208.747 706.701C208.747 706.902 208.613 707.116 208.344 707.344C208.075 707.567 207.751 707.679 207.373 707.679C206.986 707.679 206.685 707.526 206.471 707.221C206.261 706.911 206.095 706.088 205.972 704.753C205.844 703.413 205.575 702.743 205.165 702.743ZM212.575 701.103C213.045 701.066 213.487 701.023 213.901 700.973C214.312 700.927 214.653 700.904 214.927 700.904C215.273 700.904 215.492 700.936 215.583 701C215.674 701.064 215.72 701.175 215.72 701.335C215.72 701.704 215.462 701.905 214.947 701.937C214.286 701.978 213.678 702.035 213.122 702.107C212.566 702.18 212.265 702.242 212.22 702.292C212.179 702.338 212.042 702.88 211.81 703.919C211.577 704.953 211.461 705.626 211.461 705.936C211.461 706.437 211.527 706.772 211.659 706.94C211.791 707.104 211.99 707.187 212.254 707.187C212.646 707.187 213.19 706.893 213.888 706.305C214.157 706.063 214.364 705.942 214.51 705.942C214.706 705.942 214.804 706.047 214.804 706.257C214.804 706.585 214.487 707.011 213.854 707.535C213.225 708.055 212.58 708.314 211.919 708.314C210.816 708.314 210.265 707.665 210.265 706.366C210.265 705.897 210.379 705.17 210.606 704.186C210.83 703.206 210.941 702.618 210.941 702.422C210.941 702.354 210.887 702.319 210.777 702.319L210.066 702.381C209.483 702.381 209.191 702.148 209.191 701.684C209.191 701.419 209.326 701.287 209.595 701.287H211.003C211.099 701.287 211.183 701.244 211.256 701.157C211.329 701.071 211.436 700.781 211.577 700.289C211.718 699.792 211.844 699.302 211.953 698.819C212.062 698.341 212.277 698.102 212.596 698.102C212.792 698.102 212.944 698.17 213.054 698.307C213.163 698.443 213.218 698.571 213.218 698.689C213.218 698.753 213.136 699.079 212.972 699.667L212.575 701.103ZM217.736 705.286C217.782 705.204 217.837 705.09 217.9 704.944C218.21 704.233 218.495 703.677 218.755 703.276C219.015 702.871 219.299 702.483 219.609 702.114C219.924 701.745 220.209 701.465 220.464 701.273C220.724 701.082 220.958 700.95 221.168 700.877C221.378 700.799 221.58 700.761 221.776 700.761C222.173 700.761 222.496 700.882 222.747 701.123C222.998 701.36 223.123 701.638 223.123 701.957C223.123 702.098 223.077 702.226 222.986 702.34C222.9 702.454 222.765 702.511 222.583 702.511C222.392 702.511 222.216 702.426 222.057 702.258C221.893 702.089 221.722 702.005 221.544 702.005C221.07 702.005 220.414 702.579 219.575 703.728C218.737 704.876 218.226 706.141 218.044 707.521C217.998 707.877 217.912 708.112 217.784 708.226C217.657 708.34 217.477 708.396 217.244 708.396C217.021 708.396 216.859 708.23 216.759 707.897C216.659 707.565 216.608 707.004 216.608 706.216C216.608 706.002 216.62 705.53 216.643 704.801C216.67 703.939 216.725 703.244 216.807 702.716C216.82 702.629 216.843 702.426 216.875 702.107C216.907 701.757 216.946 701.513 216.991 701.376C217.041 701.239 217.139 701.112 217.285 700.993C217.436 700.875 217.597 700.815 217.771 700.815C217.939 700.815 218.064 700.87 218.146 700.979C218.233 701.084 218.276 701.198 218.276 701.321C218.276 701.499 218.231 701.75 218.14 702.073C218.035 702.433 217.973 702.682 217.955 702.818C217.941 702.973 217.916 703.135 217.88 703.304C217.834 703.5 217.789 704.015 217.743 704.849L217.736 705.102V705.286ZM228.544 705.587C227.705 706.316 226.967 706.847 226.329 707.18C225.696 707.508 225.21 707.672 224.873 707.672C224.422 707.672 224.076 707.485 223.834 707.111C223.597 706.733 223.479 706.293 223.479 705.792C223.479 705.09 223.62 704.224 223.902 703.194C224.189 702.16 224.401 701.547 224.538 701.355C224.679 701.16 224.903 701.062 225.208 701.062C225.336 701.062 225.44 701.137 225.522 701.287C225.604 701.438 225.646 701.608 225.646 701.8C225.646 701.914 225.593 702.062 225.488 702.244C225.242 702.673 225.112 702.91 225.099 702.955C225.09 703.001 225.003 703.276 224.839 703.782C224.675 704.284 224.593 704.755 224.593 705.197C224.593 705.352 224.629 705.594 224.702 705.922C224.78 706.25 224.937 706.414 225.174 706.414C225.424 706.414 225.732 706.339 226.097 706.188C226.466 706.034 226.881 705.783 227.341 705.437C227.801 705.09 228.111 704.81 228.271 704.596C228.43 704.382 228.542 704.138 228.605 703.864C228.674 703.591 228.722 702.998 228.749 702.087C228.776 701.175 228.997 700.72 229.412 700.72C229.658 700.72 229.818 700.786 229.891 700.918C229.964 701.046 230 701.292 230 701.656C230 701.957 229.979 702.333 229.938 702.784C229.888 703.354 229.856 703.759 229.843 704.001C229.779 705.254 229.615 706.514 229.351 707.781C229.091 709.044 228.71 710.099 228.209 710.946C227.708 711.799 227.017 712.225 226.138 712.225C225.244 712.225 224.449 711.99 223.752 711.521C223.059 711.056 222.713 710.661 222.713 710.338C222.713 710.188 222.747 710.039 222.815 709.894C222.888 709.748 222.979 709.675 223.089 709.675C223.144 709.675 223.203 709.718 223.267 709.805C223.864 710.721 224.802 711.179 226.083 711.179C226.744 711.179 227.298 710.598 227.744 709.436C228.195 708.278 228.444 707.191 228.489 706.175C228.498 705.979 228.517 705.783 228.544 705.587ZM241.977 705.512C241.339 706.368 240.707 707.011 240.083 707.439C239.459 707.868 238.887 708.082 238.367 708.082C238.016 708.082 237.713 707.934 237.458 707.638C237.203 707.341 237.075 706.961 237.075 706.496C237.075 705.298 237.611 704.008 238.682 702.627C239.753 701.242 240.817 700.549 241.874 700.549C242.257 700.549 242.542 700.768 242.729 701.205C242.788 701.351 242.881 701.424 243.009 701.424C243.373 701.424 243.556 701.565 243.556 701.848C243.556 701.989 243.533 702.183 243.487 702.429C243.241 703.773 243.118 704.721 243.118 705.272C243.118 706.375 243.328 707.036 243.747 707.255C243.948 707.364 244.048 707.499 244.048 707.658C244.048 707.799 243.95 707.941 243.754 708.082C243.558 708.228 243.369 708.301 243.187 708.301C242.836 708.301 242.546 708.059 242.318 707.576C242.09 707.093 241.977 706.405 241.977 705.512ZM241.56 701.663C240.958 701.663 240.258 702.228 239.461 703.358C238.663 704.484 238.265 705.418 238.265 706.161C238.265 706.685 238.438 706.947 238.784 706.947C239.285 706.947 239.98 706.441 240.869 705.43C241.758 704.418 242.202 703.488 242.202 702.641C242.202 701.989 241.988 701.663 241.56 701.663ZM248.368 701.103C248.838 701.066 249.28 701.023 249.694 700.973C250.104 700.927 250.446 700.904 250.72 700.904C251.066 700.904 251.285 700.936 251.376 701C251.467 701.064 251.513 701.175 251.513 701.335C251.513 701.704 251.255 701.905 250.74 701.937C250.079 701.978 249.471 702.035 248.915 702.107C248.359 702.18 248.058 702.242 248.013 702.292C247.972 702.338 247.835 702.88 247.603 703.919C247.37 704.953 247.254 705.626 247.254 705.936C247.254 706.437 247.32 706.772 247.452 706.94C247.584 707.104 247.783 707.187 248.047 707.187C248.439 707.187 248.983 706.893 249.681 706.305C249.95 706.063 250.157 705.942 250.303 705.942C250.499 705.942 250.597 706.047 250.597 706.257C250.597 706.585 250.28 707.011 249.646 707.535C249.018 708.055 248.373 708.314 247.712 708.314C246.609 708.314 246.058 707.665 246.058 706.366C246.058 705.897 246.172 705.17 246.399 704.186C246.623 703.206 246.734 702.618 246.734 702.422C246.734 702.354 246.68 702.319 246.57 702.319L245.859 702.381C245.276 702.381 244.984 702.148 244.984 701.684C244.984 701.419 245.119 701.287 245.388 701.287H246.796C246.892 701.287 246.976 701.244 247.049 701.157C247.122 701.071 247.229 700.781 247.37 700.289C247.511 699.792 247.637 699.302 247.746 698.819C247.855 698.341 248.07 698.102 248.389 698.102C248.585 698.102 248.737 698.17 248.847 698.307C248.956 698.443 249.011 698.571 249.011 698.689C249.011 698.753 248.929 699.079 248.765 699.667L248.368 701.103ZM262.361 705.512C261.723 706.368 261.092 707.011 260.468 707.439C259.843 707.868 259.271 708.082 258.752 708.082C258.401 708.082 258.098 707.934 257.843 707.638C257.588 707.341 257.46 706.961 257.46 706.496C257.46 705.298 257.995 704.008 259.066 702.627C260.137 701.242 261.201 700.549 262.259 700.549C262.642 700.549 262.926 700.768 263.113 701.205C263.173 701.351 263.266 701.424 263.394 701.424C263.758 701.424 263.94 701.565 263.94 701.848C263.94 701.989 263.918 702.183 263.872 702.429C263.626 703.773 263.503 704.721 263.503 705.272C263.503 706.375 263.713 707.036 264.132 707.255C264.332 707.364 264.433 707.499 264.433 707.658C264.433 707.799 264.335 707.941 264.139 708.082C263.943 708.228 263.754 708.301 263.571 708.301C263.22 708.301 262.931 708.059 262.703 707.576C262.475 707.093 262.361 706.405 262.361 705.512ZM261.944 701.663C261.343 701.663 260.643 702.228 259.846 703.358C259.048 704.484 258.649 705.418 258.649 706.161C258.649 706.685 258.823 706.947 259.169 706.947C259.67 706.947 260.365 706.441 261.254 705.43C262.143 704.418 262.587 703.488 262.587 702.641C262.587 701.989 262.373 701.663 261.944 701.663ZM270.94 699.688C270.89 699.596 270.865 699.482 270.865 699.346C270.865 699.141 270.938 699.002 271.084 698.929C271.234 698.856 271.679 698.815 272.417 698.806C273.324 698.801 274.137 698.769 274.857 698.71C275.582 698.646 276.696 698.512 278.2 698.307C278.77 698.229 279.312 698.19 279.827 698.19C280.087 698.19 280.333 698.206 280.565 698.238C280.802 698.27 280.969 698.302 281.064 698.334C281.165 698.361 281.244 698.443 281.304 698.58C281.363 698.712 281.393 698.815 281.393 698.888C281.393 699.211 281.279 699.373 281.051 699.373C280.9 699.373 280.695 699.359 280.436 699.332C280.171 699.309 279.813 699.298 279.362 699.298C278.897 699.298 278.332 699.332 277.667 699.4C277.006 699.464 276.639 699.571 276.566 699.722C276.493 699.872 276.373 700.761 276.204 702.388C276.04 704.015 275.958 705.227 275.958 706.024C275.958 706.394 276.015 706.82 276.129 707.303C276.147 707.394 276.156 707.449 276.156 707.467C276.156 707.667 276.102 707.847 275.992 708.007C275.883 708.171 275.751 708.253 275.596 708.253C275.359 708.253 275.16 708.139 275.001 707.911C274.846 707.683 274.769 707.045 274.769 705.997C274.769 705.004 274.958 703.064 275.336 700.18C275.354 700.025 275.363 699.945 275.363 699.94C275.363 699.785 275.279 699.708 275.11 699.708C274.837 699.708 274.315 699.742 273.545 699.811C272.775 699.883 272.226 699.92 271.897 699.92C271.405 699.92 271.086 699.842 270.94 699.688ZM283.184 698.847C283.088 698.847 283.015 698.744 282.965 698.539C282.947 698.475 282.922 698.405 282.89 698.327C282.767 698.031 282.705 697.773 282.705 697.555C282.705 697.372 282.812 697.188 283.026 697.001C283.245 696.81 283.487 696.714 283.751 696.714C283.883 696.714 284.031 696.766 284.195 696.871C284.359 696.971 284.441 697.069 284.441 697.165C284.441 697.315 284.384 697.571 284.271 697.931C284.161 698.291 283.983 698.535 283.737 698.662C283.496 698.785 283.311 698.847 283.184 698.847ZM282.288 706.482C282.288 706.829 282.336 707.218 282.432 707.651C282.45 707.733 282.459 707.802 282.459 707.856C282.459 707.938 282.384 708.043 282.233 708.171C282.083 708.303 281.924 708.369 281.755 708.369C281.313 708.369 281.092 707.964 281.092 707.152C281.092 706.314 281.265 704.988 281.611 703.174C281.73 702.54 281.789 702.151 281.789 702.005C281.789 701.718 281.841 701.474 281.946 701.273C282.051 701.068 282.199 700.966 282.391 700.966C282.623 700.966 282.805 701.023 282.938 701.137C283.074 701.246 283.143 701.369 283.143 701.506C283.143 701.643 283.111 701.823 283.047 702.046C282.705 703.249 282.493 704.11 282.411 704.63C282.329 705.149 282.288 705.767 282.288 706.482ZM290.19 702.593C289.767 702.602 288.86 703.857 287.47 706.359C287 707.202 286.727 707.663 286.649 707.74C286.572 707.813 286.428 707.879 286.219 707.938C286.014 707.998 285.843 708.027 285.706 708.027C285.401 708.027 285.248 707.433 285.248 706.243C285.248 705.573 285.392 704.361 285.679 702.606C285.797 701.896 285.856 701.387 285.856 701.082C285.856 700.781 285.991 700.631 286.26 700.631C286.766 700.631 287.019 700.995 287.019 701.725C287.019 702.066 286.934 702.736 286.766 703.734C286.57 704.874 286.469 705.566 286.465 705.812C286.747 705.539 287.162 704.94 287.709 704.015C288.484 702.748 289.053 701.946 289.418 701.608C289.787 701.267 290.168 701.096 290.56 701.096C290.856 701.096 291.09 701.294 291.264 701.69C291.441 702.087 291.549 703.033 291.585 704.527C291.594 704.901 291.628 705.179 291.688 705.361C291.747 705.544 291.79 705.635 291.817 705.635C292.032 705.635 292.496 704.906 293.212 703.447C293.595 702.677 293.966 702.091 294.326 701.69C294.691 701.289 295.094 701.089 295.536 701.089C295.905 701.089 296.174 701.28 296.343 701.663C296.511 702.041 296.632 702.604 296.705 703.352C296.773 704.108 296.878 704.801 297.02 705.43C297.165 706.059 297.43 706.462 297.812 706.64C298.072 706.763 298.202 706.906 298.202 707.07C298.202 707.23 298.093 707.394 297.874 707.562C297.655 707.731 297.455 707.815 297.272 707.815C296.908 707.815 296.582 707.592 296.295 707.146C296.008 706.699 295.791 705.733 295.646 704.247C295.582 703.65 295.52 703.226 295.461 702.976C295.402 702.725 295.308 702.6 295.181 702.6C294.989 702.6 294.761 702.782 294.497 703.146C294.237 703.511 293.816 704.252 293.232 705.368C292.777 706.239 292.43 706.82 292.193 707.111C291.961 707.398 291.735 707.542 291.517 707.542C291.321 707.542 291.145 707.465 290.99 707.31C290.835 707.15 290.737 706.961 290.696 706.742C290.655 706.519 290.612 705.974 290.566 705.108C290.498 703.668 290.373 702.83 290.19 702.593ZM305.277 705.683C305.277 706.147 304.865 706.708 304.04 707.364C303.22 708.021 302.372 708.349 301.497 708.349C300.763 708.349 300.196 708.132 299.795 707.699C299.398 707.266 299.2 706.662 299.2 705.888C299.2 704.584 299.64 703.345 300.52 702.169C301.399 700.993 302.361 700.405 303.404 700.405C303.746 700.405 304.024 700.517 304.238 700.74C304.457 700.964 304.566 701.232 304.566 701.547C304.566 702.249 304.222 702.921 303.534 703.563C302.846 704.206 301.925 704.837 300.772 705.457C300.535 705.58 300.417 705.74 300.417 705.936C300.417 706.314 300.526 706.617 300.745 706.845C300.964 707.073 301.287 707.187 301.716 707.187C302.696 707.187 303.696 706.644 304.717 705.56C304.867 705.409 304.981 705.334 305.059 705.334C305.204 705.334 305.277 705.45 305.277 705.683ZM300.526 704.616C302.459 703.468 303.425 702.545 303.425 701.848C303.425 701.574 303.302 701.438 303.056 701.438C302.636 701.438 302.162 701.745 301.634 702.36C301.11 702.976 300.741 703.728 300.526 704.616Z" fill="black"/>
</g>
<defs>
<clipPath id="clip0_337_515">
<rect width="440" height="956" fill="white"/>
</clipPath>
</defs>
</svg>
