<svg width="1920" height="1080" viewBox="0 0 1920 1080" fill="none" xmlns="http://www.w3.org/2000/svg">
<g clip-path="url(#clip0_341_769)">
<rect width="1920" height="1080" fill="white"/>
<path opacity="0.39" d="M779.986 -6.99826C779.986 -6.99826 782.679 126.291 712.16 126.127C641.634 125.96 655.74 -10.3776 561.711 -2.35606C467.681 5.66196 514.66 143.773 371.3 139.091C287.918 136.363 200.835 69.2958 126.192 149.014C90.622 187.005 60.1251 317.969 0 288.799C0 168.386 0 -7 0 -7L779.986 -6.99826Z" fill="#00A9A1" fill-opacity="0.5"/>
<path d="M1304.1 0H1802.85C1872.86 0 1920.41 0 1920.41 0V482.93C1920.41 482.93 1730.69 504.18 1732.41 289.171C1734.14 74.164 1604.78 241.087 1490.95 191.258C1413.59 157.399 1454.11 82.565 1400.21 37.236C1374.78 15.87 1300.85 39.568 1304.1 0Z" fill="#5AE0DC"/>
<path opacity="0.39" d="M1770 104.469C1774.55 79.511 1791.33 53.245 1802.85 0C1872.86 0 1920.41 0 1920.41 0V234.084C1920.33 234.101 1920.22 234.101 1920.12 234.118C1877.45 238.258 1824.72 211.336 1796.13 182.015C1773.77 159.108 1762.91 132.738 1770 104.469Z" fill="#00A9A1"/>
<path opacity="0.39" d="M231.702 893.629C161.061 845.805 146.005 764.42 159.452 714.502C171.739 661.852 212.522 640.662 226.83 650.229C244.526 659.536 250.98 689.575 264.495 713.571C277.035 738.79 296.632 757.967 317.885 773.94C339.774 789.028 364.175 801.536 392.074 805.424C419.111 810.637 449.648 807.229 464.087 821.067C477.692 831.594 470.534 876.999 424.5 905.348C381.424 933.928 299.464 945.459 231.702 893.629Z" fill="#00A9A1"/>
<path d="M1136.98 1138C1136.98 1138 1140.89 944.73 1038.54 944.972C936.195 945.211 956.663 1142.9 820.2 1131.27C683.737 1119.65 751.914 919.383 543.858 926.173C422.849 930.122 296.469 1027.37 188.139 911.782C136.519 856.695 92.2563 666.793 5 709.091C5 883.695 5 1138 5 1138H1136.98Z" fill="#BEDD07"/>
<path d="M455.511 59.8902C455.511 59.8902 388.947 46.1012 322.972 68.1922C257 90.2792 137.807 33.0532 81.1751 -26.8428C24.5441 -86.7359 20.0971 -179.542 39.3691 -178.653C58.6421 -177.763 92.7411 -174.205 116.607 -155.376C140.476 -136.547 159.897 -115.939 165.086 -96.5188C165.086 -96.5188 125.206 -60.7918 136.325 -60.9398C147.444 -61.0858 161.381 -90.7378 171.61 -80.2138C181.839 -69.6868 229.279 -37.0708 247.217 -33.0678C247.217 -33.0678 211.192 -0.59985 222.756 -1.78685C234.319 -2.97285 256.261 -25.5088 259.967 -22.6908C263.675 -19.8738 311.706 -2.97185 311.706 -2.97185C311.706 -2.97185 283.686 28.0122 291.691 26.5312C299.697 25.0482 327.422 6.22215 327.422 6.22215C327.422 6.22215 426.603 32.7592 455.511 59.8902Z" fill="#009590"/>
<path opacity="0.39" d="M38.7705 -178.635C20.2005 -177.57 25.1425 -86.1028 81.1755 -26.8428C137.807 33.0532 257 90.2792 322.972 68.1922C388.946 46.1012 455.511 59.8902 455.511 59.8902C455.29 59.6842 455.054 59.4782 454.827 59.2722C445.243 55.5302 397.147 37.1552 352.672 27.3952C339.326 24.4662 325.598 20.6742 311.943 16.1972C304.17 20.9722 295.593 25.8092 291.692 26.5332C287.594 27.2902 292.942 19.5392 299.136 11.7892C279.567 4.72825 260.451 -3.66277 243.155 -12.8938C236.054 -7.70977 228.24 -2.34576 222.756 -1.78476C216.52 -1.14476 224.122 -10.2888 232.45 -18.8528C224.903 -23.2338 217.79 -27.7698 211.261 -32.4128C175.892 -57.5708 167.768 -49.5998 153.709 -73.9828C147.748 -67.9888 141.705 -61.0098 136.325 -60.9388C130.116 -60.8558 139.81 -71.9608 149.583 -81.7848C137.13 -107.512 137.754 -127.892 96.8595 -158.971C80.6445 -171.297 59.2335 -176.698 38.7705 -178.635Z" fill="#00A9A1"/>
<path d="M455.113 59.3447C456.029 59.7277 456.549 59.9487 456.549 59.9487C456.14 59.7417 455.648 59.5417 455.113 59.3447Z" fill="#08B859"/>
<path d="M108.953 -7.17267C181.066 51.6813 262.03 83.5343 322.972 68.1903C381.736 53.3943 440.694 54.0683 455.112 59.3433C447.759 56.2843 413.251 42.3933 389.15 40.6323C362.048 38.6563 345.183 35.2833 345.183 35.2833L315.292 53.3123L334.135 29.5853C334.135 29.5853 292.844 22.4873 268.302 10.0443C266.677 9.22033 265.121 8.39833 263.619 7.57733C254.1 15.2103 228.232 34.1833 205.665 34.7223C205.665 34.7223 239.673 20.1913 256.633 3.54933C239.987 -6.57767 229.957 -16.5367 209.332 -27.7597C184.325 -41.3687 184.325 -41.3687 184.325 -41.3687C184.325 -41.3687 140.475 -17.7587 144.429 -24.7357C148.382 -31.7147 166.529 -47.0677 166.529 -47.0677C166.529 -47.0677 153.619 -43.9297 142.453 -65.0957C135.286 -78.6817 134.242 -96.3867 127.473 -113.108C117.226 -107.635 93.9192 -97.8787 69.3692 -106.016C69.3692 -106.016 103.353 -112.817 120.204 -126.768C117.163 -131.168 113.431 -135.39 108.722 -139.305C82.4352 -161.172 31.6062 -181.994 25.9072 -170.944C20.2082 -159.895 36.8401 -66.0297 108.953 -7.17267Z" fill="#16B4AE"/>
<g opacity="0.39">
<path d="M25.9072 -170.943C20.2082 -159.894 36.8401 -66.0291 108.953 -7.17209C181.066 51.6819 262.03 83.5349 322.972 68.1909C346.078 62.3739 369.203 58.9559 389.649 57.2599C384.062 54.3929 378.981 50.2359 373 48.2189C360.098 43.8649 346.351 50.1739 333.606 54.9699C320.858 59.7649 304.8 62.4999 295.023 53.0169C292.465 50.5359 290.611 47.4179 288.175 44.8149C280.441 36.5489 267.953 34.6239 256.693 35.7839C245.435 36.9469 234.55 40.6669 223.283 41.7449C213.702 42.6609 201.469 39.4989 199.935 29.9989C198.666 22.1299 205.902 14.2259 203.23 6.71591C202.313 4.14091 200.326 2.08291 198.183 0.383911C175.754 -17.3861 137.033 -2.0451 117.578 -23.0251C115.616 -25.1421 113.932 -27.6301 113.335 -30.4531C112.544 -34.1771 113.703 -37.9951 114.586 -41.7001C116.699 -50.5571 117.05 -60.6081 111.771 -68.0271C105.222 -77.2291 92.7132 -79.1991 81.9162 -82.5111C71.1182 -85.8241 59.2922 -94.1251 60.8322 -105.312C62.1452 -114.865 72.6942 -120.714 75.2502 -130.012C77.1542 -136.933 74.0822 -144.468 69.1432 -149.676C64.2042 -154.886 57.6352 -158.196 51.1502 -161.272C43.1442 -165.07 34.6042 -168.679 25.9392 -170.996C25.9302 -170.978 25.9162 -170.96 25.9072 -170.943Z" fill="#00A9A1"/>
</g>
<path d="M456.549 59.9488C456.549 59.9488 394.598 54.4488 315.26 70.4058C230.425 87.4648 106.113 19.0878 61.304 -51.4652C16.961 -121.285 14.909 -216.161 20.097 -222.535C25.285 -228.911 35.366 -220.903 35.366 -220.903C35.366 -220.903 12.008 -123.408 87.846 -33.8092C87.846 -33.8092 197.498 87.6028 330.829 61.4408C422.584 43.4398 456.549 59.9488 456.549 59.9488Z" fill="#009E97"/>
<path opacity="0.39" d="M212.708 14.8007C209.838 7.62072 225.905 -4.24928 234.683 0.887722C243.462 6.02272 215.579 21.9787 212.708 14.8007Z" fill="#00A9A1"/>
<path d="M30.5349 197.318C-7.8661 210.23 -48.5821 247.349 -48.5821 247.349C-15.2801 245.486 23.4989 217.908 36.4719 205.994C12.2619 238.99 -10.3211 294.888 -10.3211 294.888C18.1319 282.829 36.3789 234.986 42.5889 215.009C36.5729 254.173 57.6689 323.353 57.6689 323.353C80.2409 290.845 55.7079 214.435 55.7079 214.435L56.0369 212.706C71.3429 277.862 133.572 312.026 133.572 312.026C130.627 264.003 59.3609 206.553 59.3609 206.553L62.3159 204.129C99.3999 255.529 182.759 247.731 182.759 247.731C149.922 212.399 64.9359 198.581 64.9359 198.581L65.3619 197.183C65.3619 197.183 94.1119 199.134 114.933 197.746C135.755 196.357 169.322 175.564 169.322 175.564C169.322 175.564 141.703 165.39 113.606 165.263C85.5079 165.14 57.6989 181.127 57.6989 181.127C57.6989 181.127 95.0839 156.802 107.459 141.585C119.837 126.365 123.259 110.53 123.259 110.53C123.259 110.53 98.9139 107.327 79.6529 119.741C60.3919 132.159 45.8819 181.693 45.8819 181.693C45.8819 181.693 47.8439 157.173 44.4999 126.609C41.1579 96.0487 23.8589 84.1446 23.8589 84.1446C0.661901 120.266 38.1219 182.758 38.1219 182.758C-30.6951 122.389 -43.7431 48.8596 -44.0041 38.8107C-44.1511 33.1037 -53.0711 40.5926 -53.0711 40.5926C-59.2341 97.8506 36.2759 185.058 36.2759 185.058C3.70689 176.533 -60.0791 181.243 -60.0791 181.243C-24.9431 206.728 30.5349 197.318 30.5349 197.318Z" fill="#5AE0DC"/>
<path d="M281.092 156.505C281.092 156.505 293.574 143.708 314.221 151.494C334.87 159.278 333.651 158.23 343.313 168.442L355.677 178.221C355.677 178.221 353.933 179.263 336.407 182.64C318.883 186.017 307.46 188.704 298.403 183.461C289.344 178.218 275.77 161.468 274.9 159.024C274.032 156.584 281.092 156.505 281.092 156.505Z" fill="#5AE0DC"/>
<path d="M244.594 150.929C244.594 150.929 254.008 154.556 265.015 164.091C276.022 173.628 281.081 183.147 284.493 191.102C287.906 199.057 291.396 210.222 291.396 210.222C291.396 210.222 263.499 200.301 254.097 190.728C244.699 181.154 240.967 160.344 244.594 150.929Z" fill="#5AE0DC"/>
<path d="M215.751 134.794C215.751 134.794 228.853 143.187 232.656 154.238C236.463 165.292 239.203 182.622 238.321 190.992C237.438 199.359 236.525 204.511 237.383 210.128C237.383 210.128 231.884 206.644 226.203 201.075C220.523 195.505 214.859 191.542 209.73 176.643C204.602 161.745 206.155 139.71 215.751 134.794Z" fill="#5AE0DC"/>
<path d="M192.877 103.68C192.877 103.68 202.357 120.119 202.833 132.006C203.311 143.894 202.375 156.361 196.885 165.753C191.395 175.141 184.024 185.303 184.024 185.303C184.024 185.303 180.148 173.159 177.551 156.097C174.955 139.033 184.627 110.357 192.877 103.68Z" fill="#5AE0DC"/>
<path d="M175.606 67.5469C175.606 67.5469 181.355 77.8379 181.913 90.2029C182.472 102.567 177.083 115.117 165.846 126.719C154.606 138.321 151.105 152.852 151.105 152.852C151.105 152.852 137.817 120.943 147.081 100.279C156.343 79.6169 172.393 70.4729 175.606 67.5469Z" fill="#5AE0DC"/>
<path d="M164.046 64.1788C160.239 72.7418 153.269 79.5948 144.255 84.9398C135.241 90.2828 130.472 88.5238 125.108 95.4308C119.745 102.334 115.259 106.857 115.259 106.857C115.259 106.857 117.868 85.3928 123.682 69.3348C129.496 53.2778 131.306 46.9018 140.516 40.4408C149.724 33.9788 164.386 28.0088 164.386 28.0088C164.386 28.0088 167.855 55.6158 164.046 64.1788Z" fill="#5AE0DC"/>
<path d="M172.504 34.4909C172.504 34.4909 179.74 33.7139 191.245 35.1239C202.748 36.5339 207.195 35.0579 217.297 42.0449C227.399 49.0299 230.179 55.6599 234.447 57.8449C238.716 60.0299 246.118 64.4869 246.118 64.4869C246.118 64.4869 241.318 70.3179 223.797 70.7299C206.276 71.1459 193.72 73.9149 185.888 63.7939C178.057 53.6729 169.015 36.5789 169.015 36.5789L172.504 34.4909Z" fill="#5AE0DC"/>
<path d="M193.318 94.1414C193.318 94.1414 202.394 87.5264 210.936 85.9694C219.48 84.4114 225.408 84.4204 235.689 87.7474C245.969 91.0704 251.632 93.6074 253.464 93.6964C255.293 93.7844 252.586 97.1814 241.422 103.269C230.257 109.355 200.87 118.643 193.318 94.1414Z" fill="#5AE0DC"/>
<path d="M213.55 129.242C213.55 129.242 227.491 118.98 236.343 116.907C245.197 114.838 256.459 110.104 264.07 113.693C271.678 117.281 284.755 120.293 284.755 120.293C284.755 120.293 276.424 120.608 269.388 126.455C262.352 132.302 255.706 137.824 244.448 138.589C233.19 139.354 213.55 129.242 213.55 129.242Z" fill="#5AE0DC"/>
<path d="M257.581 150.585C257.581 150.585 279.513 129.273 296.737 125.83C313.962 122.389 328.264 121.628 328.264 121.628C328.264 121.628 319.023 122.979 302.796 135.12C286.568 147.261 266.087 150.491 257.581 150.585Z" fill="#5AE0DC"/>
<path d="M282.508 160.176C282.508 160.176 252.276 149.242 240.343 142.165C228.412 135.088 223.442 135.692 216.218 127.576C208.995 119.46 205.166 114.052 200.47 106.201C195.773 98.3486 185.597 81.3396 181.946 75.2336C178.293 69.1256 175.422 64.3266 174.048 49.1596C172.674 33.9896 163.545 15.7616 163.819 7.30659C164.09 -1.14841 160.799 -17.5394 161.419 -24.4254C162.038 -31.3084 162.483 -37.4974 159.874 -41.8594C157.264 -46.2234 149.164 -50.8534 150.119 -47.2764C151.073 -43.7034 156.72 -29.3124 156.623 -21.5554C156.524 -13.7984 160.247 5.29559 160.324 12.3576C160.403 19.4176 160.137 21.9466 162.218 31.3606C164.297 40.7786 169.85 59.9606 171.586 64.8436C173.324 69.7286 177.409 78.5386 182.365 86.8256C187.323 95.1126 194.367 106.888 198.714 116.135C203.06 125.379 211.592 132.713 216.904 136.642C222.217 140.571 242.859 151.32 248.001 152.984C253.14 154.648 282.508 160.176 282.508 160.176Z" fill="#00A39D"/>
<path d="M348.318 177.621C341.283 176.873 334.306 175.734 327.363 174.43C323.885 173.8 320.435 173.044 316.977 172.313C313.53 171.533 310.087 170.738 306.659 169.87C303.232 168.999 299.826 168.048 296.422 167.082L291.35 165.513C290.508 165.242 289.656 164.998 288.82 164.709L286.313 163.829C282.957 162.705 279.665 161.371 276.395 160.014L271.57 157.78C270.006 156.938 268.457 156.075 266.923 155.208C273.439 157.948 280.175 159.968 286.912 161.958C293.661 163.907 300.451 165.735 307.279 167.434C314.092 169.189 320.933 170.843 327.778 172.518C334.622 174.18 341.471 175.85 348.318 177.621Z" fill="#00A39D"/>
<path d="M317.425 124.549C312.525 127.037 307.451 129.115 302.355 131.111C299.771 132.106 297.338 133.065 294.923 134.275C292.523 135.497 290.129 136.748 287.778 138.12L280.657 142.147C278.255 143.456 275.862 144.805 273.377 146C270.897 147.205 268.375 148.347 265.732 149.207C263.099 150.034 260.347 150.732 257.583 150.585C260.304 150.17 262.831 149.177 265.28 148.055C267.743 146.955 270.095 145.597 272.453 144.267C274.788 142.886 277.137 141.514 279.462 140.083C281.806 138.685 284.159 137.289 286.545 135.926C288.941 134.584 291.396 133.309 293.903 132.129C296.434 131.01 299.114 130.015 301.707 129.265C306.917 127.62 312.153 126.066 317.425 124.549Z" fill="#00A39D"/>
<path d="M288.323 207.06C288.042 206.353 287.594 205.736 287.144 205.128C286.701 204.517 286.221 203.933 285.735 203.357C284.753 202.207 283.726 201.095 282.677 200.009C280.581 197.83 278.394 195.738 276.194 193.658L269.476 187.53C267.234 185.469 265.004 183.385 262.829 181.221C260.673 179.045 258.583 176.784 256.607 174.42C255.647 173.211 254.671 172.019 253.789 170.747C253.345 170.114 252.864 169.511 252.454 168.851L251.227 166.881C247.991 161.623 245.844 155.576 245.528 149.471C246.898 155.43 249.453 160.917 252.88 165.818C256.304 170.723 260.322 175.2 264.612 179.442C268.846 183.742 273.359 187.816 277.575 192.273C279.681 194.494 281.7 196.798 283.604 199.201C284.533 200.426 285.461 201.647 286.292 202.939C287.098 204.24 287.946 205.568 288.323 207.06Z" fill="#00A39D"/>
<path d="M213.55 129.242C218.637 130.882 223.899 131.703 229.107 131.656C231.709 131.597 234.294 131.365 236.819 130.838C239.338 130.332 241.831 129.52 244.279 128.615C249.197 126.81 253.951 124.444 258.912 122.384C261.385 121.344 263.925 120.385 266.574 119.745C269.208 119.136 272.031 118.815 274.64 119.539C271.953 119.381 269.382 120.025 266.93 120.929C264.465 121.819 262.101 122.993 259.729 124.17C257.367 125.377 254.984 126.566 252.579 127.756C250.156 128.907 247.695 130.014 245.154 130.974C242.588 131.869 239.992 132.71 237.261 133.173C234.54 133.597 231.788 133.791 229.059 133.614C223.612 133.289 218.243 131.847 213.55 129.242Z" fill="#00A39D"/>
<path d="M236.571 202.406C235.764 202.695 234.843 202.435 234.098 202.017C233.898 201.922 233.721 201.8 233.553 201.663C233.382 201.53 233.199 201.407 233.036 201.267C232.737 200.959 232.398 200.677 232.126 200.341C230.972 199.043 230.166 197.515 229.407 195.987C227.983 192.883 226.94 189.632 226.154 186.342C224.52 179.784 223.579 173.113 222.526 166.521C221.542 159.913 220.397 153.374 218.684 146.971C216.943 140.576 214.515 134.377 211.488 128.377C215.412 133.829 218.434 139.976 220.566 146.402C221.644 149.613 222.471 152.899 223.214 156.193C223.905 159.497 224.493 162.82 225.013 166.134L226.465 176.068C226.916 179.374 227.478 182.656 228.066 185.923L228.549 188.361L229.12 190.775C229.515 192.38 229.978 193.963 230.541 195.509C231.108 197.042 231.751 198.573 232.674 199.912C232.891 200.261 233.168 200.554 233.414 200.882C233.702 201.155 233.968 201.48 234.304 201.696C234.931 202.185 235.736 202.564 236.571 202.406Z" fill="#00A39D"/>
<path d="M248.958 95.6729C244.55 97.7099 239.911 99.2049 235.204 100.403C230.492 101.595 225.679 102.431 220.813 102.855C215.948 103.247 211.017 103.253 206.158 102.525C201.316 101.831 196.498 100.371 192.364 97.8059C196.945 99.4129 201.635 100.249 206.37 100.571C208.735 100.726 211.111 100.795 213.482 100.726C215.855 100.699 218.231 100.571 220.601 100.35C222.975 100.176 225.344 99.8959 227.708 99.5699C230.077 99.2749 232.433 98.8689 234.798 98.4889C239.519 97.6659 244.227 96.7179 248.958 95.6729Z" fill="#00A39D"/>
<path d="M193.426 100.512C194.1 102.078 194.595 103.715 195.085 105.343C195.576 106.977 195.996 108.629 196.411 110.283C197.192 113.603 197.847 116.966 198.254 120.378C198.677 123.786 198.858 127.248 198.509 130.77C198.297 132.56 197.941 134.241 197.517 135.916C197.111 137.594 196.622 139.252 196.088 140.891C194.988 144.162 193.642 147.318 192.415 150.438C191.794 151.996 191.217 153.555 190.74 155.136C190.497 155.925 190.299 156.723 190.102 157.524L189.535 160C188.044 166.618 186.464 173.216 184.639 179.774C185.436 173.02 186.479 166.302 187.612 159.605L188.034 157.092C188.205 156.235 188.393 155.381 188.618 154.539C189.063 152.855 189.608 151.21 190.186 149.594C191.375 146.373 192.675 143.277 193.701 140.097C194.235 138.516 194.726 136.926 195.137 135.313C195.574 133.703 195.904 132.057 196.15 130.486C196.604 127.259 196.494 123.9 196.306 120.558C196.076 117.214 195.697 113.86 195.204 110.517C194.969 108.845 194.696 107.172 194.409 105.504C194.27 104.668 194.116 103.835 193.957 103.002C193.799 102.167 193.658 101.328 193.426 100.512Z" fill="#00A39D"/>
<path d="M240.439 65.1541C237.581 66.9031 234.092 67.4321 230.731 67.3851C229.031 67.3641 227.353 67.0951 225.684 66.7841C224.855 66.6011 224.034 66.3832 223.218 66.1572L220.811 65.3601C217.707 64.2581 214.621 63.1931 211.458 62.2311C208.305 61.2481 205.091 60.0871 202.057 58.6681C196.008 55.7721 190.271 52.4501 184.674 48.8561C181.878 47.0611 179.147 45.1651 176.485 43.1741C175.168 42.1551 173.849 41.1431 172.589 40.0541C171.33 38.9711 170.085 37.8491 169.016 36.5771C170.271 37.6571 171.643 38.5761 173.01 39.4971C174.382 40.4131 175.775 41.2931 177.181 42.1521C179.983 43.8861 182.835 45.5401 185.692 47.1771C188.568 48.7841 191.43 50.4092 194.346 51.9352C197.248 53.4892 200.156 55.0261 203.118 56.3861C206.056 57.8101 209.075 58.9081 212.207 59.9741C215.33 61.0671 218.482 62.2081 221.529 63.5391C224.504 64.8251 227.599 65.7792 230.815 66.1562C234.009 66.5292 237.357 66.3871 240.439 65.1541Z" fill="#00A39D"/>
<path d="M166.332 28.2441C166.142 28.6821 166.195 29.1821 166.164 29.6571L166.142 31.1021C166.115 32.0681 166.07 33.0331 165.998 33.9981C165.853 35.9331 165.565 37.8581 165.16 39.7691C164.324 43.5781 162.936 47.3031 160.98 50.7241C160.499 51.5861 159.976 52.4221 159.43 53.2351C159.161 53.6441 158.888 54.0531 158.605 54.4571L157.722 55.6411C157.152 56.4451 156.477 57.1721 155.855 57.9401C155.178 58.6621 154.525 59.4091 153.803 60.0861C150.968 62.8801 147.678 65.0491 144.638 67.3161C141.57 69.5451 138.671 71.9611 136.103 74.6991C133.525 77.3981 131.292 80.4951 129.113 83.6161C124.827 89.9281 120.947 96.5631 117.178 103.278C120.005 96.1071 123.421 89.1621 127.466 82.5471C129.49 79.2351 131.729 76.0411 134.358 73.0761C136.997 70.1501 140.023 67.6061 143.148 65.2871C146.295 63.0051 149.459 60.9211 152.167 58.3591C154.94 55.8721 157.224 52.8421 159.301 49.7191C161.302 46.5491 162.883 43.0921 163.971 39.4601C164.536 37.6471 164.963 35.7891 165.309 33.9111C165.486 32.9691 165.63 32.0231 165.766 31.0701L165.978 29.6421C166.068 29.1731 166.08 28.6641 166.332 28.2441Z" fill="#00A39D"/>
<path d="M151.393 146.523C150.805 145.831 150.651 144.879 150.509 144.003C150.415 143.106 150.381 142.201 150.419 141.301C150.476 139.496 150.738 137.712 151.056 135.948C151.728 132.416 152.68 128.968 153.79 125.553C154.921 122.094 156.578 118.815 158.533 115.759C160.502 112.706 162.799 109.895 165.177 107.216C167.578 104.557 170.091 102.034 172.343 99.3972C174.575 96.7562 176.601 93.9862 176.607 90.6452C176.737 88.9142 176.734 87.1632 176.705 85.4052C176.687 83.6472 176.587 81.8872 176.467 80.1242C176.244 76.5942 175.866 73.0672 175.449 69.5322C176.415 72.9622 177.125 76.4592 177.696 79.9852C178.221 83.5212 178.632 87.0892 178.57 90.7242C178.573 91.5962 178.524 92.6292 178.294 93.5882C178.048 94.5392 177.696 95.4512 177.268 96.3002C176.406 98.0012 175.307 99.4942 174.178 100.918C171.872 103.729 169.378 106.255 167.052 108.897C162.319 114.079 158.158 119.736 155.633 126.218C154.39 129.504 153.191 132.833 152.254 136.221C151.768 137.911 151.37 139.628 151.112 141.361C150.97 142.226 150.904 143.101 150.886 143.978C150.904 144.838 150.916 145.763 151.393 146.523Z" fill="#00A39D"/>
<path d="M232.778 470.674C232.778 470.674 222.361 436.715 198.689 415.881C175.017 395.049 112.58 361.287 112.58 361.287C112.58 361.287 144.908 451.617 232.778 470.674Z" fill="#005F61"/>
<path d="M92.3944 344.821C93.4724 342.309 121.691 384.419 115.595 449.823C115.595 449.823 72.0684 392.212 92.3944 344.821Z" fill="#005F61"/>
<path d="M107.136 353.068C107.136 353.068 138.036 385.107 204.567 358.32C204.567 358.32 132.176 325.908 107.136 353.068Z" fill="#097F73"/>
<path d="M177.762 320.234C177.762 320.234 99.5661 315.875 86.3691 334.238C86.3691 334.238 144.177 349.539 177.762 320.234Z" fill="#005F61"/>
<path d="M60.5042 423.271C60.5042 423.271 94.6582 358.884 78.2332 332.13C78.2332 332.13 44.4192 380.778 60.5042 423.271Z" fill="#097F73"/>
<path d="M75.7734 324.694C75.7734 324.694 136.956 327.917 163.674 292.57C163.674 292.57 86.3014 301.126 75.7734 324.694Z" fill="#097F73"/>
<path d="M62.5068 309.944C62.5068 309.944 133.616 305.762 161.707 265.36C161.707 265.36 77.4168 270.794 62.5068 309.944Z" fill="#005F61"/>
<path d="M63.2079 314.516C63.2079 314.516 64.0979 360.543 37.8259 405.618C37.8259 405.618 25.5239 368.436 58.4669 309.794L63.2079 314.516Z" fill="#005F61"/>
<path d="M51.7399 294.977C51.7399 294.977 109.377 278.28 139.48 235.59C139.48 235.59 71.7099 235.354 46.0439 290.844L51.7399 294.977Z" fill="#005F61"/>
<path d="M45.5812 298.232C45.5812 298.232 34.7492 356.456 0.78418 382.568C0.78418 382.568 9.92218 328.015 39.8292 292.291L45.5812 298.232Z" fill="#097F73"/>
<path d="M36.0342 282.254C36.0342 282.254 87.8902 245.42 111.57 206.409C111.57 206.409 54.3122 226.299 30.2822 276.312L36.0342 282.254Z" fill="#097F73"/>
<path d="M30.9096 283.137L22.5246 275.866C22.5246 275.866 -26.0974 284.495 -44.6914 335.954C-44.6914 335.954 7.1756 312.928 30.9096 283.137Z" fill="#005F61"/>
<path d="M118.642 364.949C118.642 364.949 -16.8818 241.058 -38.7198 166.052C-38.7198 166.052 -40.8008 161.804 -44.9928 165.693C-49.1838 169.582 -9.13383 261.828 118.642 364.949Z" fill="#005F61"/>
<path d="M206.14 231.839C206.163 232.301 206.186 232.763 206.209 233.225C206.279 234.627 206.721 235.889 207.73 236.898C208.7 237.868 210.031 238.42 211.403 238.42C212.775 238.42 214.106 237.868 215.076 236.898C216.085 235.889 216.527 234.627 216.597 233.225C216.62 232.763 216.643 232.301 216.666 231.839C216.81 228.971 214.163 226.575 211.402 226.575C208.643 226.575 205.997 228.971 206.14 231.839Z" fill="#005F61"/>
<path d="M190.814 225.238C196.601 225.238 196.601 216.265 190.814 216.265C185.027 216.266 185.027 225.238 190.814 225.238Z" fill="#005F61"/>
<path d="M206.653 217.947C207.115 217.913 207.577 217.88 208.039 217.846C207.734 217.805 207.431 217.764 207.126 217.723C207.186 217.744 207.247 217.766 207.307 217.786C209.479 218.545 211.734 216.571 211.734 214.414C211.734 212.257 209.479 210.283 207.307 211.041C207.247 211.062 207.186 211.083 207.126 211.104C207.43 211.063 207.734 211.022 208.039 210.981C207.577 210.947 207.115 210.914 206.653 210.88C204.73 210.74 203.12 212.593 203.12 214.413C203.12 216.234 204.73 218.086 206.653 217.947Z" fill="#005F61"/>
<path d="M192.398 248.995C198.185 248.995 198.185 240.022 192.398 240.022C186.611 240.022 186.611 248.995 192.398 248.995Z" fill="#005F61"/>
<path d="M171.805 225.238C177.591 225.238 177.591 216.265 171.805 216.265C166.019 216.266 166.019 225.238 171.805 225.238Z" fill="#005F61"/>
<path d="M183.003 203.218C183.275 203.473 183.547 203.729 183.819 203.985C184.209 204.352 184.72 204.573 185.187 204.823C186.733 205.651 188.383 204 187.555 202.455C187.385 202.136 187.219 201.815 187.038 201.502C186.775 201.046 186.31 200.653 185.95 200.271C185.171 199.444 183.788 199.485 183.003 200.271C182.219 201.054 182.174 202.441 183.003 203.218Z" fill="#005F61"/>
<path d="M15.3067 571.32C15.3067 571.32 2.62872 549.51 3.18372 527.122C3.74072 504.733 16.2547 455.897 16.2547 455.897C16.2547 455.897 47.7557 516.321 15.3067 571.32Z" fill="#005F61"/>
<path d="M17.4065 437.434C15.5775 436.784 23.9185 471.809 60.9575 500.174C60.9575 500.174 51.9175 449.693 17.4065 437.434Z" fill="#005F61"/>
<path d="M14.5958 449.094C14.5958 449.094 16.3948 480.66 -29.6602 502.424C-29.6602 502.424 -11.6432 449.051 14.5958 449.094Z" fill="#097F73"/>
<path d="M-36.585 470.081C-36.585 470.081 -1.14296 427.21 14.797 429.186C14.797 429.186 -5.10996 466.702 -36.585 470.081Z" fill="#005F61"/>
<path d="M73.6861 458.645C73.6861 458.645 23.6481 445.397 17.6221 423.928C17.6221 423.928 59.2941 429.766 73.6861 458.645Z" fill="#097F73"/>
<path d="M14.9301 419.059C14.9301 419.059 -12.8989 452.512 -44.2129 449.393C-44.2129 449.393 -2.43389 413.182 14.9301 419.059Z" fill="#097F73"/>
<path d="M13.6398 405.031C13.6398 405.031 -22.8392 440.084 -57.4492 435.244C-57.4492 435.244 -13.9622 393.92 13.6398 405.031Z" fill="#005F61"/>
<path d="M15.6838 407.598C15.6838 407.598 39.2508 430.262 75.4208 438.307C75.4208 438.307 61.9688 413.959 15.5088 402.85L15.6838 407.598Z" fill="#005F61"/>
<path d="M11.03 392.199C11.03 392.199 -25.475 414.191 -62.252 409.297C-62.252 409.297 -29.686 373.852 11.622 387.234L11.03 392.199Z" fill="#005F61"/>
<path d="M15.698 390.554C15.698 390.554 51.276 412.99 81.271 407.88C81.271 407.88 48.423 386.331 15.373 384.69L15.698 390.554Z" fill="#097F73"/>
<path d="M11.971 377.873C11.971 377.873 -32.241 387.141 -64 380.674C-64 380.674 -26.016 360.414 11.649 372.01L11.971 377.873Z" fill="#097F73"/>
<path d="M14.9043 375.627L15.1563 367.75C15.1563 367.75 43.1083 346.562 78.9033 361.687C78.9033 361.687 41.8833 377.623 14.9043 375.627Z" fill="#097F73"/>
<path d="M15.2424 460.826C15.2424 460.826 16.0194 330.418 -12.5526 282.853C-12.5526 282.853 -13.7616 279.72 -9.71361 279.412C-5.66561 279.099 23.1074 344.473 15.2424 460.826Z" fill="#005F61"/>
<path d="M-30.141 108.56C-15.614 123.088 13.439 114.916 24.332 115.826C35.228 116.733 29.781 140.34 65.19 140.34C100.598 140.34 119.664 125.811 148.718 98.5755C177.771 71.3385 169.6 69.5215 188.666 40.4685C207.733 11.4165 205.917 -21.2705 205.917 -21.2705C189.575 -12.1905 171.417 -18.5465 156.89 -19.4535C142.363 -20.3625 122.389 -18.5465 88.796 -11.2845C55.202 -4.01851 57.019 -3.11251 29.78 5.06049C2.54296 13.2275 -1.08804 22.3075 -21.063 41.3745C-41.036 60.4435 -44.669 94.0355 -30.141 108.56ZM188.666 16.8615C204.101 21.4015 160.52 49.5475 153.258 42.2825C145.994 35.0195 173.231 12.3225 188.666 16.8615ZM159.669 70.3105C164.994 77.1585 153.582 87.0495 137.604 89.3335C121.627 91.6155 101.846 88.5715 112.497 80.9645C123.15 73.3545 154.343 63.4665 159.669 70.3105ZM117.85 -8.55851C148.718 -7.65251 131.468 52.2705 102.414 48.6375C73.361 45.0075 86.979 -9.46851 117.85 -8.55851ZM110.216 115.202C114.02 123.568 91.195 125.091 84.347 119.006C77.5 112.917 106.411 106.832 110.216 115.202ZM70.761 132.665C62.922 136.939 46.535 131.24 50.81 123.4C55.084 115.564 78.596 128.387 70.761 132.665ZM60.65 27.7565C76.992 25.0335 72.453 65.8885 59.741 63.1655C47.031 60.4435 44.307 30.4795 60.65 27.7565ZM-7.44404 47.7315C-7.44404 47.7315 -1.99604 52.2705 11.621 67.7055C25.239 83.1415 49.755 86.7705 37.951 96.7595C26.147 106.744 -1.99704 94.0355 -10.169 78.6015C-18.339 63.1655 -25.602 44.0985 -7.44404 47.7315Z" fill="#005F61"/>
<path d="M50.0401 31.8696C29.9311 38.3576 46.1481 79.8756 63.0141 82.4686C72.0071 83.8516 73.4381 67.5296 69.7661 52.9746C67.9201 59.3446 64.3781 64.1586 59.7411 63.1656C49.2551 60.9196 45.5781 40.1486 53.7841 31.4096C52.5821 31.3166 51.3321 31.4546 50.0401 31.8696Z" fill="#097F73"/>
<path d="M29.7805 5.05951C2.54346 13.2275 -1.08754 22.3075 -21.0625 41.3745C-41.0365 60.4435 -44.6685 94.0355 -30.1415 108.561C-29.5925 109.111 -29.0145 109.618 -28.4275 110.103C-25.9525 101.701 -24.1015 93.3465 -21.0105 90.2585C-13.3065 82.5545 -7.52954 108.554 19.4355 105.667C23.7735 105.202 26.7125 103.259 28.6715 100.224C15.1905 101.269 -3.71454 90.7895 -10.1685 78.6005C-18.3385 63.1655 -25.6015 44.0985 -7.44354 47.7315C-7.44354 47.7315 -1.99554 52.2705 11.6215 67.7055C17.7285 74.6275 26.0185 79.1725 32.2495 82.9845C32.5015 62.4235 26.3305 32.9125 37.7315 16.1085C53.4475 -7.05149 63.4795 17.3925 86.7485 22.9145C88.9175 7.46751 100.727 -9.06248 117.849 -8.55848C125.954 -8.32048 130.738 -4.00949 132.866 2.14851C135.953 -1.50449 140.124 -5.53248 146.548 -9.89248C173.513 -28.1885 165.809 -7.96648 186.995 -9.89248C193.604 -10.4925 200.119 -14.5615 205.956 -19.8755C205.942 -20.7785 205.916 -21.2715 205.916 -21.2715C189.574 -12.1915 171.416 -18.5475 156.889 -19.4545C142.362 -20.3635 122.388 -18.5475 88.7955 -11.2855C55.2025 -4.01949 57.0185 -3.11249 29.7805 5.05951Z" fill="#097F73"/>
<path d="M205.917 -21.2715C205.192 -18.9415 204.138 -16.7225 203 -14.5475C201.806 -12.4035 200.485 -10.3195 199.031 -8.32948C196.136 -4.32848 192.7 -0.716485 188.954 2.54251C185.175 5.76551 181.07 8.61251 176.755 11.1115C172.585 13.5575 168.422 15.9135 164.408 18.5625C156.352 23.7845 148.556 29.3925 141.214 35.5135C133.904 41.6515 126.875 48.1545 120.804 55.4085L118.512 58.1105L116.35 60.9015C115.608 61.8195 114.94 62.7855 114.273 63.7475L112.217 66.6945C109.286 70.9555 105.942 74.7285 102.368 78.2105C98.789 81.6885 95.024 84.9205 91.143 87.9765C87.271 91.0475 83.24 93.8965 79.099 96.5635C70.846 101.933 62.138 106.597 53.018 110.306C48.442 112.111 43.761 113.692 38.95 114.755C36.554 115.315 34.107 115.669 31.667 115.933C29.213 116.104 26.751 116.11 24.332 115.827C29.209 115.706 33.915 114.529 38.454 112.983C42.994 111.426 47.409 109.525 51.681 107.334C55.971 105.189 60.154 102.827 64.222 100.286C68.29 97.7455 72.3 95.1145 76.171 92.2905C83.878 86.6205 91.355 80.5885 97.913 73.7755C101.195 70.3905 104.317 66.8575 106.835 63.0725C109.56 59.0355 112.491 54.8205 115.758 51.1015C117.354 49.1825 119.092 47.4075 120.776 45.5795C122.533 43.8315 124.24 42.0265 126.071 40.3595C129.651 36.9365 133.413 33.7305 137.266 30.6445C141.175 27.6395 145.115 24.6805 149.212 21.9525C151.23 20.5455 153.317 19.2435 155.383 17.9105C157.496 16.6525 159.579 15.3485 161.727 14.1535C165.972 11.6925 170.351 9.41751 174.739 7.27951C179.002 5.21851 183.086 2.78752 186.937 0.00551605C190.811 -2.74948 194.383 -5.94348 197.612 -9.48248C200.804 -13.0425 203.778 -16.8985 205.917 -21.2715Z" fill="#097F73"/>
<path d="M148.718 98.5762C133.851 106.645 114.546 103.639 99.9583 111.111C104.688 111.173 108.916 112.345 110.216 115.203C113.532 122.501 96.6023 124.588 87.6733 120.968C80.2883 128.919 81.3213 132.334 70.7613 132.666C63.8383 136.44 50.2583 132.433 50.1213 126.049C44.8033 124.25 39.5273 123.629 34.6113 127.046C38.9163 133.505 46.1333 140.341 65.1903 140.341C100.598 140.34 119.664 125.811 148.718 98.5762Z" fill="#097F73"/>
<path d="M191.943 20.198C191.972 21.852 190.82 23.895 188.884 26.086C188.422 27.119 187.976 28.179 187.565 29.277C179.781 50.034 174.591 48.089 164.861 61.065C162.281 64.503 161.132 68.109 160.509 71.721C161.363 73.676 161.046 75.801 159.798 77.886C159.433 82.225 159.098 86.441 157.217 90.25C176.252 70.591 171.757 66.236 188.667 40.468C196.128 29.099 200.384 17.179 202.81 6.87598C199.252 10.153 195.307 14.56 191.943 20.198Z" fill="#097F73"/>
<path d="M1628.96 1056.9C1637.73 1065.27 1646.85 1072.94 1656.25 1080.05H1918.74V794.395C1916.22 792.384 1913.72 790.441 1911.27 788.599C1865.13 753.911 1831.55 746.82 1803.73 760.761C1770.63 777.356 1758.35 842.551 1737.7 873.001C1708.12 916.611 1662.94 916.784 1623.96 944.796C1617.24 949.622 1612.09 955.476 1608.38 962.006C1592.04 990.718 1603.31 1032.45 1628.96 1056.9Z" fill="#1FA39D" fill-opacity="0.4"/>
<path opacity="0.39" d="M1644.69 632.025C1651.78 614.963 1668.63 611.766 1681.1 601.657C1705.09 582.215 1706.47 535.259 1734.81 523.694C1771.89 508.565 1808.98 562.113 1827.12 590.779C1856.86 637.785 1824.71 693.408 1785.1 717.283C1742.37 743.039 1690.7 718.932 1658.34 683.612C1646 670.141 1636.77 651.077 1644.69 632.025Z" fill="#00A9A1" fill-opacity="0.4"/>
<path d="M2463.62 127.449C2397.09 480.15 2057.26 712.123 1704.54 645.631C1351.85 579.087 1119.85 239.251 1186.38 -113.451C1252.9 -466.149 1592.75 -698.142 1945.43 -631.624C2298.15 -565.096 2530.14 -225.26 2463.62 127.449Z" fill="#005F61"/>
<path d="M1713.41 554.287C1754.92 556.109 1750.06 515.371 1763.41 492.039C1768.68 482.804 1768.13 469.023 1754.2 464.015C1739.53 458.772 1695.87 494.677 1691.78 514.445C1683.67 536.145 1690.51 553.288 1713.41 554.287Z" fill="#BEDD07"/>
<path d="M2471.82 69.7318C2464.45 106.616 2445.96 137.903 2422.88 171.011C2410.8 161.029 2424.66 145.177 2407.16 139.356C2394.01 163 2381.05 187.344 2367.1 211.058C2357.6 227.255 2344.56 244.91 2361.54 260.802C2379.38 277.537 2389.57 251.138 2408.07 245.958C2403.98 281.714 2371.49 282.508 2352.18 296.837C2346.88 300.769 2343.33 296.817 2341 289.861C2326.95 248.055 2312.01 206.581 2296.93 163.76C2342.22 170.029 2378.08 136.409 2356.74 105.797C2326.61 62.5971 2349.64 27.8264 2368.16 2.69906C2414 -59.4821 2385.54 -106.531 2351.03 -155.505C2341.42 -169.127 2342.08 -184.936 2332.58 -204.542C2355.52 -192.791 2373.9 -183.406 2392.61 -173.839C2404.99 -244.426 2370.38 -300.173 2335.09 -351.393C2318.3 -375.764 2284.73 -394.108 2251.59 -402.311C2244.96 -403.954 2236.96 -401.787 2232.22 -408.152C2221.51 -422.468 2202.47 -438.399 2218.07 -455.921C2231.22 -470.695 2240.77 -447.446 2252.42 -442.282C2257.3 -440.128 2261.5 -436.442 2268.99 -437.092C2220.39 -493.2 2158.87 -533.968 2098.94 -576.739C2131.23 -564.839 2161.09 -549.558 2188.97 -531.552C2117.62 -579.815 2035.47 -614.649 1945.43 -631.63C1736.38 -671.046 1531.86 -605.593 1386.07 -472.311C1437.81 -512.222 1502.87 -524.108 1561.98 -548.741C1583.96 -583.27 1615.8 -571.632 1646.67 -564.809C1618.48 -559.357 1590.32 -553.931 1562.15 -548.463C1555.4 -537.93 1548.65 -527.41 1538.41 -511.422C1578.55 -519.181 1610.78 -507.762 1644.49 -499.316C1695.78 -486.477 1743.45 -514.847 1791.75 -528.101C1811.86 -533.609 1812.45 -563.761 1828.77 -580.204C1859.42 -611.032 1891.29 -627.365 1934.14 -616.265C1969.67 -607.056 2005.02 -596.922 2040.31 -586.694C2068.33 -578.578 2071.64 -552.153 2078.52 -530.019C2081.73 -519.705 2071.51 -511.88 2059.77 -512.885C2052.26 -513.546 2043.29 -531.744 2038.35 -512.112C2035.73 -501.702 2048.04 -500.584 2055.66 -497.561C2059.49 -496.041 2063.01 -493.738 2069 -490.532C2050.99 -468.637 2031.36 -474.103 2008.89 -478.934C1987.77 -483.491 1967.14 -496.579 1943.79 -489.524C1941.04 -469.311 1977.91 -475.828 1967.43 -450.648C1960.31 -433.541 1951.45 -420.908 1931.71 -419.308C1930.36 -419.212 1929.14 -418.134 1927.78 -417.775C1914.2 -414.298 1915.54 -375.256 1892.55 -399.414C1874.75 -418.107 1907.3 -428.351 1909.95 -449.088C1885.4 -444.89 1871.39 -430.837 1863.92 -410.541C1852.36 -379.145 1823.34 -371.858 1802.46 -398.903C1784.13 -422.703 1760.82 -431.222 1735.44 -423.699C1695.19 -411.729 1656.45 -394.553 1617.46 -378.638C1608.04 -374.785 1600.97 -366.402 1605.87 -354.655C1613.82 -335.627 1602.55 -328.147 1587.36 -324.364C1578.21 -322.088 1565.72 -318.414 1560.61 -329.627C1554.66 -342.712 1563.44 -354.078 1571.35 -364.182C1577.31 -371.831 1584.1 -378.83 1592.94 -388.882C1568.2 -401.074 1550.72 -382.958 1531.47 -380.682C1500.22 -376.925 1506.21 -354.025 1507.26 -333.052C1508.22 -313.603 1486.4 -307.4 1481.33 -288.17C1473.27 -257.663 1456.48 -285.907 1443.01 -288.794C1422.99 -293.071 1386.37 -260.756 1391.15 -238.486C1396.34 -214.311 1386.51 -209.619 1367.9 -204.18C1246.41 -168.573 1215.23 -55.1814 1231.99 36.6269C1238.81 74.0126 1257.69 100.852 1289.27 115.609C1337 137.919 1361.02 170.765 1355.47 224.139C1353.65 241.724 1362.76 257.078 1369.57 272.582C1381.15 299.007 1386.14 325.405 1382.56 355.019C1375.2 416.288 1420.41 455.512 1449.46 501.14C1470.65 534.401 1502.45 551.442 1541.26 555.337C1551.02 556.356 1561.27 556.658 1570.79 554.753C1605.19 547.851 1668.2 456.295 1661.09 422.158C1655.23 394.004 1659.53 375.285 1687.84 359.419C1724.65 338.782 1759.16 312.935 1784.22 277.404C1793.12 264.77 1806.03 251.692 1799.28 235.419C1791.24 216.066 1772.53 225.646 1757.89 225.619C1749.56 225.619 1740.88 228.516 1730.13 217.264C1768.19 204.229 1805.02 193.832 1840 179.101C1890.56 157.77 1904.48 129.474 1887.72 91.0661C1974.93 85.292 2016.8 114.644 2037.74 198.222C2046.57 233.441 2064.82 259.069 2099.22 272.914C2105.93 275.622 2111.56 280.304 2118.36 275.539C2126.59 269.798 2127.86 260.573 2123.41 252.841C2083.45 183.22 2142.52 147.058 2174.88 102.784C2186.81 86.4634 2200.12 89.6392 2216.81 105.13C2250.51 136.376 2272.71 172.226 2283.44 216.583C2286.93 231.082 2292.9 239.879 2269.62 238.18C2245.32 236.411 2248.11 249.761 2260.18 264.326C2269.18 275.164 2278.1 286.155 2286.27 297.64C2312.08 333.993 2330.31 337.514 2367.39 312.885C2375.37 307.582 2383.76 302.833 2392.32 297.626C2394.78 301.645 2397.76 304.738 2397.19 305.8C2338.01 410.434 2429.07 310.512 2463.62 127.44C2467.25 108.133 2469.92 88.8892 2471.82 69.7318ZM1702.06 -579.318C1710.81 -588.125 1719.84 -590.955 1732.08 -586.29C1723.18 -574.652 1714.18 -571.682 1702.06 -579.318ZM1673.12 -167.222C1679.62 -172.24 1687.56 -170.703 1690.53 -162.835C1695.6 -149.372 1710.22 -147.126 1717.92 -137.117C1717.92 -137.117 1717.92 -137.117 1717.92 -137.144C1725.72 -134.771 1735.27 -135.017 1738.73 -125.725C1739.34 -124.059 1734.73 -118.312 1732.1 -117.993C1723.87 -116.988 1720.06 -123.548 1716.64 -129.866C1702.81 -132.919 1688.99 -135.946 1675.18 -139.075C1668.11 -140.721 1659.65 -143.495 1660.81 -151.499C1661.65 -157.273 1667.88 -163.19 1673.12 -167.222ZM1672.86 -311.548C1671.32 -323.701 1676.02 -332.607 1687.51 -338.677C1694.33 -323.116 1679.27 -319.499 1673.12 -311.326C1663.09 -302.562 1652.12 -297.617 1636.55 -303.873C1647.67 -315.345 1660.86 -311.12 1672.86 -311.548ZM1600.39 -43.6033C1583.12 -60.461 1566.18 -70.4296 1537.64 -69.5867C1509.6 -68.7903 1494.44 -99.4197 1495.82 -127.782C1496.6 -143.655 1498.72 -158.193 1491.16 -172.635C1491.13 -172.608 1491.1 -172.595 1491.08 -172.595C1491.08 -172.608 1491.1 -172.635 1491.1 -172.665C1470 -180.048 1448.86 -187.448 1425.44 -195.648C1442.93 -204.664 1458.5 -212.187 1473.54 -220.61C1483.77 -226.34 1494.54 -232.42 1504.88 -224.356C1519.43 -213.007 1502.44 -205.471 1499.46 -196.232C1496.91 -188.304 1493.92 -180.489 1491.1 -172.665C1491.11 -172.645 1491.13 -172.631 1491.16 -172.631C1493.75 -173.726 1496.36 -175.731 1498.93 -175.671C1513.17 -175.392 1514.3 -206.871 1531.26 -192.018C1545.28 -179.756 1540.5 -163.967 1522.9 -154.161C1517.25 -151.005 1516.45 -144.816 1520.69 -139.56C1525.95 -133.026 1533.29 -133.012 1539.78 -136.752C1557.82 -147.162 1565.51 -143.655 1572.06 -122.227C1581.67 -90.7552 1596.95 -116.072 1614.07 -124.574C1613.03 -91.8304 1628.22 -73.6751 1659.64 -69.6299C1671.05 -68.1532 1682.89 -62.4355 1679.75 -47.5423C1676.79 -33.555 1666.19 -24.6052 1651.9 -26.9115C1634.15 -29.772 1614.99 -29.4136 1600.39 -43.6033ZM1655.83 37.3504C1683.78 78.6618 1690.06 127.689 1705.13 174.114C1667.05 136.177 1666.33 85.1626 1655.83 37.3504ZM1838.29 -151.937C1815.15 -126.163 1848.32 -104.56 1842.05 -80.1063C1840.18 -72.8853 1846.77 -61.4599 1834.15 -60.4942C1823.55 -59.6912 1818.95 -70.3766 1821.51 -78.2015C1829.46 -102.459 1784.56 -135.289 1838.29 -151.937ZM1794.75 30.4812C1817.75 41.0139 1825.48 54.2811 1828.63 79.2524C1801.56 69.317 1797.21 54.1948 1794.75 30.4812ZM2350.48 -279.369C2371.44 -268.448 2365.46 -246.387 2377.39 -218.612C2346.24 -233.505 2335.91 -248.043 2339.19 -270.061C2339.76 -273.847 2348.64 -280.322 2350.48 -279.369Z" fill="#BEDD07"/>
<path opacity="0.3" d="M2315.01 433.903C2318.11 430.385 2321.2 426.891 2324.21 423.307C2327.6 419.232 2330.89 415.064 2334.2 410.909C2337.22 407.123 2340.23 403.34 2343.15 399.491C2346.29 395.323 2349.36 391.098 2352.41 386.857C2355.32 382.825 2358.23 378.78 2361.06 374.679C2363.97 370.441 2366.79 366.15 2369.6 361.839C2372.39 357.562 2375.14 353.285 2377.83 348.947C2380.51 344.623 2383.1 340.263 2385.68 335.876C2388.32 331.383 2390.92 326.827 2393.46 322.257C2395.89 317.883 2398.28 313.48 2400.61 309.05C2403.1 304.288 2405.51 299.482 2407.9 294.647C2410.06 290.234 2412.24 285.814 2414.3 281.34C2416.65 276.33 2418.87 271.236 2421.08 266.122C2423 261.695 2424.93 257.275 2426.79 252.788C2428.94 247.442 2430.98 242.05 2433.03 236.618C2434.68 232.244 2436.37 227.894 2437.93 223.447C2439.96 217.653 2441.84 211.779 2443.71 205.902C2445.04 201.734 2446.46 197.593 2447.72 193.355C2449.71 186.685 2451.5 179.892 2453.28 173.113C2454.2 169.568 2455.26 166.087 2456.11 162.523C2458.68 152.113 2461.02 141.607 2463.1 130.978C2468.21 104.593 2471.46 78.3243 2473.31 52.1848C2468.87 63.2021 2464.06 74.0402 2459.07 84.7853C2457.83 87.4368 2456.61 90.0882 2455.34 92.7064C2450.39 103.05 2445.23 113.291 2439.79 123.356C2438.74 125.32 2437.62 127.205 2436.54 129.156C2431.92 137.479 2427.15 145.695 2422.22 153.799C2420.35 156.879 2418.47 159.968 2416.57 163.034C2410.93 172.024 2405.08 180.884 2399.05 189.595C2396.78 192.894 2394.41 196.129 2392.05 199.368C2387.64 205.524 2383.11 211.593 2378.5 217.593C2375.8 221.114 2373.14 224.665 2370.38 228.112C2364.21 235.844 2357.87 243.44 2351.38 250.894C2348.12 254.647 2344.77 258.347 2341.41 262.034C2336.89 267.045 2332.27 271.976 2327.58 276.864C2323.66 280.959 2319.71 285.051 2315.71 289.056C2309.45 295.251 2303.09 301.337 2296.63 307.321C2172.21 422.242 2006.9 493.214 1827.39 493.214C1762.23 493.214 1698.94 483.842 1638.8 466.447C1638.87 466.407 1638.94 466.377 1639.02 466.338C1575.49 447.99 1515.49 420.722 1460.47 385.918C1460.47 385.931 1460.47 385.931 1460.47 385.931C1331.8 304.533 1230.49 182.378 1176.02 38.6621C1190.06 330.795 1401.26 586.641 1701.15 644.927C1889.68 681.566 2074.96 632.638 2217.02 525.313C2217 525.366 2216.98 525.396 2216.97 525.423C2219.69 523.348 2222.31 521.165 2225 519.064C2242.51 505.409 2259.31 490.871 2275.37 475.477C2277.99 472.968 2280.67 470.525 2283.25 467.964C2287.28 463.965 2291.17 459.81 2295.1 455.709C2298.13 452.533 2301.24 449.384 2304.22 446.155C2307.89 442.146 2311.44 438.005 2315.01 433.903Z" fill="#005D6A"/>
<path d="M1502.81 1283.18C1518 1204.62 1542.11 1126.94 1585.92 1061.06C1605.64 1031.4 1629.62 1004.6 1656.9 982.825C1684.24 960.994 1714.56 946.219 1746.95 935.26C1777.68 924.859 1809.34 916.309 1837.54 899.046C1868.55 880.069 1886.8 849.646 1904.69 817.646C1939.99 754.523 1991.82 704.935 2056.63 679.121C2063.88 676.237 2060.75 663.703 2053.42 666.623C1990.48 691.693 1936.84 738.471 1900.99 799.276C1891.41 815.536 1882.85 832.458 1872.38 848.111C1862.22 863.313 1849.57 875.874 1834.76 885.729C1806.49 904.55 1773.22 912.78 1741.81 923.41C1709.73 934.267 1679.73 949.156 1652.42 970.353C1625.26 991.43 1601.79 1017.25 1581.49 1045.77C1536.4 1109.09 1510.74 1186.04 1494.5 1263.04C1493.33 1268.59 1492.22 1274.16 1491.15 1279.74C1489.57 1287.89 1501.23 1291.37 1502.81 1283.18Z" fill="#005F61"/>
<path d="M1936.31 1150.46C1892.87 1087.47 1891.06 1005.73 1895.68 930.712C1898.43 886.26 1903.16 841.917 1902.64 797.304C1902.14 753.784 1893.29 712.131 1885.43 669.669C1880.46 642.806 1876.92 615.626 1878.65 588.191C1880.35 561.347 1888.81 535.408 1899.34 511.189C1920 463.656 1947.98 419.238 1979.67 379.384C1984.7 373.06 1976.18 363.846 1971.11 370.219C1946.52 401.148 1924.66 434.42 1905.9 469.731C1887.18 504.97 1871.11 542.428 1866.96 583.132C1862.68 625.223 1872.67 667.481 1880.57 708.39C1884.72 729.9 1888.18 751.449 1889.64 773.38C1891.11 795.524 1890.72 817.777 1889.72 839.932C1884.93 945.156 1862.65 1065.34 1925.86 1157C1930.44 1163.65 1940.95 1157.19 1936.31 1150.46Z" fill="#005F61"/>
<path d="M1845.58 398.538C1845.58 398.538 1871.34 384.98 1869.77 347.063C1868.21 309.148 1869.2 311.701 1858.44 290.444L1849.69 265C1849.69 265 1847.23 267.295 1833.33 294.137C1819.42 320.977 1809.62 338.209 1813.09 355.821C1816.57 373.433 1835.35 404.585 1838.65 407.311C1841.94 410.039 1845.58 398.538 1845.58 398.538Z" fill="#009590"/>
<path d="M1835.86 461.184C1835.86 461.184 1835.03 443.854 1825.98 420.762C1816.93 397.667 1804.93 384.302 1794.49 374.468C1784.06 364.635 1768.76 352.952 1768.76 352.952C1768.76 352.952 1769.97 403.863 1779.88 424.354C1789.8 444.844 1819.69 462.072 1835.86 461.184Z" fill="#009590"/>
<path d="M1846.08 516.963C1846.08 516.963 1839.82 491.058 1824.85 478.925C1809.89 466.792 1784.81 453.04 1771.6 450.007C1758.39 446.97 1750.07 445.709 1741.93 441.302C1741.93 441.302 1744.5 452.154 1750.16 464.418C1755.82 476.682 1759.04 488.066 1779.21 504.416C1799.39 520.769 1833.79 530.018 1846.08 516.963Z" fill="#009590"/>
<path d="M1882.13 571.002C1882.13 571.002 1861.79 546.707 1843.88 539.568C1825.98 532.428 1806.49 527.288 1789.42 531.239C1772.35 535.19 1753.17 541.805 1753.17 541.805C1753.17 541.805 1769.76 554.638 1794.5 568.008C1819.24 581.381 1867.83 580.916 1882.13 571.002Z" fill="#009590"/>
<path d="M1928.64 618.565C1928.64 618.565 1915.81 603.66 1897.22 596.131C1878.64 588.605 1856.8 590.699 1833.48 602.868C1810.16 615.03 1786.24 612.981 1786.24 612.981C1786.24 612.981 1828.3 651.767 1864.45 647.683C1900.61 643.596 1922.58 622.249 1928.64 618.565Z" fill="#009590"/>
<path d="M1928.01 639.259C1913.05 640.903 1899.1 648.631 1886.45 660.506C1873.8 672.379 1874.1 681.114 1860.88 686.189C1847.66 691.263 1838.53 696.177 1838.53 696.177C1838.53 696.177 1872.58 703.396 1899.99 702.484C1927.39 701.571 1938.02 702.022 1952.49 690.426C1966.95 678.829 1983.38 658.058 1983.38 658.058C1983.38 658.058 1942.98 637.613 1928.01 639.259Z" fill="#009590"/>
<path d="M1896.91 575.38C1896.91 575.38 1911.53 564.084 1918.18 550.951C1924.82 537.818 1927.77 528.123 1927.83 509.543C1927.89 490.954 1926.85 480.341 1927.62 477.302C1928.4 474.263 1921.87 476.871 1907 491.865C1892.14 506.861 1863.29 549.928 1896.91 575.38Z" fill="#009590"/>
<path d="M1853.46 523.533C1853.46 523.533 1876.08 506.235 1883.66 492.87C1891.24 479.507 1904.09 463.629 1902.41 449.268C1900.73 434.909 1902.67 411.927 1902.67 411.927C1902.67 411.927 1898.03 425.375 1885.59 433.747C1873.16 442.118 1861.41 450.028 1854.62 468.023C1847.83 486.018 1853.46 523.533 1853.46 523.533Z" fill="#009590"/>
<path d="M1842.87 440.139C1842.87 440.139 1886.34 415.689 1900.2 389.374C1914.06 363.058 1922.36 340.087 1922.36 340.087C1922.36 340.087 1915.68 354.468 1889.05 374.503C1862.42 394.533 1847.27 426.284 1842.87 440.139Z" fill="#009590"/>
<path d="M1840.69 394.258C1840.69 394.258 1842.28 449.531 1847.12 472.821C1851.95 496.108 1848.55 503.912 1857.33 520.062C1866.11 536.212 1872.45 545.362 1882.08 557.24C1891.72 569.119 1912.59 594.85 1920.09 604.092C1927.58 613.328 1933.47 620.589 1955.93 630.948C1978.39 641.31 2001.64 665.983 2014.68 670.063C2027.72 674.139 2051.09 688.287 2061.9 690.96C2072.72 693.627 2082.38 696.216 2087.74 702.813C2093.09 709.41 2096.11 725.129 2091.13 721.658C2086.15 718.185 2067.01 701.259 2055.13 697.267C2043.24 693.274 2015.97 676.977 2005.23 673.071C1994.5 669.168 1990.51 668.245 1977.18 659.809C1963.85 651.373 1937.35 632.032 1930.76 626.583C1924.18 621.133 1912.78 609.738 1902.61 597.202C1892.44 584.663 1877.98 566.848 1866.05 554.798C1854.11 542.751 1847.18 524.877 1843.84 514.09C1840.49 503.307 1834.4 463.81 1834.43 454.52C1834.46 445.225 1840.69 394.258 1840.69 394.258Z" fill="#097F73"/>
<path d="M1846.93 277.352C1844.56 289.251 1842.82 301.266 1841.34 313.313C1840.56 319.336 1839.99 325.382 1839.38 331.422C1838.85 337.475 1838.34 343.53 1837.96 349.598C1837.57 355.664 1837.32 361.745 1837.1 367.824L1836.96 376.954C1836.95 378.477 1836.9 379.998 1836.92 381.521L1837.01 386.089C1837.05 392.179 1837.44 398.273 1837.88 404.344L1838.88 413.425C1839.39 416.434 1839.93 419.425 1840.49 422.398C1839.56 410.279 1839.84 398.188 1840.17 386.114C1840.56 374.034 1841.17 361.958 1841.99 349.889C1842.71 337.817 1843.6 325.745 1844.46 313.661C1845.35 301.58 1846.22 289.492 1846.93 277.352Z" fill="#097F73"/>
<path d="M1912.49 356.243C1906.25 362.924 1900.54 370.107 1894.95 377.369C1892.14 381.061 1889.46 384.524 1886.41 387.824C1883.35 391.094 1880.24 394.338 1876.98 397.444L1867.28 406.933C1864.07 410.158 1860.82 413.348 1857.76 416.771C1854.69 420.181 1851.68 423.691 1849.05 427.556C1846.47 431.414 1844.03 435.541 1842.88 440.138C1844.87 435.909 1847.64 432.311 1850.58 428.906C1853.49 425.469 1856.74 422.351 1859.94 419.208C1863.22 416.127 1866.48 413.025 1869.83 409.991C1873.13 406.907 1876.44 403.808 1879.71 400.632C1882.95 397.433 1886.13 394.107 1889.18 390.636C1892.15 387.099 1895.01 383.252 1897.45 379.413C1902.56 371.777 1907.55 364.052 1912.49 356.243Z" fill="#097F73"/>
<path d="M1772.05 359.671C1772.99 360.505 1773.71 361.576 1774.41 362.632C1775.12 363.684 1775.78 364.779 1776.41 365.884C1777.68 368.104 1778.86 370.377 1779.99 372.674C1782.27 377.268 1784.37 381.961 1786.44 386.666L1792.44 400.93C1794.47 405.697 1796.54 410.457 1798.75 415.166C1800.99 419.858 1803.4 424.484 1806.02 428.979C1807.39 431.19 1808.71 433.429 1810.22 435.553C1810.96 436.612 1811.64 437.725 1812.44 438.744L1814.84 441.806C1821.24 449.906 1829.4 456.649 1838.56 460.435C1830.15 455.012 1823.05 447.897 1817.28 439.675C1811.51 431.454 1806.69 422.49 1802.35 413.206C1797.9 403.983 1793.94 394.425 1789.25 385.152C1786.91 380.523 1784.4 375.991 1781.69 371.588C1780.28 369.417 1778.88 367.247 1777.32 365.196C1775.75 363.181 1774.14 361.087 1772.05 359.671Z" fill="#097F73"/>
<path d="M1853.46 523.531C1853.49 514.336 1854.86 505.294 1857.54 496.806C1858.93 492.586 1860.58 488.485 1862.64 484.639C1864.67 480.793 1867.16 477.151 1869.76 473.634C1874.97 466.559 1880.95 460.058 1886.58 453.05C1889.39 449.56 1892.12 445.921 1894.43 441.933C1896.67 437.955 1898.57 433.511 1898.77 428.861C1897.67 433.337 1895.4 437.196 1892.8 440.72C1890.21 444.274 1887.24 447.513 1884.26 450.759C1881.23 453.972 1878.23 457.231 1875.21 460.525C1872.25 463.873 1869.33 467.304 1866.59 470.943C1863.95 474.662 1861.37 478.453 1859.3 482.671C1857.29 486.888 1855.62 491.288 1854.53 495.842C1852.3 504.918 1851.82 514.467 1853.46 523.531Z" fill="#097F73"/>
<path d="M1753.31 446.757C1752.46 447.921 1752.4 449.566 1752.66 451.003C1752.71 451.384 1752.81 451.737 1752.93 452.087C1753.05 452.436 1753.15 452.801 1753.28 453.145C1753.6 453.799 1753.86 454.506 1754.23 455.124C1755.64 457.707 1757.57 459.841 1759.52 461.901C1763.54 465.889 1767.99 469.335 1772.61 472.38C1781.81 478.558 1791.51 483.667 1801.05 488.912C1810.64 494.059 1820.05 499.426 1828.96 505.653C1837.85 511.917 1846.1 519.205 1853.74 527.364C1847.38 518.035 1839.51 509.806 1830.77 502.881C1826.41 499.4 1821.8 496.292 1817.15 493.315C1812.45 490.418 1807.68 487.678 1802.88 485.055L1788.45 477.367C1783.63 474.861 1778.9 472.183 1774.21 469.478L1770.73 467.385L1767.33 465.162C1765.08 463.657 1762.9 462.055 1760.82 460.307C1758.76 458.554 1756.75 456.69 1755.16 454.462C1754.74 453.92 1754.43 453.315 1754.05 452.735C1753.78 452.117 1753.42 451.509 1753.25 450.841C1752.83 449.558 1752.65 448.038 1753.31 446.757Z" fill="#097F73"/>
<path d="M1922.36 483.612C1917.05 489.727 1912.45 496.508 1908.27 503.561C1904.1 510.626 1900.42 518.046 1897.34 525.776C1894.32 533.518 1891.84 541.574 1890.53 549.909C1889.17 558.197 1888.99 566.848 1890.84 574.978C1890.68 566.634 1891.74 558.518 1893.62 550.605C1894.56 546.654 1895.65 542.738 1896.93 538.894C1898.16 535.031 1899.54 531.219 1901.06 527.463C1902.51 523.675 1904.12 519.953 1905.8 516.261C1907.43 512.545 1909.23 508.914 1910.99 505.252C1914.6 497.975 1918.4 490.789 1922.36 483.612Z" fill="#097F73"/>
<path d="M1887.24 571.798C1885.19 569.858 1882.94 568.175 1880.7 566.499C1878.45 564.823 1876.14 563.255 1873.82 561.689C1869.14 558.637 1864.35 555.766 1859.34 553.278C1854.35 550.762 1849.16 548.614 1843.61 547.299C1840.77 546.691 1838.03 546.373 1835.27 546.171C1832.5 545.933 1829.72 545.848 1826.96 545.84C1821.42 545.891 1815.93 546.403 1810.56 546.736C1807.87 546.921 1805.2 547.027 1802.55 546.96C1801.22 546.936 1799.91 546.832 1798.59 546.731L1794.53 546.331C1783.69 545.228 1772.83 544.279 1761.91 543.756C1772.61 546.066 1783.38 547.952 1794.17 549.687L1798.22 550.342C1799.61 550.518 1801.01 550.667 1802.4 550.753C1805.19 550.924 1807.98 550.916 1810.73 550.834C1816.24 550.613 1821.62 550.146 1826.98 550.167C1829.66 550.143 1832.33 550.192 1835 550.386C1837.67 550.531 1840.35 550.872 1842.87 551.309C1848.02 552.294 1853.09 554.273 1858.09 556.364C1863.08 558.531 1868.01 560.946 1872.87 563.538C1875.3 564.819 1877.71 566.155 1880.12 567.518C1881.33 568.193 1882.52 568.89 1883.71 569.596C1884.9 570.305 1886.12 570.98 1887.24 571.798Z" fill="#097F73"/>
<path d="M1983.99 654.746C1983.22 654.826 1982.49 654.471 1981.75 654.265L1979.53 653.529C1978.05 653.053 1976.55 652.614 1975.04 652.216C1972.02 651.416 1968.93 650.858 1965.82 650.495C1959.58 649.823 1953.21 650.106 1947.01 651.466C1945.46 651.797 1943.92 652.202 1942.41 652.659C1941.65 652.883 1940.89 653.104 1940.13 653.35L1937.89 654.167C1936.38 654.671 1934.93 655.381 1933.45 655.989C1932.01 656.708 1930.54 657.374 1929.15 658.197C1923.47 661.338 1918.51 665.555 1913.54 669.309C1908.6 673.135 1903.47 676.575 1898.01 679.31C1892.6 682.081 1886.76 684.074 1880.91 685.963C1869.14 689.594 1857.08 692.387 1844.95 694.956C1857.3 694.172 1869.6 692.305 1881.72 689.232C1887.78 687.692 1893.78 685.742 1899.61 683.032C1905.39 680.281 1910.79 676.696 1915.89 672.83C1920.94 668.906 1925.7 664.848 1930.96 661.791C1936.14 658.589 1941.91 656.474 1947.71 654.754C1953.55 653.18 1959.61 652.446 1965.7 652.607C1968.74 652.652 1971.79 652.951 1974.83 653.388C1976.36 653.604 1977.87 653.873 1979.39 654.161L1981.68 654.583C1982.44 654.682 1983.22 654.936 1983.99 654.746Z" fill="#097F73"/>
<path d="M1796.05 615.891C1796.81 617.22 1798.18 617.982 1799.45 618.684C1800.77 619.316 1802.14 619.857 1803.53 620.274C1806.31 621.149 1809.16 621.677 1812.01 622.101C1817.74 622.888 1823.47 623.176 1829.24 623.19C1835.08 623.193 1840.92 622.238 1846.56 620.679C1852.2 619.092 1857.63 616.841 1862.91 614.387C1868.16 611.884 1873.27 609.128 1878.41 606.855C1883.56 604.617 1888.8 602.789 1893.9 604.566C1896.6 605.283 1899.28 606.226 1901.95 607.213C1904.62 608.182 1907.26 609.289 1909.89 610.426C1915.16 612.679 1920.35 615.184 1925.54 617.759C1920.79 614.344 1915.81 611.311 1910.71 608.492C1905.58 605.743 1900.34 603.162 1894.76 601.318C1893.43 600.845 1891.83 600.377 1890.25 600.24C1888.67 600.131 1887.11 600.216 1885.6 600.464C1882.58 600.963 1879.75 601.959 1877.01 603.044C1871.57 605.309 1866.47 608.035 1861.28 610.426C1851.01 615.388 1840.3 619.159 1829.14 619.824C1823.51 620.099 1817.83 620.278 1812.19 619.995C1809.37 619.886 1806.55 619.622 1803.78 619.113C1802.39 618.883 1801.02 618.523 1799.67 618.083C1798.37 617.59 1796.97 617.072 1796.05 615.891Z" fill="#097F73"/>
<path d="M1720.37 856.713C1718.57 857.004 1717 858.299 1715.67 859.524C1714.54 860.573 1713.26 862.898 1712.99 864.471C1712.6 866.733 1712.47 868.126 1713.04 870.403C1713.3 871.462 1713.74 872.612 1714.33 873.549C1715.66 875.627 1716.68 877.051 1718.7 878.394C1722.91 881.186 1728.33 880.093 1731.79 876.55C1729.37 877.622 1726.96 878.694 1724.54 879.765C1725.5 879.713 1726.44 879.579 1727.38 879.362C1729.99 878.595 1732.25 876.726 1733.61 874.231C1736.49 868.976 1734.77 862.024 1729.87 858.953C1724.97 855.874 1718.48 857.716 1715.61 862.959C1714.2 865.538 1713.82 868.682 1714.56 871.563C1715.1 873.667 1715.94 874.953 1717.29 876.549C1716.41 872.989 1715.54 869.427 1714.66 865.866C1714.65 865.923 1714.63 865.977 1714.61 866.03C1714.96 865.16 1715.3 864.29 1715.64 863.42C1715.62 863.467 1715.6 863.512 1715.57 863.556C1716.1 862.821 1716.63 862.088 1717.16 861.353C1717.13 861.393 1717.11 861.429 1717.07 861.461C1717.75 860.897 1718.44 860.331 1719.12 859.766C1719.06 859.811 1719.01 859.845 1718.95 859.876C1719.75 859.513 1720.55 859.153 1721.35 858.789C1721.29 858.815 1721.22 858.83 1721.16 858.842C1722.04 858.715 1722.93 858.587 1723.81 858.46C1723.71 858.47 1723.61 858.468 1723.51 858.456C1724.39 858.582 1725.27 858.709 1726.15 858.834C1725.98 858.806 1725.81 858.754 1725.65 858.687C1726.43 859.039 1727.21 859.39 1727.98 859.743C1727.84 859.676 1727.7 859.606 1727.58 859.504C1728.23 860.043 1728.88 860.58 1729.53 861.119C1729.44 861.022 1729.36 860.923 1729.28 860.818C1729.78 861.511 1730.28 862.207 1730.78 862.901C1730.68 862.748 1730.59 862.591 1730.52 862.416C1730.84 863.234 1731.16 864.049 1731.48 864.866C1731.45 864.761 1731.42 864.66 1731.41 864.548C1731.52 865.455 1731.63 866.362 1731.75 867.269C1731.74 867.218 1731.74 867.168 1731.75 867.117C1731.63 868.023 1731.52 868.928 1731.41 869.834C1731.42 869.757 1731.43 869.692 1731.46 869.622C1731.14 870.435 1730.82 871.246 1730.5 872.059C1730.52 872.014 1730.54 871.97 1730.57 871.932C1730.07 872.619 1729.58 873.307 1729.08 873.994C1729.11 873.953 1729.15 873.914 1729.18 873.881C1728.54 874.412 1727.9 874.942 1727.26 875.472C1727.33 875.416 1727.4 875.372 1727.48 875.33C1726.73 875.672 1725.97 876.013 1725.22 876.355C1725.28 876.326 1725.35 876.303 1725.41 876.282C1730.35 874.683 1733.42 869.233 1732.03 863.801C1731.38 861.264 1729.79 859.065 1727.68 857.736C1726.92 857.396 1726.17 857.055 1725.41 856.714C1723.73 856.23 1722.05 856.23 1720.37 856.713Z" fill="#005F61"/>
<path d="M1750.71 820.605C1748.97 819.679 1747.44 819.48 1745.55 819.821C1744.21 820.063 1743.03 820.929 1742.02 821.854C1739.94 823.769 1739.02 827.196 1739.85 829.994C1740.71 832.885 1742.86 834.69 1745.47 835.603C1746.91 836.105 1748.3 835.894 1749.74 835.629C1751.19 835.364 1752.35 834.343 1753.44 833.389C1751.91 834.066 1750.39 834.742 1748.86 835.42C1750.15 835.252 1751.25 835.222 1752.36 834.368C1753.36 833.733 1754.16 832.878 1754.75 831.804C1755.6 830.255 1756.01 828.033 1755.43 826.296C1755.41 826.252 1755.4 826.208 1755.38 826.164C1754.79 824.383 1753.92 822.933 1752.36 821.952C1750.45 820.751 1747.61 820.552 1745.72 821.952C1745.69 821.977 1745.66 821.999 1745.62 822.023C1744.62 822.658 1743.82 823.513 1743.23 824.588C1742.63 825.701 1742.32 826.905 1742.32 828.197C1742.53 829.967 1742.56 830.376 1743.27 831.983C1743.05 830.202 1742.84 828.421 1742.62 826.638C1742.6 826.685 1742.59 826.733 1742.57 826.78C1742.79 826.231 1743.01 825.682 1743.22 825.133C1743.16 825.274 1743.09 825.395 1743 825.521C1743.33 825.064 1743.66 824.606 1743.99 824.148C1743.9 824.269 1743.8 824.372 1743.69 824.475C1744.11 824.127 1744.53 823.778 1744.95 823.431C1744.78 823.56 1744.62 823.664 1744.44 823.755C1744.93 823.537 1745.41 823.318 1745.89 823.098C1745.66 823.196 1745.43 823.273 1745.19 823.317C1745.71 823.241 1746.23 823.168 1746.75 823.091C1746.6 823.109 1746.47 823.116 1746.32 823.097C1746.83 823.17 1747.34 823.244 1747.85 823.318C1747.76 823.291 1747.67 823.254 1747.58 823.21C1748.04 823.416 1748.49 823.625 1748.95 823.832C1748.82 823.759 1748.7 823.683 1748.58 823.584C1748.97 823.904 1749.35 824.225 1749.74 824.545C1749.67 824.478 1749.6 824.402 1749.53 824.322C1749.83 824.736 1750.13 825.148 1750.43 825.561C1750.33 825.419 1750.25 825.282 1750.18 825.121C1750.37 825.605 1750.56 826.091 1750.75 826.576C1750.71 826.462 1750.68 826.345 1750.66 826.225C1750.73 826.763 1750.8 827.298 1750.87 827.836C1750.85 827.651 1750.85 827.484 1750.86 827.3C1750.8 827.834 1750.73 828.366 1750.66 828.902C1750.69 828.717 1750.74 828.552 1750.8 828.376C1750.61 828.854 1750.42 829.331 1750.24 829.807C1750.31 829.635 1750.4 829.479 1750.49 829.321C1750.2 829.723 1749.91 830.124 1749.62 830.526C1749.77 830.324 1749.92 830.15 1750.11 829.985C1749.74 830.292 1749.36 830.6 1748.99 830.908C1749.14 830.798 1749.28 830.706 1749.44 830.619C1749 830.817 1748.56 831.013 1748.13 831.211C1748.29 831.14 1748.44 831.09 1748.61 831.053C1748.13 831.123 1747.65 831.192 1747.16 831.261C1747.34 831.24 1747.49 831.239 1747.67 831.259C1747.19 831.19 1746.71 831.121 1746.23 831.053C1746.34 831.073 1746.46 831.106 1746.56 831.153C1748.83 831.982 1751.48 830.631 1752.65 828.5C1754.05 825.932 1753.35 822.003 1750.71 820.605Z" fill="#005F61"/>
<path d="M1715.16 838.248C1724.45 838.248 1724.45 822.814 1715.16 822.814C1705.87 822.814 1705.87 838.248 1715.16 838.248Z" fill="#005F61"/>
<path d="M1751.85 793.962C1752.62 794.71 1753.39 795.454 1754.16 796.2C1756.39 798.352 1759.75 798.561 1761.96 796.2C1762.98 795.098 1763.57 793.586 1763.57 792.026C1763.57 790.399 1762.95 789.038 1761.96 787.851C1761.26 787.025 1760.56 786.197 1759.87 785.37C1757.8 782.906 1753.94 783.121 1751.84 785.37C1749.74 787.621 1749.55 791.742 1751.85 793.962Z" fill="#005F61"/>
<path d="M1563.19 963.822C1557.64 1007.03 1552.53 1054.32 1565.34 1072.44C1577.18 1089.17 1596.34 1093.5 1616.5 1094.91C1618.44 1091.25 1620.15 1087.3 1621.56 1083C1635.09 1041.6 1608.52 1016.92 1576.22 978.686C1571.8 973.461 1567.48 968.53 1563.19 963.822ZM1599.8 1072.94C1582.91 1085.15 1600.27 1035.65 1600.27 1035.65C1615.78 1019.33 1616.68 1060.73 1599.8 1072.94Z" fill="#5AE0DC"/>
<path d="M1941.38 770.058C1903.23 751.672 1902.34 738.438 1849.86 750.701C1797.38 762.965 1801.48 788.201 1773.07 780.839C1773.07 780.839 1794.49 785.673 1796.22 824.634C1797.94 863.589 1804.74 916.047 1825.82 950.341C1846.91 984.634 1836.14 997.825 1885.67 1026.99C1935.21 1056.16 1934.37 1094.61 1967.13 1058.54C1999.89 1022.48 1981.83 992.193 2001.66 984.787C2021.5 977.379 2056.96 968.539 2068.98 932.886C2080.99 897.231 2058.23 875.662 2030.62 842.342C2003 809.017 1979.54 788.447 1941.38 770.058ZM2050.96 891.777C2064.48 877.816 2064.94 913.594 2050.25 923.995C2035.57 934.394 2050.96 891.777 2050.96 891.777ZM2004.66 841.158C2019.31 841.22 2013.62 899.569 1997.04 895.313C1980.45 891.061 1990.01 841.097 2004.66 841.158ZM1952.4 1002.03C1974.43 981.2 1980.92 1008.32 1952.1 1038.77C1923.28 1069.23 1930.38 1022.85 1952.4 1002.03ZM1953.53 936.141C1982.18 952.791 1919.94 988.935 1889.07 992.78C1858.19 996.627 1854.36 977.783 1854.36 977.783C1854.04 959.159 1924.88 919.492 1953.53 936.141ZM1915.59 896.232C1920.04 909.013 1897.77 909.337 1884.68 910.537C1871.59 911.741 1867.66 919.045 1851.03 925.249C1834.41 931.457 1828.2 921.179 1828.2 921.179C1835.34 890.246 1911.15 883.45 1915.59 896.232ZM1876.51 847.527C1879.8 856.747 1860.86 855.832 1842.47 864.54C1824.08 873.25 1821.36 868.43 1821.36 868.43C1817.9 852.513 1873.23 838.308 1876.51 847.527ZM2037.26 952.812C2035.64 967.24 1994.61 973.345 2000.32 958.305C2006.04 943.264 2038.87 938.385 2037.26 952.812ZM1877.82 809.244C1862.59 810.017 1841.02 778.125 1841.02 778.125C1835.4 767.011 1867.07 758.568 1886.19 766.179C1905.3 773.79 1893.06 808.471 1877.82 809.244ZM1964.57 800.819C1974.47 818.019 1955.19 857.482 1940.94 855.119C1926.69 852.757 1937.46 790.662 1937.46 790.662C1941.79 781.056 1954.67 783.623 1964.57 800.819Z" fill="#5AE0DC"/>
<path opacity="0.39" d="M1825.43 814.74C1828.76 825.836 1830.35 839.921 1831.35 855.034C1824.68 858.939 1820.31 863.602 1821.36 868.43C1821.36 868.43 1822.98 871.282 1832.12 868.619C1832.8 882.537 1833.29 896.816 1834.42 910.061C1831.34 913.347 1829.15 917.047 1828.2 921.18C1828.2 921.18 1830.58 925.11 1836.33 926.644C1839.53 947.599 1845.76 963.604 1859.36 967.383C1856.15 971.182 1854.3 974.762 1854.36 977.784C1854.36 977.784 1858.19 996.63 1889.07 992.782C1898.72 991.581 1911.44 987.22 1923.49 981.284C1928.79 986.7 1932.32 995.06 1933.8 1008.29C1934.5 1014.54 1935.21 1021.12 1936.06 1027.77C1931.52 1040.25 1931.87 1050.76 1939.32 1048.54C1941.05 1057.35 1943.28 1065.77 1946.33 1073.1C1931.17 1074.55 1921.86 1048.3 1885.67 1026.99C1836.14 997.825 1846.91 984.634 1825.82 950.341C1804.74 916.047 1797.94 863.588 1796.22 824.634C1795.59 810.476 1792.36 800.842 1788.5 794.293C1803.18 790.432 1818.79 792.64 1825.43 814.74Z" fill="#00A9A1"/>
<path opacity="0.39" d="M1895.52 787.293C1904.03 832.798 1913.13 884.641 1949.26 886.292C1994.12 888.344 1990.33 843.048 1994.64 804.584C1979.27 791.192 1962.6 780.284 1941.38 770.059C1914.97 757.331 1906.41 747.076 1886.23 746.038C1888.53 753.329 1890.48 761.698 1892.31 770.661C1895.78 774.995 1896.56 781.152 1895.52 787.293ZM1937.46 790.663C1941.79 781.057 1954.67 783.623 1964.57 800.82C1974.47 818.019 1955.18 857.483 1940.94 855.12C1926.69 852.758 1937.46 790.663 1937.46 790.663Z" fill="#00A9A1"/>
<path d="M1953.53 936.14C1942.21 929.565 1924.32 931.791 1906.82 938.018C1922.24 923.828 1953.34 913.085 1970.78 922.783C1985.62 931.032 1973.97 947.305 1955.68 958.286C1962.47 950 1963.44 941.903 1953.53 936.14Z" fill="#00A39D"/>
<path d="M1813.26 823.826C1836.39 845.347 1810.33 867.831 1810.89 888.81C1811.46 909.786 1819.81 930.148 1830.84 942.509C1841.87 954.872 1838.87 966.353 1843.12 978.82C1847.38 991.286 1885.51 1003.22 1905.73 1008.28C1925.94 1013.34 1919.21 1023.39 1919.87 1051.63C1919.89 1052.63 1919.95 1053.62 1920.01 1054.59C1911.8 1046.2 1901.21 1036.14 1885.67 1026.99C1836.14 997.822 1846.91 984.632 1825.82 950.338C1804.74 916.045 1797.94 863.585 1796.22 824.631C1796.05 820.838 1795.69 817.374 1795.19 814.205C1801.58 815.813 1807.84 818.777 1813.26 823.826Z" fill="#00A39D"/>
<path d="M1941.38 770.059C1979.54 788.448 2003 809.018 2030.62 842.342C2058.23 875.665 2080.99 897.232 2068.97 932.885C2068.47 934.372 2067.92 935.793 2067.34 937.185C2069.22 929.02 2069.64 922.169 2066.91 919.448C2063.92 916.47 2060.42 916.182 2056.65 916.452C2064.35 902.433 2062.08 880.299 2050.95 891.779C2050.95 891.779 2045.59 906.63 2044.22 916.661C2040.58 915.83 2036.95 913.617 2033.52 908.432C2022.34 891.498 2031.53 836.352 2010.03 832.608C1988.53 828.866 1996.93 859.171 1971.55 836.787C1968.73 834.295 1966.3 831.838 1964.16 829.414C1967.73 819.116 1968.71 808.021 1964.57 800.823C1955.5 785.065 1943.94 781.625 1938.74 788.546C1935.48 784.569 1931.4 780.662 1925.9 776.827C1913.11 767.909 1900.9 768.855 1890.02 768.405C1888.91 767.529 1887.65 766.767 1886.18 766.182C1881.79 764.433 1876.73 763.539 1871.61 763.325C1867.91 760.66 1864.51 756.588 1861.47 750.274C1861.18 749.65 1860.92 749.028 1860.69 748.404C1902.65 740.446 1906.06 753.038 1941.38 770.059Z" fill="#00A39D"/>
<path d="M1993.14 991.31C1997.95 978.254 1998.92 963.561 1996.44 949.511C1995.13 942.479 1992.79 935.676 1989.75 929.26C1988.94 927.681 1988.18 926.07 1987.33 924.514L1984.6 920.03C1983.71 918.504 1982.7 917.093 1981.71 915.663C1980.71 914.241 1979.75 912.779 1978.72 911.392C1962.06 889.204 1941.67 871.015 1920.55 854.334C1909.86 846.105 1899.01 838.256 1887.54 831.128C1876.01 824.245 1864.3 817.967 1852.4 812.109C1840.53 806.195 1828.5 800.667 1816.35 795.455C1810.26 792.899 1804.15 790.386 1797.96 788.094C1794.86 786.96 1791.76 785.84 1788.61 784.847C1787.04 784.362 1785.45 783.901 1783.86 783.492C1782.26 783.122 1780.65 782.692 1779 782.684C1780.63 782.873 1782.17 783.481 1783.71 784.024C1785.25 784.6 1786.76 785.232 1788.27 785.888C1791.3 787.172 1794.29 788.564 1797.27 789.977C1803.22 792.819 1809.14 795.718 1815.02 798.741C1826.8 804.703 1838.47 810.917 1850.07 817.234C1861.61 823.655 1873.21 830.023 1884.3 837.106C1895.32 844.193 1906.1 852.042 1916.54 860.236C1927.05 868.359 1937.27 876.915 1947.06 885.978C1956.87 894.99 1966.18 904.617 1974.62 914.989C1975.67 916.288 1976.64 917.652 1977.66 918.978C1978.66 920.315 1979.69 921.635 1980.58 923.051L1983.36 927.226L1985.85 931.554C1989.03 937.406 1991.57 943.703 1993.19 950.31C1996.44 963.517 1996.51 977.799 1993.14 991.31Z" fill="#006A41"/>
<path d="M1834.24 1138.78C1843.96 1117.22 1825.16 1088.39 1822.2 1076.05C1819.23 1063.72 1845.42 1060.66 1832.75 1021.7C1820.07 982.742 1798.32 967.335 1759.94 945.816C1721.57 924.298 1722.63 933.982 1685.96 924.149C1649.3 914.313 1616.38 928.848 1616.38 928.848C1631.55 943.347 1631.53 965.764 1635.8 982.093C1640.07 998.425 1649.08 1019.71 1668.57 1053.88C1688.05 1088.05 1688.34 1085.71 1706.48 1112.54C1724.63 1139.38 1735.25 1139.89 1761.98 1154.56C1788.72 1169.22 1824.52 1160.33 1834.24 1138.78ZM1661.72 933.204C1660.85 914.479 1705.36 951.632 1700.51 962.41C1695.65 973.189 1662.58 951.926 1661.72 933.204ZM1727 944.609C1732.13 936.12 1746.37 944.883 1754.43 961.587C1762.5 978.292 1766.45 1001.23 1754.83 992.423C1743.2 983.621 1721.87 953.092 1727 944.609ZM1660.96 1020.87C1650.84 986.557 1718.56 982.555 1725.24 1015.91C1731.91 1049.27 1671.08 1055.18 1660.96 1020.87ZM1790.81 981.802C1798.04 974.404 1807.77 998.937 1803.97 1008.81C1800.17 1018.67 1783.57 989.197 1790.81 981.802ZM1822.87 1018.52C1830.06 1025.5 1830.08 1045.72 1820.5 1044.02C1810.92 1042.32 1815.67 1011.53 1822.87 1018.52ZM1718.74 1069.88C1710.09 1052.94 1753.68 1042.26 1755.43 1057.29C1757.19 1072.32 1727.39 1086.81 1718.74 1069.88ZM1763.64 1137.14C1763.64 1137.14 1766.35 1129.4 1777.32 1108.49C1788.3 1087.59 1783.25 1059.23 1797.74 1068.38C1812.22 1077.54 1809.24 1113.38 1796.31 1128.29C1783.39 1143.2 1766.41 1158.51 1763.64 1137.14Z" fill="#005F61"/>
<path d="M1726.77 1079.97C1740.63 1099.61 1777.46 1065.84 1774.09 1046.29C1772.29 1035.86 1755.01 1040.55 1741.38 1050.18C1748.58 1049.76 1754.79 1051.81 1755.43 1057.3C1756.88 1069.69 1736.86 1081.71 1724.95 1076.03C1725.28 1077.39 1725.87 1078.71 1726.77 1079.97Z" fill="#097F73"/>
<path d="M1706.48 1112.54C1724.63 1139.38 1735.25 1139.89 1761.98 1154.56C1788.72 1169.22 1824.52 1160.33 1834.24 1138.78C1834.61 1137.96 1834.92 1137.13 1835.21 1136.3C1825.69 1136.8 1816.45 1137.96 1812.17 1135.75C1801.5 1130.23 1826.14 1113.9 1813.52 1085.34C1811.48 1080.75 1808.44 1078.26 1804.62 1077.27C1810.52 1091.7 1806.52 1116.52 1796.32 1128.29C1783.39 1143.2 1766.41 1158.51 1763.64 1137.13C1763.64 1137.13 1766.35 1129.4 1777.32 1108.49C1782.25 1099.12 1783.95 1088.26 1785.63 1079.94C1764.42 1087.55 1736.32 1105.66 1714.98 1099.56C1685.57 1091.15 1707.08 1070.73 1704.43 1043.02C1687.78 1046.55 1666.58 1039.9 1660.96 1020.87C1658.31 1011.86 1661.02 1004.95 1666.59 1000.24C1661.73 998.243 1656.1 995.199 1649.32 989.801C1620.87 967.152 1644.4 967.869 1634.84 945.301C1631.86 938.258 1625.35 932.652 1617.8 928.267C1616.87 928.627 1616.38 928.846 1616.38 928.846C1631.56 943.345 1631.53 965.762 1635.8 982.091C1640.07 998.423 1649.08 1019.7 1668.57 1053.88C1688.05 1088.05 1688.34 1085.71 1706.48 1112.54Z" fill="#097F73"/>
<path d="M1616.38 928.849C1619.03 928.756 1621.69 929.059 1624.33 929.481C1626.96 929.972 1629.57 930.623 1632.14 931.46C1637.28 933.112 1642.22 935.508 1646.91 938.377C1651.57 941.302 1655.97 944.723 1660.08 948.515C1664.08 952.165 1667.99 955.84 1672.15 959.243C1680.4 966.101 1688.95 972.531 1697.87 978.259C1706.79 983.949 1715.98 989.189 1725.6 993.087L1729.2 994.57L1732.84 995.88C1734.05 996.344 1735.28 996.709 1736.51 997.072L1740.27 998.209C1745.69 999.799 1750.77 1002.03 1755.62 1004.62C1760.48 1007.23 1765.15 1010.13 1769.67 1013.23C1774.21 1016.31 1778.58 1019.65 1782.8 1023.19C1791.27 1030.21 1799.18 1038 1806.26 1046.61C1809.75 1050.96 1813.05 1055.5 1815.86 1060.39C1817.29 1062.81 1818.53 1065.36 1819.67 1067.95C1820.73 1070.58 1821.62 1073.29 1822.19 1076.06C1820.33 1070.74 1817.43 1066.01 1814.22 1061.61C1810.99 1057.21 1807.46 1053.08 1803.68 1049.23C1799.94 1045.33 1796.01 1041.63 1791.95 1038.13C1787.89 1034.63 1783.75 1031.23 1779.46 1028.05C1770.88 1021.75 1762.01 1015.83 1752.66 1011.23C1748.01 1008.92 1743.27 1006.84 1738.47 1005.52C1733.35 1004.07 1727.98 1002.46 1722.98 1000.29C1720.44 999.272 1718 998.04 1715.52 996.889C1713.09 995.627 1710.63 994.44 1708.26 993.064C1703.46 990.438 1698.82 987.528 1694.28 984.473C1689.79 981.322 1685.34 978.125 1681.07 974.664C1678.9 972.984 1676.82 971.185 1674.71 969.421C1672.66 967.577 1670.58 965.788 1668.58 963.883C1664.53 960.155 1660.63 956.21 1656.86 952.2C1653.22 948.302 1649.26 944.744 1645.02 941.572C1640.81 938.365 1636.25 935.661 1631.46 933.467C1626.66 931.316 1621.63 929.526 1616.38 928.849Z" fill="#097F73"/>
<path d="M1759.94 945.818C1773.56 959.08 1777.38 981.474 1790.28 994.657C1788.65 989.429 1788.34 984.33 1790.81 981.804C1797.11 975.356 1805.32 993.182 1804.8 1004.39C1815.61 1009.47 1818.75 1007.02 1822.87 1018.52C1829.22 1024.69 1829.97 1041.16 1823.46 1043.76C1823.52 1050.3 1824.77 1056.35 1830.04 1060.44C1835.13 1053.23 1839.57 1042.67 1832.74 1021.7C1820.07 982.744 1798.32 967.337 1759.94 945.818Z" fill="#097F73"/>
<path d="M1663.97 928.321C1665.66 927.654 1668.17 928.136 1671.11 929.426C1672.34 929.54 1673.59 929.624 1674.86 929.655C1698.97 930.26 1698.83 936.714 1715.64 942.444C1720.1 943.962 1724.21 943.847 1728.14 943.146C1729.85 941.455 1732.14 940.993 1734.73 941.564C1739.32 940.3 1743.76 939.054 1748.35 939.662C1721.35 926.258 1718.48 932.872 1685.96 924.152C1671.61 920.306 1657.85 920.194 1646.4 921.476C1651.04 924.129 1656.98 926.781 1663.97 928.321Z" fill="#097F73"/>
</g>
<defs>
<clipPath id="clip0_341_769">
<rect width="1920" height="1080" fill="white"/>
</clipPath>
</defs>
</svg>
