<svg width="1920" height="1080" viewBox="0 0 1920 1080" fill="none" xmlns="http://www.w3.org/2000/svg">
<g clip-path="url(#clip0_342_932)">
<rect width="1920" height="1080" fill="white"/>
<path opacity="0.39" d="M779.986 -6.99826C779.986 -6.99826 782.679 126.291 712.16 126.127C641.634 125.96 655.74 -10.3776 561.711 -2.35606C467.681 5.66196 514.66 143.773 371.3 139.091C287.918 136.363 200.835 69.2958 126.192 149.014C90.622 187.005 60.1251 317.969 0 288.799C0 168.386 0 -7 0 -7L779.986 -6.99826Z" fill="#00A9A1" fill-opacity="0.5"/>
<path d="M1304.1 0H1802.85C1872.86 0 1920.41 0 1920.41 0V482.93C1920.41 482.93 1730.69 504.18 1732.41 289.171C1734.14 74.164 1604.78 241.087 1490.95 191.258C1413.59 157.399 1454.11 82.565 1400.21 37.236C1374.78 15.87 1300.85 39.568 1304.1 0Z" fill="#5AE0DC"/>
<path opacity="0.39" d="M1770 104.469C1774.55 79.511 1791.33 53.245 1802.85 0C1872.86 0 1920.41 0 1920.41 0V234.084C1920.33 234.101 1920.22 234.101 1920.12 234.118C1877.45 238.258 1824.72 211.336 1796.13 182.015C1773.77 159.108 1762.91 132.738 1770 104.469Z" fill="#00A9A1"/>
<path opacity="0.39" d="M231.702 893.629C161.061 845.805 146.005 764.42 159.452 714.502C171.739 661.852 212.522 640.662 226.83 650.229C244.526 659.536 250.98 689.575 264.495 713.571C277.035 738.79 296.632 757.967 317.885 773.94C339.774 789.028 364.175 801.536 392.074 805.424C419.111 810.637 449.648 807.229 464.087 821.067C477.692 831.594 470.534 876.999 424.5 905.348C381.424 933.928 299.464 945.459 231.702 893.629Z" fill="#00A9A1"/>
<path d="M1136.98 1138C1136.98 1138 1140.89 944.73 1038.54 944.972C936.195 945.211 956.663 1142.9 820.2 1131.27C683.737 1119.65 751.914 919.383 543.858 926.173C422.849 930.122 296.469 1027.37 188.139 911.782C136.519 856.695 92.2563 666.793 5 709.091C5 883.695 5 1138 5 1138H1136.98Z" fill="#BEDD07"/>
<path d="M455.511 59.8892C455.511 59.8892 388.947 46.1002 322.972 68.1912C257 90.2782 137.807 33.0522 81.1751 -26.8438C24.5441 -86.7368 20.0971 -179.543 39.3691 -178.654C58.6421 -177.764 92.7411 -174.206 116.607 -155.377C140.476 -136.548 159.897 -115.94 165.086 -96.5198C165.086 -96.5198 125.206 -60.7928 136.325 -60.9408C147.444 -61.0868 161.381 -90.7388 171.61 -80.2148C181.839 -69.6878 229.279 -37.0718 247.217 -33.0688C247.217 -33.0688 211.192 -0.600827 222.756 -1.78783C234.319 -2.97383 256.261 -25.5098 259.967 -22.6918C263.675 -19.8748 311.706 -2.97282 311.706 -2.97282C311.706 -2.97282 283.686 28.0112 291.691 26.5302C299.697 25.0472 327.422 6.22118 327.422 6.22118C327.422 6.22118 426.603 32.7582 455.511 59.8892Z" fill="#009590"/>
<path opacity="0.39" d="M38.7705 -178.635C20.2005 -177.57 25.1425 -86.1028 81.1755 -26.8428C137.807 33.0532 257 90.2792 322.972 68.1922C388.946 46.1012 455.511 59.8902 455.511 59.8902C455.29 59.6842 455.054 59.4782 454.827 59.2722C445.243 55.5302 397.147 37.1552 352.672 27.3952C339.326 24.4662 325.598 20.6742 311.943 16.1972C304.17 20.9722 295.593 25.8092 291.692 26.5332C287.594 27.2902 292.942 19.5392 299.136 11.7892C279.567 4.72825 260.451 -3.66277 243.155 -12.8938C236.054 -7.70977 228.24 -2.34576 222.756 -1.78476C216.52 -1.14476 224.122 -10.2888 232.45 -18.8528C224.903 -23.2338 217.79 -27.7698 211.261 -32.4128C175.892 -57.5708 167.768 -49.5998 153.709 -73.9828C147.748 -67.9888 141.705 -61.0098 136.325 -60.9388C130.116 -60.8558 139.81 -71.9608 149.583 -81.7848C137.13 -107.512 137.754 -127.892 96.8595 -158.971C80.6445 -171.297 59.2335 -176.698 38.7705 -178.635Z" fill="#00A9A1"/>
<path d="M455.113 59.3457C456.029 59.7287 456.549 59.9497 456.549 59.9497C456.14 59.7427 455.648 59.5427 455.113 59.3457Z" fill="#08B859"/>
<path d="M108.953 -7.17267C181.066 51.6813 262.03 83.5343 322.972 68.1903C381.736 53.3943 440.694 54.0683 455.112 59.3433C447.759 56.2843 413.251 42.3933 389.15 40.6323C362.048 38.6563 345.183 35.2833 345.183 35.2833L315.292 53.3123L334.135 29.5853C334.135 29.5853 292.844 22.4873 268.302 10.0443C266.677 9.22033 265.121 8.39833 263.619 7.57733C254.1 15.2103 228.232 34.1833 205.665 34.7223C205.665 34.7223 239.673 20.1913 256.633 3.54933C239.987 -6.57767 229.957 -16.5367 209.332 -27.7597C184.325 -41.3687 184.325 -41.3687 184.325 -41.3687C184.325 -41.3687 140.475 -17.7587 144.429 -24.7357C148.382 -31.7147 166.529 -47.0677 166.529 -47.0677C166.529 -47.0677 153.619 -43.9297 142.453 -65.0957C135.286 -78.6817 134.242 -96.3867 127.473 -113.108C117.226 -107.635 93.9192 -97.8787 69.3692 -106.016C69.3692 -106.016 103.353 -112.817 120.204 -126.768C117.163 -131.168 113.431 -135.39 108.722 -139.305C82.4352 -161.172 31.6062 -181.994 25.9072 -170.944C20.2082 -159.895 36.8401 -66.0297 108.953 -7.17267Z" fill="#16B4AE"/>
<g opacity="0.39">
<path d="M25.9072 -170.943C20.2082 -159.894 36.8401 -66.0291 108.953 -7.17209C181.066 51.6819 262.03 83.5349 322.972 68.1909C346.078 62.3739 369.203 58.9559 389.649 57.2599C384.062 54.3929 378.981 50.2359 373 48.2189C360.098 43.8649 346.351 50.1739 333.606 54.9699C320.858 59.7649 304.8 62.4999 295.023 53.0169C292.465 50.5359 290.611 47.4179 288.175 44.8149C280.441 36.5489 267.953 34.6239 256.693 35.7839C245.435 36.9469 234.55 40.6669 223.283 41.7449C213.702 42.6609 201.469 39.4989 199.935 29.9989C198.666 22.1299 205.902 14.2259 203.23 6.71591C202.313 4.14091 200.326 2.08291 198.183 0.383911C175.754 -17.3861 137.033 -2.0451 117.578 -23.0251C115.616 -25.1421 113.932 -27.6301 113.335 -30.4531C112.544 -34.1771 113.703 -37.9951 114.586 -41.7001C116.699 -50.5571 117.05 -60.6081 111.771 -68.0271C105.222 -77.2291 92.7132 -79.1991 81.9162 -82.5111C71.1182 -85.8241 59.2922 -94.1251 60.8322 -105.312C62.1452 -114.865 72.6942 -120.714 75.2502 -130.012C77.1542 -136.933 74.0822 -144.468 69.1432 -149.676C64.2042 -154.886 57.6352 -158.196 51.1502 -161.272C43.1442 -165.07 34.6042 -168.679 25.9392 -170.996C25.9302 -170.978 25.9162 -170.96 25.9072 -170.943Z" fill="#00A9A1"/>
</g>
<path d="M456.549 59.9488C456.549 59.9488 394.598 54.4488 315.26 70.4058C230.425 87.4648 106.113 19.0878 61.304 -51.4652C16.961 -121.285 14.909 -216.161 20.097 -222.535C25.285 -228.911 35.366 -220.903 35.366 -220.903C35.366 -220.903 12.008 -123.408 87.846 -33.8092C87.846 -33.8092 197.498 87.6028 330.829 61.4408C422.584 43.4398 456.549 59.9488 456.549 59.9488Z" fill="#009E97"/>
<path opacity="0.39" d="M212.708 14.8017C209.838 7.6217 225.905 -4.2483 234.683 0.888698C243.462 6.0237 215.579 21.9797 212.708 14.8017Z" fill="#00A9A1"/>
<path d="M30.5349 197.318C-7.8661 210.23 -48.5821 247.349 -48.5821 247.349C-15.2801 245.486 23.4989 217.908 36.4719 205.994C12.2619 238.99 -10.3211 294.888 -10.3211 294.888C18.1319 282.829 36.3789 234.986 42.5889 215.009C36.5729 254.173 57.6689 323.353 57.6689 323.353C80.2409 290.845 55.7079 214.435 55.7079 214.435L56.0369 212.706C71.3429 277.862 133.572 312.026 133.572 312.026C130.627 264.003 59.3609 206.553 59.3609 206.553L62.3159 204.129C99.3999 255.529 182.759 247.731 182.759 247.731C149.922 212.399 64.9359 198.581 64.9359 198.581L65.3619 197.183C65.3619 197.183 94.1119 199.134 114.933 197.746C135.755 196.357 169.322 175.564 169.322 175.564C169.322 175.564 141.703 165.39 113.606 165.263C85.5079 165.14 57.6989 181.127 57.6989 181.127C57.6989 181.127 95.0839 156.802 107.459 141.585C119.837 126.365 123.259 110.53 123.259 110.53C123.259 110.53 98.9139 107.327 79.6529 119.741C60.3919 132.159 45.8819 181.693 45.8819 181.693C45.8819 181.693 47.8439 157.173 44.4999 126.609C41.1579 96.0487 23.8589 84.1446 23.8589 84.1446C0.661901 120.266 38.1219 182.758 38.1219 182.758C-30.6951 122.389 -43.7431 48.8596 -44.0041 38.8107C-44.1511 33.1037 -53.0711 40.5926 -53.0711 40.5926C-59.2341 97.8506 36.2759 185.058 36.2759 185.058C3.70689 176.533 -60.0791 181.243 -60.0791 181.243C-24.9431 206.728 30.5349 197.318 30.5349 197.318Z" fill="#5AE0DC"/>
<path d="M281.092 156.504C281.092 156.504 293.574 143.707 314.221 151.493C334.87 159.277 333.651 158.229 343.313 168.441L355.677 178.22C355.677 178.22 353.933 179.262 336.407 182.639C318.883 186.016 307.46 188.703 298.403 183.46C289.344 178.217 275.77 161.467 274.9 159.023C274.032 156.583 281.092 156.504 281.092 156.504Z" fill="#5AE0DC"/>
<path d="M244.594 150.93C244.594 150.93 254.008 154.557 265.015 164.092C276.022 173.629 281.081 183.148 284.493 191.103C287.906 199.058 291.396 210.223 291.396 210.223C291.396 210.223 263.499 200.302 254.097 190.729C244.699 181.155 240.967 160.345 244.594 150.93Z" fill="#5AE0DC"/>
<path d="M215.751 134.793C215.751 134.793 228.853 143.186 232.656 154.237C236.463 165.291 239.203 182.621 238.321 190.991C237.438 199.358 236.525 204.51 237.383 210.127C237.383 210.127 231.884 206.643 226.203 201.074C220.523 195.504 214.859 191.541 209.73 176.642C204.602 161.744 206.155 139.709 215.751 134.793Z" fill="#5AE0DC"/>
<path d="M192.877 103.68C192.877 103.68 202.357 120.119 202.833 132.006C203.311 143.894 202.375 156.361 196.885 165.753C191.395 175.141 184.024 185.303 184.024 185.303C184.024 185.303 180.148 173.159 177.551 156.097C174.955 139.033 184.627 110.357 192.877 103.68Z" fill="#5AE0DC"/>
<path d="M175.606 67.5469C175.606 67.5469 181.355 77.8379 181.913 90.2029C182.472 102.567 177.083 115.117 165.846 126.719C154.606 138.321 151.105 152.852 151.105 152.852C151.105 152.852 137.817 120.943 147.081 100.279C156.343 79.6169 172.393 70.4729 175.606 67.5469Z" fill="#5AE0DC"/>
<path d="M164.046 64.1798C160.239 72.7428 153.269 79.5958 144.255 84.9408C135.241 90.2838 130.472 88.5248 125.108 95.4318C119.745 102.335 115.259 106.858 115.259 106.858C115.259 106.858 117.868 85.3938 123.682 69.3358C129.496 53.2788 131.306 46.9028 140.516 40.4418C149.724 33.9798 164.386 28.0098 164.386 28.0098C164.386 28.0098 167.855 55.6168 164.046 64.1798Z" fill="#5AE0DC"/>
<path d="M172.504 34.4909C172.504 34.4909 179.74 33.7139 191.245 35.1239C202.748 36.5339 207.195 35.0579 217.297 42.0449C227.399 49.0299 230.179 55.6599 234.447 57.8449C238.716 60.0299 246.118 64.4869 246.118 64.4869C246.118 64.4869 241.318 70.3179 223.797 70.7299C206.276 71.1459 193.72 73.9149 185.888 63.7939C178.057 53.6729 169.015 36.5789 169.015 36.5789L172.504 34.4909Z" fill="#5AE0DC"/>
<path d="M193.318 94.1424C193.318 94.1424 202.394 87.5274 210.936 85.9704C219.48 84.4124 225.408 84.4214 235.689 87.7484C245.969 91.0714 251.632 93.6084 253.464 93.6974C255.293 93.7854 252.586 97.1824 241.422 103.27C230.257 109.356 200.87 118.644 193.318 94.1424Z" fill="#5AE0DC"/>
<path d="M213.55 129.242C213.55 129.242 227.491 118.98 236.343 116.907C245.197 114.838 256.459 110.104 264.07 113.693C271.678 117.281 284.755 120.293 284.755 120.293C284.755 120.293 276.424 120.608 269.388 126.455C262.352 132.302 255.706 137.824 244.448 138.589C233.19 139.354 213.55 129.242 213.55 129.242Z" fill="#5AE0DC"/>
<path d="M257.581 150.584C257.581 150.584 279.513 129.272 296.737 125.829C313.962 122.388 328.264 121.627 328.264 121.627C328.264 121.627 319.023 122.978 302.796 135.119C286.568 147.26 266.087 150.49 257.581 150.584Z" fill="#5AE0DC"/>
<path d="M282.508 160.176C282.508 160.176 252.276 149.242 240.343 142.165C228.412 135.088 223.442 135.692 216.218 127.576C208.995 119.46 205.166 114.052 200.47 106.201C195.773 98.3486 185.597 81.3396 181.946 75.2336C178.293 69.1256 175.422 64.3266 174.048 49.1596C172.674 33.9896 163.545 15.7616 163.819 7.30659C164.09 -1.14841 160.799 -17.5394 161.419 -24.4254C162.038 -31.3084 162.483 -37.4974 159.874 -41.8594C157.264 -46.2234 149.164 -50.8534 150.119 -47.2764C151.073 -43.7034 156.72 -29.3124 156.623 -21.5554C156.524 -13.7984 160.247 5.29559 160.324 12.3576C160.403 19.4176 160.137 21.9466 162.218 31.3606C164.297 40.7786 169.85 59.9606 171.586 64.8436C173.324 69.7286 177.409 78.5386 182.365 86.8256C187.323 95.1126 194.367 106.888 198.714 116.135C203.06 125.379 211.592 132.713 216.904 136.642C222.217 140.571 242.859 151.32 248.001 152.984C253.14 154.648 282.508 160.176 282.508 160.176Z" fill="#00A39D"/>
<path d="M348.318 177.62C341.283 176.872 334.306 175.733 327.363 174.429C323.885 173.799 320.435 173.043 316.977 172.312C313.53 171.532 310.087 170.737 306.659 169.869C303.232 168.998 299.826 168.047 296.422 167.081L291.35 165.512C290.508 165.241 289.656 164.997 288.82 164.708L286.313 163.828C282.957 162.704 279.665 161.37 276.395 160.013L271.57 157.779C270.006 156.937 268.457 156.074 266.923 155.207C273.439 157.947 280.175 159.967 286.912 161.957C293.661 163.906 300.451 165.734 307.279 167.433C314.092 169.188 320.933 170.842 327.778 172.517C334.622 174.179 341.471 175.849 348.318 177.62Z" fill="#00A39D"/>
<path d="M317.425 124.549C312.525 127.037 307.451 129.115 302.355 131.111C299.771 132.106 297.338 133.065 294.923 134.275C292.523 135.497 290.129 136.748 287.778 138.12L280.657 142.147C278.255 143.456 275.862 144.805 273.377 146C270.897 147.205 268.375 148.347 265.732 149.207C263.099 150.034 260.347 150.732 257.583 150.585C260.304 150.17 262.831 149.177 265.28 148.055C267.743 146.955 270.095 145.597 272.453 144.267C274.788 142.886 277.137 141.514 279.462 140.083C281.806 138.685 284.159 137.289 286.545 135.926C288.941 134.584 291.396 133.309 293.903 132.129C296.434 131.01 299.114 130.015 301.707 129.265C306.917 127.62 312.153 126.066 317.425 124.549Z" fill="#00A39D"/>
<path d="M288.323 207.06C288.042 206.353 287.594 205.736 287.144 205.128C286.701 204.517 286.221 203.933 285.735 203.357C284.753 202.207 283.726 201.095 282.677 200.009C280.581 197.83 278.394 195.738 276.194 193.658L269.476 187.53C267.234 185.469 265.004 183.385 262.829 181.221C260.673 179.045 258.583 176.784 256.607 174.42C255.647 173.211 254.671 172.019 253.789 170.747C253.345 170.114 252.864 169.511 252.454 168.851L251.227 166.881C247.991 161.623 245.844 155.576 245.528 149.471C246.898 155.43 249.453 160.917 252.88 165.818C256.304 170.723 260.322 175.2 264.612 179.442C268.846 183.742 273.359 187.816 277.575 192.273C279.681 194.494 281.7 196.798 283.604 199.201C284.533 200.426 285.461 201.647 286.292 202.939C287.098 204.24 287.946 205.568 288.323 207.06Z" fill="#00A39D"/>
<path d="M213.55 129.242C218.637 130.882 223.899 131.703 229.107 131.656C231.709 131.597 234.294 131.365 236.819 130.838C239.338 130.332 241.831 129.52 244.279 128.615C249.197 126.81 253.951 124.444 258.912 122.384C261.385 121.344 263.925 120.385 266.574 119.745C269.208 119.136 272.031 118.815 274.64 119.539C271.953 119.381 269.382 120.025 266.93 120.929C264.465 121.819 262.101 122.993 259.729 124.17C257.367 125.377 254.984 126.566 252.579 127.756C250.156 128.907 247.695 130.014 245.154 130.974C242.588 131.869 239.992 132.71 237.261 133.173C234.54 133.597 231.788 133.791 229.059 133.614C223.612 133.289 218.243 131.847 213.55 129.242Z" fill="#00A39D"/>
<path d="M236.571 202.406C235.764 202.695 234.843 202.435 234.098 202.017C233.898 201.922 233.721 201.8 233.553 201.663C233.382 201.53 233.199 201.407 233.036 201.267C232.737 200.959 232.398 200.677 232.126 200.341C230.972 199.043 230.166 197.515 229.407 195.987C227.983 192.883 226.94 189.632 226.154 186.342C224.52 179.784 223.579 173.113 222.526 166.521C221.542 159.913 220.397 153.374 218.684 146.971C216.943 140.576 214.515 134.377 211.488 128.377C215.412 133.829 218.434 139.976 220.566 146.402C221.644 149.613 222.471 152.899 223.214 156.193C223.905 159.497 224.493 162.82 225.013 166.134L226.465 176.068C226.916 179.374 227.478 182.656 228.066 185.923L228.549 188.361L229.12 190.775C229.515 192.38 229.978 193.963 230.541 195.509C231.108 197.042 231.751 198.573 232.674 199.912C232.891 200.261 233.168 200.554 233.414 200.882C233.702 201.155 233.968 201.48 234.304 201.696C234.931 202.185 235.736 202.564 236.571 202.406Z" fill="#00A39D"/>
<path d="M248.958 95.6719C244.55 97.7089 239.911 99.2039 235.204 100.402C230.492 101.594 225.679 102.43 220.813 102.854C215.948 103.246 211.017 103.252 206.158 102.524C201.316 101.83 196.498 100.37 192.364 97.8049C196.945 99.4119 201.635 100.248 206.37 100.57C208.735 100.725 211.111 100.794 213.482 100.725C215.855 100.698 218.231 100.57 220.601 100.349C222.975 100.175 225.344 99.8949 227.708 99.5689C230.077 99.2739 232.433 98.8679 234.798 98.4879C239.519 97.6649 244.227 96.7169 248.958 95.6719Z" fill="#00A39D"/>
<path d="M193.426 100.512C194.1 102.078 194.595 103.715 195.085 105.343C195.576 106.977 195.996 108.629 196.411 110.283C197.192 113.603 197.847 116.966 198.254 120.378C198.677 123.786 198.858 127.248 198.509 130.77C198.297 132.56 197.941 134.241 197.517 135.916C197.111 137.594 196.622 139.252 196.088 140.891C194.988 144.162 193.642 147.318 192.415 150.438C191.794 151.996 191.217 153.555 190.74 155.136C190.497 155.925 190.299 156.723 190.102 157.524L189.535 160C188.044 166.618 186.464 173.216 184.639 179.774C185.436 173.02 186.479 166.302 187.612 159.605L188.034 157.092C188.205 156.235 188.393 155.381 188.618 154.539C189.063 152.855 189.608 151.21 190.186 149.594C191.375 146.373 192.675 143.277 193.701 140.097C194.235 138.516 194.726 136.926 195.137 135.313C195.574 133.703 195.904 132.057 196.15 130.486C196.604 127.259 196.494 123.9 196.306 120.558C196.076 117.214 195.697 113.86 195.204 110.517C194.969 108.845 194.696 107.172 194.409 105.504C194.27 104.668 194.116 103.835 193.957 103.002C193.799 102.167 193.658 101.328 193.426 100.512Z" fill="#00A39D"/>
<path d="M240.439 65.1532C237.581 66.9022 234.092 67.4312 230.731 67.3842C229.031 67.3632 227.353 67.0942 225.684 66.7832C224.855 66.6002 224.034 66.3822 223.218 66.1562L220.811 65.3592C217.707 64.2572 214.621 63.1922 211.458 62.2302C208.305 61.2472 205.091 60.0862 202.057 58.6672C196.008 55.7712 190.271 52.4492 184.674 48.8552C181.878 47.0602 179.147 45.1642 176.485 43.1732C175.168 42.1542 173.849 41.1422 172.589 40.0532C171.33 38.9702 170.085 37.8482 169.016 36.5762C170.271 37.6562 171.643 38.5752 173.01 39.4962C174.382 40.4122 175.775 41.2922 177.181 42.1512C179.983 43.8852 182.835 45.5392 185.692 47.1762C188.568 48.7832 191.43 50.4082 194.346 51.9342C197.248 53.4882 200.156 55.0252 203.118 56.3852C206.056 57.8092 209.075 58.9072 212.207 59.9732C215.33 61.0662 218.482 62.2072 221.529 63.5382C224.504 64.8242 227.599 65.7782 230.815 66.1552C234.009 66.5282 237.357 66.3862 240.439 65.1532Z" fill="#00A39D"/>
<path d="M166.332 28.2441C166.142 28.6821 166.195 29.1821 166.164 29.6571L166.142 31.1021C166.115 32.0681 166.07 33.0331 165.998 33.9981C165.853 35.9331 165.565 37.8581 165.16 39.7691C164.324 43.5781 162.936 47.3031 160.98 50.7241C160.499 51.5861 159.976 52.4221 159.43 53.2351C159.161 53.6441 158.888 54.0531 158.605 54.4571L157.722 55.6411C157.152 56.4451 156.477 57.1721 155.855 57.9401C155.178 58.6621 154.525 59.4091 153.803 60.0861C150.968 62.8801 147.678 65.0491 144.638 67.3161C141.57 69.5451 138.671 71.9611 136.103 74.6991C133.525 77.3981 131.292 80.4951 129.113 83.6161C124.827 89.9281 120.947 96.5631 117.178 103.278C120.005 96.1071 123.421 89.1621 127.466 82.5471C129.49 79.2351 131.729 76.0411 134.358 73.0761C136.997 70.1501 140.023 67.6061 143.148 65.2871C146.295 63.0051 149.459 60.9211 152.167 58.3591C154.94 55.8721 157.224 52.8421 159.301 49.7191C161.302 46.5491 162.883 43.0921 163.971 39.4601C164.536 37.6471 164.963 35.7891 165.309 33.9111C165.486 32.9691 165.63 32.0231 165.766 31.0701L165.978 29.6421C166.068 29.1731 166.08 28.6641 166.332 28.2441Z" fill="#00A39D"/>
<path d="M151.393 146.522C150.805 145.83 150.651 144.878 150.509 144.002C150.415 143.105 150.381 142.2 150.419 141.3C150.476 139.495 150.738 137.711 151.056 135.947C151.728 132.415 152.68 128.967 153.79 125.552C154.921 122.093 156.578 118.814 158.533 115.758C160.502 112.705 162.799 109.894 165.177 107.215C167.578 104.556 170.091 102.033 172.343 99.3962C174.575 96.7552 176.601 93.9852 176.607 90.6442C176.737 88.9132 176.734 87.1623 176.705 85.4043C176.687 83.6463 176.587 81.8862 176.467 80.1232C176.244 76.5932 175.866 73.0663 175.449 69.5312C176.415 72.9613 177.125 76.4582 177.696 79.9842C178.221 83.5202 178.632 87.0882 178.57 90.7232C178.573 91.5952 178.524 92.6282 178.294 93.5872C178.048 94.5382 177.696 95.4502 177.268 96.2992C176.406 98.0002 175.307 99.4933 174.178 100.917C171.872 103.728 169.378 106.254 167.052 108.896C162.319 114.078 158.158 119.735 155.633 126.217C154.39 129.503 153.191 132.832 152.254 136.22C151.768 137.91 151.37 139.627 151.112 141.36C150.97 142.225 150.904 143.1 150.886 143.977C150.904 144.837 150.916 145.762 151.393 146.522Z" fill="#00A39D"/>
<path d="M232.778 470.674C232.778 470.674 222.361 436.715 198.689 415.881C175.017 395.049 112.58 361.287 112.58 361.287C112.58 361.287 144.908 451.617 232.778 470.674Z" fill="#005F61"/>
<path d="M92.3944 344.821C93.4724 342.309 121.691 384.419 115.595 449.823C115.595 449.823 72.0684 392.212 92.3944 344.821Z" fill="#005F61"/>
<path d="M107.136 353.068C107.136 353.068 138.036 385.107 204.567 358.32C204.567 358.32 132.176 325.908 107.136 353.068Z" fill="#097F73"/>
<path d="M177.762 320.233C177.762 320.233 99.5661 315.874 86.3691 334.237C86.3691 334.237 144.177 349.538 177.762 320.233Z" fill="#005F61"/>
<path d="M60.5042 423.27C60.5042 423.27 94.6582 358.883 78.2332 332.129C78.2332 332.129 44.4192 380.777 60.5042 423.27Z" fill="#097F73"/>
<path d="M75.7734 324.694C75.7734 324.694 136.956 327.917 163.674 292.57C163.674 292.57 86.3014 301.126 75.7734 324.694Z" fill="#097F73"/>
<path d="M62.5068 309.945C62.5068 309.945 133.616 305.763 161.707 265.361C161.707 265.361 77.4168 270.795 62.5068 309.945Z" fill="#005F61"/>
<path d="M63.2079 314.515C63.2079 314.515 64.0979 360.542 37.8259 405.617C37.8259 405.617 25.5239 368.435 58.4669 309.793L63.2079 314.515Z" fill="#005F61"/>
<path d="M51.7399 294.977C51.7399 294.977 109.377 278.28 139.48 235.59C139.48 235.59 71.7099 235.354 46.0439 290.844L51.7399 294.977Z" fill="#005F61"/>
<path d="M45.5812 298.232C45.5812 298.232 34.7492 356.456 0.78418 382.568C0.78418 382.568 9.92218 328.015 39.8292 292.291L45.5812 298.232Z" fill="#097F73"/>
<path d="M36.0342 282.253C36.0342 282.253 87.8902 245.419 111.57 206.408C111.57 206.408 54.3122 226.298 30.2822 276.311L36.0342 282.253Z" fill="#097F73"/>
<path d="M30.9096 283.136L22.5246 275.865C22.5246 275.865 -26.0974 284.494 -44.6914 335.953C-44.6914 335.953 7.1756 312.927 30.9096 283.136Z" fill="#005F61"/>
<path d="M118.642 364.949C118.642 364.949 -16.8818 241.058 -38.7198 166.052C-38.7198 166.052 -40.8008 161.804 -44.9928 165.693C-49.1838 169.582 -9.13383 261.828 118.642 364.949Z" fill="#005F61"/>
<path d="M206.14 231.838C206.163 232.3 206.186 232.762 206.209 233.224C206.279 234.626 206.721 235.888 207.73 236.897C208.7 237.867 210.031 238.419 211.403 238.419C212.775 238.419 214.106 237.867 215.076 236.897C216.085 235.888 216.527 234.626 216.597 233.224C216.62 232.762 216.643 232.3 216.666 231.838C216.81 228.97 214.163 226.574 211.402 226.574C208.643 226.574 205.997 228.97 206.14 231.838Z" fill="#005F61"/>
<path d="M190.814 225.239C196.601 225.239 196.601 216.266 190.814 216.266C185.027 216.267 185.027 225.239 190.814 225.239Z" fill="#005F61"/>
<path d="M206.653 217.948C207.115 217.914 207.577 217.881 208.039 217.847C207.734 217.806 207.431 217.765 207.126 217.724C207.186 217.745 207.247 217.767 207.307 217.787C209.479 218.546 211.734 216.572 211.734 214.415C211.734 212.258 209.479 210.284 207.307 211.042C207.247 211.063 207.186 211.084 207.126 211.105C207.43 211.064 207.734 211.023 208.039 210.982C207.577 210.948 207.115 210.915 206.653 210.881C204.73 210.741 203.12 212.594 203.12 214.414C203.12 216.235 204.73 218.087 206.653 217.948Z" fill="#005F61"/>
<path d="M192.398 248.996C198.185 248.996 198.185 240.023 192.398 240.023C186.611 240.023 186.611 248.996 192.398 248.996Z" fill="#005F61"/>
<path d="M171.805 225.239C177.591 225.239 177.591 216.266 171.805 216.266C166.019 216.267 166.019 225.239 171.805 225.239Z" fill="#005F61"/>
<path d="M183.003 203.218C183.275 203.473 183.547 203.729 183.819 203.985C184.209 204.352 184.72 204.573 185.187 204.823C186.733 205.651 188.383 204 187.555 202.455C187.385 202.136 187.219 201.815 187.038 201.502C186.775 201.046 186.31 200.653 185.95 200.271C185.171 199.444 183.788 199.485 183.003 200.271C182.219 201.054 182.174 202.441 183.003 203.218Z" fill="#005F61"/>
<path d="M15.3067 571.321C15.3067 571.321 2.62872 549.511 3.18372 527.123C3.74072 504.734 16.2547 455.898 16.2547 455.898C16.2547 455.898 47.7557 516.322 15.3067 571.321Z" fill="#005F61"/>
<path d="M17.4065 437.435C15.5775 436.785 23.9185 471.81 60.9575 500.175C60.9575 500.175 51.9175 449.694 17.4065 437.435Z" fill="#005F61"/>
<path d="M14.5958 449.094C14.5958 449.094 16.3948 480.66 -29.6602 502.424C-29.6602 502.424 -11.6432 449.051 14.5958 449.094Z" fill="#097F73"/>
<path d="M-36.585 470.082C-36.585 470.082 -1.14296 427.211 14.797 429.187C14.797 429.187 -5.10996 466.703 -36.585 470.082Z" fill="#005F61"/>
<path d="M73.6861 458.645C73.6861 458.645 23.6481 445.397 17.6221 423.928C17.6221 423.928 59.2941 429.766 73.6861 458.645Z" fill="#097F73"/>
<path d="M14.9301 419.059C14.9301 419.059 -12.8989 452.512 -44.2129 449.393C-44.2129 449.393 -2.43389 413.182 14.9301 419.059Z" fill="#097F73"/>
<path d="M13.6398 405.03C13.6398 405.03 -22.8392 440.083 -57.4492 435.243C-57.4492 435.243 -13.9622 393.919 13.6398 405.03Z" fill="#005F61"/>
<path d="M15.6838 407.598C15.6838 407.598 39.2508 430.262 75.4208 438.307C75.4208 438.307 61.9688 413.959 15.5088 402.85L15.6838 407.598Z" fill="#005F61"/>
<path d="M11.03 392.199C11.03 392.199 -25.475 414.191 -62.252 409.297C-62.252 409.297 -29.686 373.852 11.622 387.234L11.03 392.199Z" fill="#005F61"/>
<path d="M15.698 390.555C15.698 390.555 51.276 412.991 81.271 407.881C81.271 407.881 48.423 386.332 15.373 384.691L15.698 390.555Z" fill="#097F73"/>
<path d="M11.971 377.872C11.971 377.872 -32.241 387.14 -64 380.673C-64 380.673 -26.016 360.413 11.649 372.009L11.971 377.872Z" fill="#097F73"/>
<path d="M14.9043 375.627L15.1563 367.75C15.1563 367.75 43.1083 346.562 78.9033 361.687C78.9033 361.687 41.8833 377.623 14.9043 375.627Z" fill="#097F73"/>
<path d="M15.2424 460.825C15.2424 460.825 16.0194 330.417 -12.5526 282.852C-12.5526 282.852 -13.7616 279.719 -9.71361 279.411C-5.66561 279.098 23.1074 344.472 15.2424 460.825Z" fill="#005F61"/>
<path d="M-30.141 108.561C-15.614 123.089 13.439 114.917 24.332 115.827C35.228 116.734 29.781 140.341 65.19 140.341C100.598 140.341 119.664 125.812 148.718 98.5765C177.771 71.3395 169.6 69.5225 188.666 40.4695C207.733 11.4175 205.917 -21.2695 205.917 -21.2695C189.575 -12.1895 171.417 -18.5455 156.89 -19.4525C142.363 -20.3615 122.389 -18.5455 88.796 -11.2835C55.202 -4.01753 57.019 -3.11153 29.78 5.06147C2.54296 13.2285 -1.08804 22.3085 -21.063 41.3755C-41.036 60.4445 -44.669 94.0365 -30.141 108.561ZM188.666 16.8625C204.101 21.4025 160.52 49.5485 153.258 42.2835C145.994 35.0205 173.231 12.3235 188.666 16.8625ZM159.669 70.3115C164.994 77.1595 153.582 87.0505 137.604 89.3345C121.627 91.6165 101.846 88.5725 112.497 80.9655C123.15 73.3555 154.343 63.4675 159.669 70.3115ZM117.85 -8.55753C148.718 -7.65153 131.468 52.2715 102.414 48.6385C73.361 45.0085 86.979 -9.46753 117.85 -8.55753ZM110.216 115.203C114.02 123.569 91.195 125.092 84.347 119.007C77.5 112.918 106.411 106.833 110.216 115.203ZM70.761 132.666C62.922 136.94 46.535 131.241 50.81 123.401C55.084 115.565 78.596 128.388 70.761 132.666ZM60.65 27.7575C76.992 25.0345 72.453 65.8895 59.741 63.1665C47.031 60.4445 44.307 30.4805 60.65 27.7575ZM-7.44404 47.7325C-7.44404 47.7325 -1.99604 52.2715 11.621 67.7065C25.239 83.1425 49.755 86.7715 37.951 96.7605C26.147 106.745 -1.99704 94.0365 -10.169 78.6025C-18.339 63.1665 -25.602 44.0995 -7.44404 47.7325Z" fill="#005F61"/>
<path d="M50.0401 31.8705C29.9311 38.3585 46.1481 79.8765 63.0141 82.4695C72.0071 83.8525 73.4381 67.5305 69.7661 52.9755C67.9201 59.3455 64.3781 64.1595 59.7411 63.1665C49.2551 60.9205 45.5781 40.1495 53.7841 31.4105C52.5821 31.3175 51.3321 31.4555 50.0401 31.8705Z" fill="#097F73"/>
<path d="M29.7805 5.05951C2.54346 13.2275 -1.08754 22.3075 -21.0625 41.3745C-41.0365 60.4435 -44.6685 94.0355 -30.1415 108.561C-29.5925 109.111 -29.0145 109.618 -28.4275 110.103C-25.9525 101.701 -24.1015 93.3465 -21.0105 90.2585C-13.3065 82.5545 -7.52954 108.554 19.4355 105.667C23.7735 105.202 26.7125 103.259 28.6715 100.224C15.1905 101.269 -3.71454 90.7895 -10.1685 78.6005C-18.3385 63.1655 -25.6015 44.0985 -7.44354 47.7315C-7.44354 47.7315 -1.99554 52.2705 11.6215 67.7055C17.7285 74.6275 26.0185 79.1725 32.2495 82.9845C32.5015 62.4235 26.3305 32.9125 37.7315 16.1085C53.4475 -7.05149 63.4795 17.3925 86.7485 22.9145C88.9175 7.46751 100.727 -9.06248 117.849 -8.55848C125.954 -8.32048 130.738 -4.00949 132.866 2.14851C135.953 -1.50449 140.124 -5.53248 146.548 -9.89248C173.513 -28.1885 165.809 -7.96648 186.995 -9.89248C193.604 -10.4925 200.119 -14.5615 205.956 -19.8755C205.942 -20.7785 205.916 -21.2715 205.916 -21.2715C189.574 -12.1915 171.416 -18.5475 156.889 -19.4545C142.362 -20.3635 122.388 -18.5475 88.7955 -11.2855C55.2025 -4.01949 57.0185 -3.11249 29.7805 5.05951Z" fill="#097F73"/>
<path d="M205.917 -21.2715C205.192 -18.9415 204.138 -16.7225 203 -14.5475C201.806 -12.4035 200.485 -10.3195 199.031 -8.32948C196.136 -4.32848 192.7 -0.716485 188.954 2.54251C185.175 5.76551 181.07 8.61251 176.755 11.1115C172.585 13.5575 168.422 15.9135 164.408 18.5625C156.352 23.7845 148.556 29.3925 141.214 35.5135C133.904 41.6515 126.875 48.1545 120.804 55.4085L118.512 58.1105L116.35 60.9015C115.608 61.8195 114.94 62.7855 114.273 63.7475L112.217 66.6945C109.286 70.9555 105.942 74.7285 102.368 78.2105C98.789 81.6885 95.024 84.9205 91.143 87.9765C87.271 91.0475 83.24 93.8965 79.099 96.5635C70.846 101.933 62.138 106.597 53.018 110.306C48.442 112.111 43.761 113.692 38.95 114.755C36.554 115.315 34.107 115.669 31.667 115.933C29.213 116.104 26.751 116.11 24.332 115.827C29.209 115.706 33.915 114.529 38.454 112.983C42.994 111.426 47.409 109.525 51.681 107.334C55.971 105.189 60.154 102.827 64.222 100.286C68.29 97.7455 72.3 95.1145 76.171 92.2905C83.878 86.6205 91.355 80.5885 97.913 73.7755C101.195 70.3905 104.317 66.8575 106.835 63.0725C109.56 59.0355 112.491 54.8205 115.758 51.1015C117.354 49.1825 119.092 47.4075 120.776 45.5795C122.533 43.8315 124.24 42.0265 126.071 40.3595C129.651 36.9365 133.413 33.7305 137.266 30.6445C141.175 27.6395 145.115 24.6805 149.212 21.9525C151.23 20.5455 153.317 19.2435 155.383 17.9105C157.496 16.6525 159.579 15.3485 161.727 14.1535C165.972 11.6925 170.351 9.41751 174.739 7.27951C179.002 5.21851 183.086 2.78752 186.937 0.00551605C190.811 -2.74948 194.383 -5.94348 197.612 -9.48248C200.804 -13.0425 203.778 -16.8985 205.917 -21.2715Z" fill="#097F73"/>
<path d="M148.718 98.5762C133.851 106.645 114.546 103.639 99.9583 111.111C104.688 111.173 108.916 112.345 110.216 115.203C113.532 122.501 96.6023 124.588 87.6733 120.968C80.2883 128.919 81.3213 132.334 70.7613 132.666C63.8383 136.44 50.2583 132.433 50.1213 126.049C44.8033 124.25 39.5273 123.629 34.6113 127.046C38.9163 133.505 46.1333 140.341 65.1903 140.341C100.598 140.34 119.664 125.811 148.718 98.5762Z" fill="#097F73"/>
<path d="M191.943 20.197C191.972 21.851 190.82 23.894 188.884 26.085C188.422 27.118 187.976 28.178 187.565 29.276C179.781 50.033 174.591 48.088 164.861 61.064C162.281 64.502 161.132 68.108 160.509 71.72C161.363 73.675 161.046 75.8 159.798 77.885C159.433 82.224 159.098 86.44 157.217 90.249C176.252 70.59 171.757 66.235 188.667 40.467C196.128 29.098 200.384 17.178 202.81 6.875C199.252 10.152 195.307 14.559 191.943 20.197Z" fill="#097F73"/>
<path d="M1628.96 1056.9C1637.73 1065.27 1646.85 1072.94 1656.25 1080.05H1918.74V794.395C1916.22 792.384 1913.72 790.441 1911.27 788.599C1865.13 753.911 1831.55 746.82 1803.73 760.761C1770.63 777.356 1758.35 842.551 1737.7 873.001C1708.12 916.611 1662.94 916.784 1623.96 944.796C1617.24 949.622 1612.09 955.476 1608.38 962.006C1592.04 990.718 1603.31 1032.45 1628.96 1056.9Z" fill="#1FA39D" fill-opacity="0.4"/>
<path opacity="0.39" d="M1644.69 632.025C1651.78 614.963 1668.63 611.766 1681.1 601.657C1705.09 582.215 1706.47 535.259 1734.81 523.694C1771.89 508.565 1808.98 562.113 1827.12 590.779C1856.86 637.785 1824.71 693.408 1785.1 717.283C1742.37 743.039 1690.7 718.932 1658.34 683.612C1646 670.141 1636.77 651.077 1644.69 632.025Z" fill="#00A9A1" fill-opacity="0.4"/>
<path d="M1502.81 1283.18C1518 1204.62 1542.11 1126.94 1585.92 1061.06C1605.64 1031.4 1629.62 1004.6 1656.9 982.825C1684.24 960.994 1714.56 946.219 1746.95 935.26C1777.68 924.859 1809.34 916.309 1837.54 899.046C1868.55 880.069 1886.8 849.646 1904.69 817.646C1939.99 754.523 1991.82 704.935 2056.63 679.121C2063.88 676.237 2060.75 663.703 2053.42 666.623C1990.48 691.693 1936.84 738.471 1900.99 799.276C1891.41 815.536 1882.85 832.458 1872.38 848.111C1862.22 863.313 1849.57 875.874 1834.76 885.729C1806.49 904.55 1773.22 912.78 1741.81 923.41C1709.73 934.267 1679.73 949.156 1652.42 970.353C1625.26 991.43 1601.79 1017.25 1581.49 1045.77C1536.4 1109.09 1510.74 1186.04 1494.5 1263.04C1493.33 1268.59 1492.22 1274.16 1491.15 1279.74C1489.57 1287.89 1501.23 1291.37 1502.81 1283.18Z" fill="#005F61"/>
<path d="M1936.31 1150.46C1892.87 1087.47 1891.06 1005.73 1895.68 930.712C1898.43 886.26 1903.16 841.917 1902.64 797.304C1902.14 753.784 1893.29 712.131 1885.43 669.669C1880.46 642.806 1876.92 615.626 1878.65 588.191C1880.35 561.347 1888.81 535.408 1899.34 511.189C1920 463.656 1947.98 419.238 1979.67 379.384C1984.7 373.06 1976.18 363.846 1971.11 370.219C1946.52 401.148 1924.66 434.42 1905.9 469.731C1887.18 504.97 1871.11 542.428 1866.96 583.132C1862.68 625.223 1872.67 667.481 1880.57 708.39C1884.72 729.9 1888.18 751.449 1889.64 773.38C1891.11 795.524 1890.72 817.777 1889.72 839.932C1884.93 945.156 1862.65 1065.34 1925.86 1157C1930.44 1163.65 1940.95 1157.19 1936.31 1150.46Z" fill="#005F61"/>
<path d="M1845.58 398.538C1845.58 398.538 1871.34 384.98 1869.77 347.063C1868.21 309.148 1869.2 311.701 1858.44 290.444L1849.69 265C1849.69 265 1847.23 267.295 1833.33 294.137C1819.42 320.977 1809.62 338.209 1813.09 355.821C1816.57 373.433 1835.35 404.585 1838.65 407.311C1841.94 410.039 1845.58 398.538 1845.58 398.538Z" fill="#009590"/>
<path d="M1835.86 461.183C1835.86 461.183 1835.03 443.853 1825.98 420.761C1816.93 397.666 1804.93 384.301 1794.49 374.467C1784.06 364.634 1768.76 352.951 1768.76 352.951C1768.76 352.951 1769.97 403.862 1779.88 424.353C1789.8 444.843 1819.69 462.071 1835.86 461.183Z" fill="#009590"/>
<path d="M1846.08 516.962C1846.08 516.962 1839.82 491.057 1824.85 478.924C1809.89 466.791 1784.81 453.039 1771.6 450.006C1758.39 446.969 1750.07 445.709 1741.93 441.301C1741.93 441.301 1744.5 452.153 1750.16 464.417C1755.82 476.682 1759.04 488.065 1779.21 504.415C1799.39 520.768 1833.79 530.017 1846.08 516.962Z" fill="#009590"/>
<path d="M1882.13 571.002C1882.13 571.002 1861.79 546.707 1843.88 539.568C1825.98 532.428 1806.49 527.288 1789.42 531.239C1772.35 535.19 1753.17 541.805 1753.17 541.805C1753.17 541.805 1769.76 554.638 1794.5 568.008C1819.24 581.381 1867.83 580.916 1882.13 571.002Z" fill="#009590"/>
<path d="M1928.64 618.565C1928.64 618.565 1915.81 603.66 1897.22 596.131C1878.64 588.605 1856.8 590.699 1833.48 602.868C1810.16 615.03 1786.24 612.981 1786.24 612.981C1786.24 612.981 1828.3 651.767 1864.45 647.683C1900.61 643.596 1922.58 622.249 1928.64 618.565Z" fill="#009590"/>
<path d="M1928.01 639.26C1913.05 640.903 1899.1 648.632 1886.45 660.507C1873.8 672.38 1874.1 681.115 1860.88 686.19C1847.66 691.264 1838.53 696.178 1838.53 696.178C1838.53 696.178 1872.58 703.397 1899.99 702.485C1927.39 701.572 1938.02 702.023 1952.49 690.427C1966.95 678.83 1983.38 658.059 1983.38 658.059C1983.38 658.059 1942.98 637.614 1928.01 639.26Z" fill="#009590"/>
<path d="M1896.91 575.379C1896.91 575.379 1911.53 564.083 1918.18 550.95C1924.82 537.817 1927.77 528.122 1927.83 509.542C1927.89 490.953 1926.85 480.34 1927.62 477.301C1928.4 474.262 1921.87 476.87 1907 491.864C1892.14 506.861 1863.29 549.927 1896.91 575.379Z" fill="#009590"/>
<path d="M1853.46 523.534C1853.46 523.534 1876.08 506.236 1883.66 492.871C1891.24 479.508 1904.09 463.63 1902.41 449.269C1900.73 434.91 1902.67 411.928 1902.67 411.928C1902.67 411.928 1898.03 425.376 1885.59 433.748C1873.16 442.119 1861.41 450.029 1854.62 468.024C1847.83 486.019 1853.46 523.534 1853.46 523.534Z" fill="#009590"/>
<path d="M1842.87 440.138C1842.87 440.138 1886.34 415.688 1900.2 389.373C1914.06 363.057 1922.36 340.086 1922.36 340.086C1922.36 340.086 1915.68 354.467 1889.05 374.502C1862.42 394.532 1847.27 426.283 1842.87 440.138Z" fill="#009590"/>
<path d="M1840.69 394.258C1840.69 394.258 1842.28 449.531 1847.12 472.821C1851.95 496.108 1848.55 503.912 1857.33 520.062C1866.11 536.212 1872.45 545.362 1882.08 557.24C1891.72 569.119 1912.59 594.85 1920.09 604.092C1927.58 613.328 1933.47 620.589 1955.93 630.948C1978.39 641.31 2001.64 665.983 2014.68 670.063C2027.72 674.139 2051.09 688.287 2061.9 690.96C2072.72 693.627 2082.38 696.216 2087.74 702.813C2093.09 709.41 2096.11 725.129 2091.13 721.658C2086.15 718.185 2067.01 701.259 2055.13 697.267C2043.24 693.274 2015.97 676.977 2005.23 673.071C1994.5 669.168 1990.51 668.245 1977.18 659.809C1963.85 651.373 1937.35 632.032 1930.76 626.583C1924.18 621.133 1912.78 609.738 1902.61 597.202C1892.44 584.663 1877.98 566.848 1866.05 554.798C1854.11 542.751 1847.18 524.877 1843.84 514.09C1840.49 503.307 1834.4 463.81 1834.43 454.52C1834.46 445.225 1840.69 394.258 1840.69 394.258Z" fill="#097F73"/>
<path d="M1846.93 277.352C1844.56 289.251 1842.82 301.266 1841.34 313.313C1840.56 319.336 1839.99 325.382 1839.38 331.422C1838.85 337.475 1838.34 343.53 1837.96 349.598C1837.57 355.664 1837.32 361.745 1837.1 367.824L1836.96 376.954C1836.95 378.477 1836.9 379.998 1836.92 381.521L1837.01 386.089C1837.05 392.179 1837.44 398.273 1837.88 404.344L1838.88 413.425C1839.39 416.434 1839.93 419.425 1840.49 422.398C1839.56 410.279 1839.84 398.188 1840.17 386.114C1840.56 374.034 1841.17 361.958 1841.99 349.889C1842.71 337.817 1843.6 325.745 1844.46 313.661C1845.35 301.58 1846.22 289.492 1846.93 277.352Z" fill="#097F73"/>
<path d="M1912.49 356.242C1906.25 362.923 1900.54 370.106 1894.95 377.368C1892.14 381.06 1889.46 384.523 1886.41 387.823C1883.35 391.093 1880.24 394.337 1876.98 397.443L1867.28 406.932C1864.07 410.157 1860.82 413.347 1857.76 416.77C1854.69 420.18 1851.68 423.69 1849.05 427.555C1846.47 431.413 1844.03 435.54 1842.88 440.137C1844.87 435.908 1847.64 432.31 1850.58 428.905C1853.49 425.468 1856.74 422.35 1859.94 419.207C1863.22 416.126 1866.48 413.024 1869.83 409.99C1873.13 406.906 1876.44 403.807 1879.71 400.631C1882.95 397.432 1886.13 394.106 1889.18 390.635C1892.15 387.098 1895.01 383.251 1897.45 379.412C1902.56 371.777 1907.55 364.051 1912.49 356.242Z" fill="#097F73"/>
<path d="M1772.05 359.67C1772.99 360.504 1773.71 361.575 1774.41 362.631C1775.12 363.683 1775.78 364.778 1776.41 365.883C1777.68 368.103 1778.86 370.376 1779.99 372.673C1782.27 377.267 1784.37 381.96 1786.44 386.665L1792.44 400.929C1794.47 405.696 1796.54 410.456 1798.75 415.165C1800.99 419.857 1803.4 424.483 1806.02 428.978C1807.39 431.189 1808.71 433.428 1810.22 435.552C1810.96 436.611 1811.64 437.724 1812.44 438.743L1814.84 441.805C1821.24 449.905 1829.4 456.648 1838.56 460.435C1830.15 455.011 1823.05 447.896 1817.28 439.674C1811.51 431.453 1806.69 422.489 1802.35 413.205C1797.9 403.982 1793.94 394.424 1789.25 385.151C1786.91 380.522 1784.4 375.99 1781.69 371.587C1780.28 369.416 1778.88 367.247 1777.32 365.195C1775.75 363.18 1774.14 361.086 1772.05 359.67Z" fill="#097F73"/>
<path d="M1853.46 523.531C1853.49 514.336 1854.86 505.294 1857.54 496.806C1858.93 492.586 1860.58 488.485 1862.64 484.639C1864.67 480.793 1867.16 477.151 1869.76 473.634C1874.97 466.559 1880.95 460.058 1886.58 453.05C1889.39 449.56 1892.12 445.921 1894.43 441.933C1896.67 437.955 1898.57 433.511 1898.77 428.861C1897.67 433.337 1895.4 437.196 1892.8 440.72C1890.21 444.274 1887.24 447.513 1884.26 450.759C1881.23 453.972 1878.23 457.231 1875.21 460.525C1872.25 463.873 1869.33 467.304 1866.59 470.943C1863.95 474.662 1861.37 478.453 1859.3 482.671C1857.29 486.888 1855.62 491.288 1854.53 495.842C1852.3 504.918 1851.82 514.467 1853.46 523.531Z" fill="#097F73"/>
<path d="M1753.31 446.758C1752.46 447.922 1752.4 449.567 1752.66 451.004C1752.71 451.385 1752.81 451.738 1752.93 452.088C1753.05 452.437 1753.15 452.802 1753.28 453.146C1753.6 453.8 1753.86 454.507 1754.23 455.125C1755.64 457.708 1757.57 459.842 1759.52 461.902C1763.54 465.89 1767.99 469.336 1772.61 472.381C1781.81 478.559 1791.51 483.668 1801.05 488.913C1810.64 494.06 1820.05 499.427 1828.96 505.654C1837.85 511.918 1846.1 519.206 1853.74 527.365C1847.38 518.036 1839.51 509.807 1830.77 502.882C1826.41 499.401 1821.8 496.293 1817.15 493.316C1812.45 490.419 1807.68 487.679 1802.88 485.056L1788.45 477.368C1783.63 474.862 1778.9 472.184 1774.21 469.479L1770.73 467.386L1767.33 465.163C1765.08 463.658 1762.9 462.056 1760.82 460.308C1758.76 458.555 1756.75 456.691 1755.16 454.463C1754.74 453.921 1754.43 453.315 1754.05 452.736C1753.78 452.118 1753.42 451.51 1753.25 450.842C1752.83 449.559 1752.65 448.039 1753.31 446.758Z" fill="#097F73"/>
<path d="M1922.36 483.611C1917.05 489.726 1912.45 496.507 1908.27 503.56C1904.1 510.625 1900.42 518.046 1897.34 525.775C1894.32 533.517 1891.84 541.573 1890.53 549.908C1889.17 558.196 1888.99 566.847 1890.84 574.977C1890.68 566.633 1891.74 558.517 1893.62 550.604C1894.56 546.653 1895.65 542.737 1896.93 538.893C1898.16 535.03 1899.54 531.218 1901.06 527.462C1902.51 523.674 1904.12 519.952 1905.8 516.26C1907.43 512.544 1909.23 508.913 1910.99 505.251C1914.6 497.974 1918.4 490.788 1922.36 483.611Z" fill="#097F73"/>
<path d="M1887.24 571.798C1885.19 569.858 1882.94 568.175 1880.7 566.499C1878.45 564.823 1876.14 563.255 1873.82 561.689C1869.14 558.637 1864.35 555.766 1859.34 553.278C1854.35 550.762 1849.16 548.614 1843.61 547.299C1840.77 546.691 1838.03 546.373 1835.27 546.171C1832.5 545.933 1829.72 545.848 1826.96 545.84C1821.42 545.891 1815.93 546.403 1810.56 546.736C1807.87 546.921 1805.2 547.027 1802.55 546.96C1801.22 546.936 1799.91 546.832 1798.59 546.731L1794.53 546.331C1783.69 545.228 1772.83 544.279 1761.91 543.756C1772.61 546.066 1783.38 547.952 1794.17 549.687L1798.22 550.342C1799.61 550.518 1801.01 550.667 1802.4 550.753C1805.19 550.924 1807.98 550.916 1810.73 550.834C1816.24 550.613 1821.62 550.146 1826.98 550.167C1829.66 550.143 1832.33 550.192 1835 550.386C1837.67 550.531 1840.35 550.872 1842.87 551.309C1848.02 552.294 1853.09 554.273 1858.09 556.364C1863.08 558.531 1868.01 560.946 1872.87 563.538C1875.3 564.819 1877.71 566.155 1880.12 567.518C1881.33 568.193 1882.52 568.89 1883.71 569.596C1884.9 570.305 1886.12 570.98 1887.24 571.798Z" fill="#097F73"/>
<path d="M1983.99 654.747C1983.22 654.827 1982.49 654.472 1981.75 654.266L1979.53 653.53C1978.05 653.054 1976.55 652.615 1975.04 652.217C1972.02 651.417 1968.93 650.859 1965.82 650.496C1959.58 649.824 1953.21 650.107 1947.01 651.467C1945.46 651.798 1943.92 652.203 1942.41 652.66C1941.65 652.884 1940.89 653.105 1940.13 653.351L1937.89 654.168C1936.38 654.672 1934.93 655.382 1933.45 655.99C1932.01 656.709 1930.54 657.375 1929.15 658.198C1923.47 661.338 1918.51 665.556 1913.54 669.31C1908.6 673.136 1903.47 676.576 1898.01 679.311C1892.6 682.082 1886.76 684.075 1880.91 685.964C1869.14 689.595 1857.08 692.388 1844.95 694.957C1857.3 694.173 1869.6 692.306 1881.72 689.233C1887.78 687.693 1893.78 685.743 1899.61 683.033C1905.39 680.282 1910.79 676.697 1915.89 672.831C1920.94 668.907 1925.7 664.849 1930.96 661.792C1936.14 658.59 1941.91 656.475 1947.71 654.755C1953.55 653.181 1959.61 652.446 1965.7 652.608C1968.74 652.653 1971.79 652.952 1974.83 653.389C1976.36 653.605 1977.87 653.874 1979.39 654.162L1981.68 654.584C1982.44 654.682 1983.22 654.937 1983.99 654.747Z" fill="#097F73"/>
<path d="M1796.05 615.891C1796.81 617.22 1798.18 617.982 1799.45 618.684C1800.77 619.316 1802.14 619.857 1803.53 620.274C1806.31 621.149 1809.16 621.677 1812.01 622.101C1817.74 622.888 1823.47 623.176 1829.24 623.19C1835.08 623.193 1840.92 622.238 1846.56 620.679C1852.2 619.092 1857.63 616.841 1862.91 614.387C1868.16 611.884 1873.27 609.128 1878.41 606.855C1883.56 604.617 1888.8 602.789 1893.9 604.566C1896.6 605.283 1899.28 606.226 1901.95 607.213C1904.62 608.182 1907.26 609.289 1909.89 610.426C1915.16 612.679 1920.35 615.184 1925.54 617.759C1920.79 614.344 1915.81 611.311 1910.71 608.492C1905.58 605.743 1900.34 603.162 1894.76 601.318C1893.43 600.845 1891.83 600.377 1890.25 600.24C1888.67 600.131 1887.11 600.216 1885.6 600.464C1882.58 600.963 1879.75 601.959 1877.01 603.044C1871.57 605.309 1866.47 608.035 1861.28 610.426C1851.01 615.388 1840.3 619.159 1829.14 619.824C1823.51 620.099 1817.83 620.278 1812.19 619.995C1809.37 619.886 1806.55 619.622 1803.78 619.113C1802.39 618.883 1801.02 618.523 1799.67 618.083C1798.37 617.59 1796.97 617.072 1796.05 615.891Z" fill="#097F73"/>
<path d="M1720.37 856.712C1718.57 857.003 1717 858.298 1715.67 859.523C1714.54 860.572 1713.26 862.897 1712.99 864.47C1712.6 866.732 1712.47 868.125 1713.04 870.402C1713.3 871.461 1713.74 872.611 1714.33 873.548C1715.66 875.626 1716.68 877.05 1718.7 878.393C1722.91 881.185 1728.33 880.092 1731.79 876.549C1729.37 877.621 1726.96 878.693 1724.54 879.764C1725.5 879.712 1726.44 879.579 1727.38 879.361C1729.99 878.594 1732.25 876.725 1733.61 874.23C1736.49 868.975 1734.77 862.023 1729.87 858.952C1724.97 855.873 1718.48 857.715 1715.61 862.958C1714.2 865.537 1713.82 868.681 1714.56 871.562C1715.1 873.666 1715.94 874.952 1717.29 876.548C1716.41 872.988 1715.54 869.426 1714.66 865.865C1714.65 865.922 1714.63 865.976 1714.61 866.029C1714.96 865.159 1715.3 864.289 1715.64 863.419C1715.62 863.466 1715.6 863.511 1715.57 863.555C1716.1 862.82 1716.63 862.087 1717.16 861.352C1717.13 861.392 1717.11 861.429 1717.07 861.46C1717.75 860.896 1718.44 860.33 1719.12 859.765C1719.06 859.81 1719.01 859.844 1718.95 859.876C1719.75 859.512 1720.55 859.152 1721.35 858.788C1721.29 858.814 1721.22 858.829 1721.16 858.842C1722.04 858.714 1722.93 858.586 1723.81 858.459C1723.71 858.469 1723.61 858.467 1723.51 858.455C1724.39 858.581 1725.27 858.708 1726.15 858.833C1725.98 858.805 1725.81 858.753 1725.65 858.686C1726.43 859.038 1727.21 859.389 1727.98 859.742C1727.84 859.675 1727.7 859.605 1727.58 859.503C1728.23 860.042 1728.88 860.579 1729.53 861.118C1729.44 861.021 1729.36 860.922 1729.28 860.817C1729.78 861.51 1730.28 862.206 1730.78 862.9C1730.68 862.747 1730.59 862.59 1730.52 862.415C1730.84 863.233 1731.16 864.048 1731.48 864.865C1731.45 864.76 1731.42 864.659 1731.41 864.547C1731.52 865.454 1731.63 866.361 1731.75 867.268C1731.74 867.217 1731.74 867.167 1731.75 867.116C1731.63 868.022 1731.52 868.927 1731.41 869.833C1731.42 869.756 1731.43 869.691 1731.46 869.621C1731.14 870.434 1730.82 871.245 1730.5 872.058C1730.52 872.013 1730.54 871.969 1730.57 871.931C1730.07 872.618 1729.58 873.306 1729.08 873.993C1729.11 873.952 1729.15 873.913 1729.18 873.88C1728.54 874.411 1727.9 874.941 1727.26 875.471C1727.33 875.415 1727.4 875.372 1727.48 875.329C1726.73 875.671 1725.97 876.012 1725.22 876.354C1725.28 876.325 1725.35 876.302 1725.41 876.281C1730.35 874.682 1733.42 869.232 1732.03 863.8C1731.38 861.263 1729.79 859.064 1727.68 857.735C1726.92 857.395 1726.17 857.054 1725.41 856.713C1723.73 856.229 1722.05 856.229 1720.37 856.712Z" fill="#005F61"/>
<path d="M1750.71 820.606C1748.97 819.68 1747.44 819.481 1745.55 819.822C1744.21 820.064 1743.03 820.93 1742.02 821.855C1739.94 823.77 1739.02 827.197 1739.85 829.995C1740.71 832.886 1742.86 834.691 1745.47 835.604C1746.91 836.106 1748.3 835.895 1749.74 835.63C1751.19 835.365 1752.35 834.344 1753.44 833.39C1751.91 834.067 1750.39 834.743 1748.86 835.421C1750.15 835.253 1751.25 835.223 1752.36 834.369C1753.36 833.734 1754.16 832.879 1754.75 831.805C1755.6 830.256 1756.01 828.034 1755.43 826.297C1755.41 826.253 1755.4 826.209 1755.38 826.165C1754.79 824.384 1753.92 822.934 1752.36 821.953C1750.45 820.752 1747.61 820.553 1745.72 821.953C1745.69 821.978 1745.66 822 1745.62 822.024C1744.62 822.659 1743.82 823.514 1743.23 824.589C1742.63 825.702 1742.32 826.906 1742.32 828.198C1742.53 829.968 1742.56 830.377 1743.27 831.984C1743.05 830.203 1742.84 828.422 1742.62 826.639C1742.6 826.686 1742.59 826.734 1742.57 826.781C1742.79 826.232 1743.01 825.683 1743.22 825.134C1743.16 825.275 1743.09 825.396 1743 825.522C1743.33 825.065 1743.66 824.607 1743.99 824.149C1743.9 824.27 1743.8 824.373 1743.69 824.476C1744.11 824.128 1744.53 823.779 1744.95 823.432C1744.78 823.561 1744.62 823.665 1744.44 823.756C1744.93 823.538 1745.41 823.319 1745.89 823.099C1745.66 823.197 1745.43 823.274 1745.19 823.318C1745.71 823.242 1746.23 823.169 1746.75 823.092C1746.6 823.11 1746.47 823.117 1746.32 823.098C1746.83 823.171 1747.34 823.245 1747.85 823.319C1747.76 823.292 1747.67 823.255 1747.58 823.211C1748.04 823.417 1748.49 823.626 1748.95 823.833C1748.82 823.76 1748.7 823.684 1748.58 823.585C1748.97 823.905 1749.35 824.226 1749.74 824.546C1749.67 824.479 1749.6 824.403 1749.53 824.323C1749.83 824.737 1750.13 825.149 1750.43 825.562C1750.33 825.42 1750.25 825.283 1750.18 825.122C1750.37 825.605 1750.56 826.092 1750.75 826.577C1750.71 826.463 1750.68 826.346 1750.66 826.226C1750.73 826.764 1750.8 827.299 1750.87 827.837C1750.85 827.652 1750.85 827.485 1750.86 827.301C1750.8 827.835 1750.73 828.367 1750.66 828.903C1750.69 828.718 1750.74 828.553 1750.8 828.377C1750.61 828.855 1750.42 829.332 1750.24 829.808C1750.31 829.636 1750.4 829.48 1750.49 829.322C1750.2 829.724 1749.91 830.125 1749.62 830.527C1749.77 830.325 1749.92 830.151 1750.11 829.986C1749.74 830.293 1749.36 830.601 1748.99 830.909C1749.14 830.799 1749.28 830.707 1749.44 830.62C1749 830.818 1748.56 831.014 1748.13 831.212C1748.29 831.141 1748.44 831.091 1748.61 831.054C1748.13 831.124 1747.65 831.193 1747.16 831.262C1747.34 831.241 1747.49 831.24 1747.67 831.26C1747.19 831.191 1746.71 831.122 1746.23 831.054C1746.34 831.074 1746.46 831.107 1746.56 831.154C1748.83 831.983 1751.48 830.632 1752.65 828.501C1754.05 825.933 1753.35 822.004 1750.71 820.606Z" fill="#005F61"/>
<path d="M1715.16 838.248C1724.45 838.248 1724.45 822.814 1715.16 822.814C1705.87 822.814 1705.87 838.248 1715.16 838.248Z" fill="#005F61"/>
<path d="M1751.85 793.962C1752.62 794.71 1753.39 795.454 1754.16 796.2C1756.39 798.352 1759.75 798.561 1761.96 796.2C1762.98 795.098 1763.57 793.586 1763.57 792.026C1763.57 790.399 1762.95 789.038 1761.96 787.851C1761.26 787.025 1760.56 786.197 1759.87 785.37C1757.8 782.906 1753.94 783.121 1751.84 785.37C1749.74 787.621 1749.55 791.742 1751.85 793.962Z" fill="#005F61"/>
<path d="M1563.19 963.822C1557.64 1007.03 1552.53 1054.32 1565.34 1072.44C1577.18 1089.17 1596.34 1093.5 1616.5 1094.91C1618.44 1091.25 1620.15 1087.3 1621.56 1083C1635.09 1041.6 1608.52 1016.92 1576.22 978.686C1571.8 973.461 1567.48 968.53 1563.19 963.822ZM1599.8 1072.94C1582.91 1085.15 1600.27 1035.65 1600.27 1035.65C1615.78 1019.33 1616.68 1060.73 1599.8 1072.94Z" fill="#5AE0DC"/>
<path d="M1941.38 770.058C1903.23 751.672 1902.34 738.438 1849.86 750.701C1797.38 762.965 1801.48 788.201 1773.07 780.839C1773.07 780.839 1794.49 785.673 1796.22 824.634C1797.94 863.589 1804.74 916.047 1825.82 950.341C1846.91 984.634 1836.14 997.825 1885.67 1026.99C1935.21 1056.16 1934.37 1094.61 1967.13 1058.54C1999.89 1022.48 1981.83 992.193 2001.66 984.787C2021.5 977.379 2056.96 968.539 2068.98 932.886C2080.99 897.231 2058.23 875.662 2030.62 842.342C2003 809.017 1979.54 788.447 1941.38 770.058ZM2050.96 891.777C2064.48 877.816 2064.94 913.594 2050.25 923.995C2035.57 934.394 2050.96 891.777 2050.96 891.777ZM2004.66 841.158C2019.31 841.22 2013.62 899.569 1997.04 895.313C1980.45 891.061 1990.01 841.097 2004.66 841.158ZM1952.4 1002.03C1974.43 981.2 1980.92 1008.32 1952.1 1038.77C1923.28 1069.23 1930.38 1022.85 1952.4 1002.03ZM1953.53 936.141C1982.18 952.791 1919.94 988.935 1889.07 992.78C1858.19 996.627 1854.36 977.783 1854.36 977.783C1854.04 959.159 1924.88 919.492 1953.53 936.141ZM1915.59 896.232C1920.04 909.013 1897.77 909.337 1884.68 910.537C1871.59 911.741 1867.66 919.045 1851.03 925.249C1834.41 931.457 1828.2 921.179 1828.2 921.179C1835.34 890.246 1911.15 883.45 1915.59 896.232ZM1876.51 847.527C1879.8 856.747 1860.86 855.832 1842.47 864.54C1824.08 873.25 1821.36 868.43 1821.36 868.43C1817.9 852.513 1873.23 838.308 1876.51 847.527ZM2037.26 952.812C2035.64 967.24 1994.61 973.345 2000.32 958.305C2006.04 943.264 2038.87 938.385 2037.26 952.812ZM1877.82 809.244C1862.59 810.017 1841.02 778.125 1841.02 778.125C1835.4 767.011 1867.07 758.568 1886.19 766.179C1905.3 773.79 1893.06 808.471 1877.82 809.244ZM1964.57 800.819C1974.47 818.019 1955.19 857.482 1940.94 855.119C1926.69 852.757 1937.46 790.662 1937.46 790.662C1941.79 781.056 1954.67 783.623 1964.57 800.819Z" fill="#5AE0DC"/>
<path opacity="0.39" d="M1825.43 814.74C1828.76 825.835 1830.35 839.92 1831.35 855.033C1824.68 858.938 1820.31 863.602 1821.36 868.429C1821.36 868.429 1822.98 871.281 1832.12 868.618C1832.8 882.536 1833.29 896.815 1834.42 910.06C1831.34 913.346 1829.15 917.046 1828.2 921.179C1828.2 921.179 1830.58 925.109 1836.33 926.643C1839.53 947.599 1845.76 963.603 1859.36 967.382C1856.15 971.181 1854.3 974.761 1854.36 977.783C1854.36 977.783 1858.19 996.629 1889.07 992.781C1898.72 991.58 1911.44 987.219 1923.49 981.283C1928.79 986.699 1932.32 995.059 1933.8 1008.29C1934.5 1014.54 1935.21 1021.12 1936.06 1027.77C1931.52 1040.25 1931.87 1050.76 1939.32 1048.54C1941.05 1057.35 1943.28 1065.77 1946.33 1073.1C1931.17 1074.55 1921.86 1048.3 1885.67 1026.99C1836.14 997.824 1846.91 984.633 1825.82 950.34C1804.74 916.046 1797.94 863.587 1796.22 824.633C1795.59 810.475 1792.36 800.842 1788.5 794.292C1803.18 790.431 1818.79 792.639 1825.43 814.74Z" fill="#00A9A1"/>
<path opacity="0.39" d="M1895.52 787.294C1904.03 832.799 1913.13 884.642 1949.26 886.293C1994.12 888.345 1990.33 843.049 1994.64 804.585C1979.27 791.193 1962.6 780.285 1941.38 770.06C1914.97 757.332 1906.41 747.077 1886.23 746.039C1888.53 753.33 1890.48 761.699 1892.31 770.662C1895.78 774.996 1896.56 781.153 1895.52 787.294ZM1937.46 790.664C1941.79 781.058 1954.67 783.624 1964.57 800.821C1974.47 818.02 1955.18 857.484 1940.94 855.121C1926.69 852.759 1937.46 790.664 1937.46 790.664Z" fill="#00A9A1"/>
<path d="M1953.53 936.141C1942.21 929.566 1924.32 931.792 1906.82 938.019C1922.24 923.829 1953.34 913.086 1970.78 922.784C1985.62 931.033 1973.97 947.306 1955.68 958.287C1962.47 950.001 1963.44 941.904 1953.53 936.141Z" fill="#00A39D"/>
<path d="M1813.26 823.826C1836.39 845.347 1810.33 867.831 1810.89 888.81C1811.46 909.786 1819.81 930.148 1830.84 942.509C1841.87 954.872 1838.87 966.353 1843.12 978.82C1847.38 991.286 1885.51 1003.22 1905.73 1008.28C1925.94 1013.34 1919.21 1023.39 1919.87 1051.63C1919.89 1052.63 1919.95 1053.62 1920.01 1054.59C1911.8 1046.2 1901.21 1036.14 1885.67 1026.99C1836.14 997.822 1846.91 984.632 1825.82 950.338C1804.74 916.045 1797.94 863.585 1796.22 824.631C1796.05 820.838 1795.69 817.374 1795.19 814.205C1801.58 815.813 1807.84 818.777 1813.26 823.826Z" fill="#00A39D"/>
<path d="M1941.38 770.058C1979.54 788.447 2003 809.017 2030.62 842.341C2058.23 875.665 2080.99 897.231 2068.97 932.884C2068.47 934.371 2067.92 935.792 2067.34 937.184C2069.22 929.019 2069.64 922.168 2066.91 919.447C2063.92 916.469 2060.42 916.181 2056.65 916.451C2064.35 902.432 2062.08 880.298 2050.95 891.778C2050.95 891.778 2045.59 906.629 2044.22 916.66C2040.58 915.829 2036.95 913.616 2033.52 908.431C2022.34 891.497 2031.53 836.351 2010.03 832.608C1988.53 828.865 1996.93 859.17 1971.55 836.786C1968.73 834.294 1966.3 831.837 1964.16 829.413C1967.73 819.115 1968.71 808.02 1964.57 800.822C1955.5 785.064 1943.94 781.624 1938.74 788.545C1935.48 784.568 1931.4 780.661 1925.9 776.826C1913.11 767.908 1900.9 768.854 1890.02 768.404C1888.91 767.528 1887.65 766.766 1886.18 766.181C1881.79 764.432 1876.73 763.538 1871.61 763.324C1867.91 760.659 1864.51 756.587 1861.47 750.273C1861.18 749.649 1860.92 749.027 1860.69 748.403C1902.65 740.445 1906.06 753.037 1941.38 770.058Z" fill="#00A39D"/>
<path d="M1993.14 991.31C1997.95 978.254 1998.92 963.561 1996.44 949.511C1995.13 942.479 1992.79 935.676 1989.75 929.26C1988.94 927.681 1988.18 926.07 1987.33 924.514L1984.6 920.03C1983.71 918.504 1982.7 917.093 1981.71 915.663C1980.71 914.241 1979.75 912.779 1978.72 911.392C1962.06 889.204 1941.67 871.015 1920.55 854.334C1909.86 846.105 1899.01 838.256 1887.54 831.128C1876.01 824.245 1864.3 817.967 1852.4 812.109C1840.53 806.195 1828.5 800.667 1816.35 795.455C1810.26 792.899 1804.15 790.386 1797.96 788.094C1794.86 786.96 1791.76 785.84 1788.61 784.847C1787.04 784.362 1785.45 783.901 1783.86 783.492C1782.26 783.122 1780.65 782.692 1779 782.684C1780.63 782.873 1782.17 783.481 1783.71 784.024C1785.25 784.6 1786.76 785.232 1788.27 785.888C1791.3 787.172 1794.29 788.564 1797.27 789.977C1803.22 792.819 1809.14 795.718 1815.02 798.741C1826.8 804.703 1838.47 810.917 1850.07 817.234C1861.61 823.655 1873.21 830.023 1884.3 837.106C1895.32 844.193 1906.1 852.042 1916.54 860.236C1927.05 868.359 1937.27 876.915 1947.06 885.978C1956.87 894.99 1966.18 904.617 1974.62 914.989C1975.67 916.288 1976.64 917.652 1977.66 918.978C1978.66 920.315 1979.69 921.635 1980.58 923.051L1983.36 927.226L1985.85 931.554C1989.03 937.406 1991.57 943.703 1993.19 950.31C1996.44 963.517 1996.51 977.799 1993.14 991.31Z" fill="#006A41"/>
<path d="M1834.24 1138.78C1843.96 1117.22 1825.16 1088.39 1822.2 1076.06C1819.23 1063.72 1845.42 1060.66 1832.75 1021.7C1820.07 982.743 1798.32 967.336 1759.94 945.817C1721.57 924.299 1722.63 933.983 1685.96 924.15C1649.3 914.314 1616.38 928.849 1616.38 928.849C1631.55 943.348 1631.53 965.765 1635.8 982.094C1640.07 998.426 1649.08 1019.71 1668.57 1053.88C1688.05 1088.05 1688.34 1085.71 1706.48 1112.54C1724.63 1139.38 1735.25 1139.89 1761.98 1154.56C1788.72 1169.22 1824.52 1160.33 1834.24 1138.78ZM1661.72 933.205C1660.85 914.48 1705.36 951.633 1700.51 962.411C1695.65 973.19 1662.58 951.927 1661.72 933.205ZM1727 944.61C1732.13 936.121 1746.37 944.884 1754.43 961.588C1762.5 978.293 1766.45 1001.23 1754.83 992.424C1743.2 983.622 1721.87 953.093 1727 944.61ZM1660.96 1020.87C1650.84 986.558 1718.56 982.556 1725.24 1015.91C1731.91 1049.27 1671.08 1055.18 1660.96 1020.87ZM1790.81 981.803C1798.04 974.405 1807.77 998.938 1803.97 1008.81C1800.17 1018.67 1783.57 989.198 1790.81 981.803ZM1822.87 1018.52C1830.06 1025.5 1830.08 1045.72 1820.5 1044.02C1810.92 1042.32 1815.67 1011.53 1822.87 1018.52ZM1718.74 1069.88C1710.09 1052.94 1753.68 1042.26 1755.43 1057.3C1757.19 1072.32 1727.39 1086.81 1718.74 1069.88ZM1763.64 1137.14C1763.64 1137.14 1766.35 1129.4 1777.32 1108.49C1788.3 1087.59 1783.25 1059.23 1797.74 1068.38C1812.22 1077.54 1809.24 1113.38 1796.31 1128.29C1783.39 1143.2 1766.41 1158.51 1763.64 1137.14Z" fill="#005F61"/>
<path d="M1726.77 1079.97C1740.63 1099.61 1777.46 1065.84 1774.09 1046.29C1772.29 1035.86 1755.01 1040.55 1741.38 1050.18C1748.58 1049.76 1754.79 1051.81 1755.43 1057.3C1756.88 1069.69 1736.86 1081.71 1724.95 1076.03C1725.28 1077.39 1725.87 1078.71 1726.77 1079.97Z" fill="#097F73"/>
<path d="M1706.48 1112.54C1724.63 1139.38 1735.25 1139.89 1761.98 1154.56C1788.72 1169.22 1824.52 1160.33 1834.24 1138.78C1834.61 1137.96 1834.92 1137.13 1835.21 1136.3C1825.69 1136.8 1816.45 1137.96 1812.17 1135.75C1801.5 1130.23 1826.14 1113.9 1813.52 1085.34C1811.48 1080.74 1808.44 1078.26 1804.62 1077.27C1810.52 1091.69 1806.52 1116.52 1796.32 1128.29C1783.39 1143.2 1766.41 1158.51 1763.64 1137.13C1763.64 1137.13 1766.35 1129.4 1777.32 1108.49C1782.25 1099.12 1783.95 1088.26 1785.63 1079.94C1764.42 1087.55 1736.32 1105.66 1714.98 1099.56C1685.57 1091.15 1707.08 1070.73 1704.43 1043.02C1687.78 1046.55 1666.58 1039.9 1660.96 1020.87C1658.31 1011.86 1661.02 1004.94 1666.59 1000.24C1661.73 998.242 1656.1 995.198 1649.32 989.8C1620.87 967.151 1644.4 967.868 1634.84 945.3C1631.86 938.257 1625.35 932.652 1617.8 928.266C1616.87 928.626 1616.38 928.845 1616.38 928.845C1631.56 943.344 1631.53 965.761 1635.8 982.09C1640.07 998.422 1649.08 1019.7 1668.57 1053.88C1688.05 1088.05 1688.34 1085.71 1706.48 1112.54Z" fill="#097F73"/>
<path d="M1616.38 928.849C1619.03 928.756 1621.69 929.059 1624.33 929.481C1626.96 929.972 1629.57 930.623 1632.14 931.46C1637.28 933.112 1642.22 935.508 1646.91 938.377C1651.57 941.302 1655.97 944.723 1660.08 948.515C1664.08 952.165 1667.99 955.84 1672.15 959.243C1680.4 966.101 1688.95 972.531 1697.87 978.259C1706.79 983.949 1715.98 989.189 1725.6 993.087L1729.2 994.57L1732.84 995.88C1734.05 996.344 1735.28 996.709 1736.51 997.072L1740.27 998.209C1745.69 999.799 1750.77 1002.03 1755.62 1004.62C1760.48 1007.23 1765.15 1010.13 1769.67 1013.23C1774.21 1016.31 1778.58 1019.65 1782.8 1023.19C1791.27 1030.21 1799.18 1038 1806.26 1046.61C1809.75 1050.96 1813.05 1055.5 1815.86 1060.39C1817.29 1062.81 1818.53 1065.36 1819.67 1067.95C1820.73 1070.58 1821.62 1073.29 1822.19 1076.06C1820.33 1070.74 1817.43 1066.01 1814.22 1061.61C1810.99 1057.21 1807.46 1053.08 1803.68 1049.23C1799.94 1045.33 1796.01 1041.63 1791.95 1038.13C1787.89 1034.63 1783.75 1031.23 1779.46 1028.05C1770.88 1021.75 1762.01 1015.83 1752.66 1011.23C1748.01 1008.92 1743.27 1006.84 1738.47 1005.52C1733.35 1004.07 1727.98 1002.46 1722.98 1000.29C1720.44 999.272 1718 998.04 1715.52 996.889C1713.09 995.627 1710.63 994.44 1708.26 993.064C1703.46 990.438 1698.82 987.528 1694.28 984.473C1689.79 981.322 1685.34 978.125 1681.07 974.664C1678.9 972.984 1676.82 971.185 1674.71 969.421C1672.66 967.577 1670.58 965.788 1668.58 963.883C1664.53 960.155 1660.63 956.21 1656.86 952.2C1653.22 948.302 1649.26 944.744 1645.02 941.572C1640.81 938.365 1636.25 935.661 1631.46 933.467C1626.66 931.316 1621.63 929.526 1616.38 928.849Z" fill="#097F73"/>
<path d="M1759.94 945.818C1773.56 959.08 1777.38 981.474 1790.28 994.657C1788.65 989.429 1788.34 984.33 1790.81 981.804C1797.11 975.356 1805.32 993.182 1804.8 1004.39C1815.61 1009.47 1818.75 1007.02 1822.87 1018.52C1829.22 1024.69 1829.97 1041.16 1823.46 1043.76C1823.52 1050.3 1824.77 1056.35 1830.04 1060.44C1835.13 1053.23 1839.57 1042.67 1832.74 1021.7C1820.07 982.744 1798.32 967.337 1759.94 945.818Z" fill="#097F73"/>
<path d="M1663.97 928.321C1665.66 927.654 1668.17 928.136 1671.11 929.426C1672.34 929.54 1673.59 929.624 1674.86 929.655C1698.97 930.26 1698.83 936.714 1715.64 942.444C1720.1 943.962 1724.21 943.847 1728.14 943.146C1729.85 941.455 1732.14 940.993 1734.73 941.564C1739.32 940.3 1743.76 939.054 1748.35 939.662C1721.35 926.258 1718.48 932.872 1685.96 924.152C1671.61 920.306 1657.85 920.194 1646.4 921.476C1651.04 924.129 1656.98 926.781 1663.97 928.321Z" fill="#097F73"/>
<path d="M1303.87 250.857C1268.05 440.773 1085.06 565.682 895.138 529.878C705.23 494.047 580.303 311.058 616.127 121.142C651.945 -68.7728 834.94 -193.692 1024.85 -157.874C1214.77 -122.052 1339.69 60.9371 1303.87 250.857Z" fill="#005F61"/>
<path d="M899.911 480.693C922.265 481.674 919.647 459.738 926.836 447.175C929.677 442.202 929.377 434.781 921.877 432.085C913.976 429.262 890.471 448.596 888.268 459.24C883.899 470.924 887.584 480.155 899.911 480.693Z" fill="#BEDD07"/>
<path d="M1271.96 177.223C1270.53 201.649 1284.76 222.107 1268.08 246.819C1303.28 217.389 1303.36 214.877 1271.96 177.223Z" fill="#BEDD07"/>
<path d="M1308.29 219.779C1304.32 239.64 1294.36 256.486 1281.94 274.314C1275.43 268.939 1282.9 260.403 1273.47 257.269C1266.39 270 1259.41 283.108 1251.9 295.877C1246.78 304.599 1239.76 314.105 1248.91 322.662C1258.51 331.674 1264 317.459 1273.96 314.67C1271.76 333.923 1254.26 334.35 1243.87 342.066C1241.01 344.183 1239.1 342.055 1237.84 338.31C1230.28 315.799 1222.23 293.467 1214.12 270.409C1238.5 273.785 1257.81 255.682 1246.32 239.198C1230.1 215.937 1242.5 197.214 1252.47 183.684C1277.16 150.202 1261.83 124.868 1243.24 98.4974C1238.07 91.1624 1238.43 82.6498 1233.31 72.093C1245.67 78.4203 1255.56 83.4735 1265.64 88.625C1272.3 50.6167 1253.67 20.5993 1234.67 -6.98086C1225.62 -20.1035 1207.54 -29.9813 1189.7 -34.3984C1186.13 -35.2829 1181.82 -34.1161 1179.27 -37.5433C1173.5 -45.2518 1163.25 -53.8305 1171.65 -63.2651C1178.73 -71.2202 1183.88 -58.7015 1190.15 -55.9211C1192.78 -54.7614 1195.04 -52.7762 1199.07 -53.1265C1172.9 -83.3387 1139.78 -105.29 1107.51 -128.321C1124.89 -121.913 1140.97 -113.685 1155.98 -103.989C1117.56 -129.977 1073.33 -148.734 1024.85 -157.877C912.281 -179.102 802.155 -143.858 723.651 -72.0904C751.515 -93.581 786.543 -99.9815 818.376 -113.245C830.21 -131.838 847.353 -125.571 863.977 -121.897C848.795 -118.961 833.632 -116.04 818.463 -113.095C814.831 -107.424 811.194 -101.759 805.68 -93.1503C827.298 -97.328 844.65 -91.1794 862.801 -86.6319C890.421 -79.7185 916.089 -94.9944 942.095 -102.131C952.925 -105.097 953.245 -121.333 962.029 -130.187C978.533 -146.786 995.694 -155.581 1018.77 -149.604C1037.9 -144.646 1056.93 -139.189 1075.93 -133.682C1091.02 -129.311 1092.81 -115.082 1096.51 -103.164C1098.24 -97.6103 1092.74 -93.3969 1086.42 -93.9383C1082.37 -94.2939 1077.54 -104.093 1074.88 -93.522C1073.47 -87.9166 1080.1 -87.3144 1084.2 -85.6866C1086.26 -84.8682 1088.16 -83.6282 1091.38 -81.902C1081.69 -70.1124 1071.12 -73.0553 1059.02 -75.657C1047.64 -78.1103 1036.53 -85.1577 1023.96 -81.3588C1022.48 -70.4751 1042.33 -73.9845 1036.69 -60.4258C1032.86 -51.2145 1028.09 -44.412 1017.46 -43.5507C1016.73 -43.4989 1016.08 -42.9182 1015.35 -42.7252C1008.03 -40.8525 1008.75 -19.8301 996.375 -32.8385C986.788 -42.9039 1004.31 -48.4199 1005.74 -59.586C992.526 -57.3256 984.98 -49.7583 980.959 -38.8298C974.73 -21.9244 959.108 -18.0004 947.861 -32.5633C937.992 -45.3787 925.443 -49.9655 911.777 -45.9147C890.101 -39.4695 869.241 -30.2208 848.249 -21.651C843.178 -19.5764 839.37 -15.0628 842.009 -8.73734C846.285 1.50851 840.219 5.5361 832.042 7.57311C827.114 8.7989 820.386 10.777 817.634 4.73916C814.43 -2.30642 819.16 -8.42643 823.417 -13.8674C826.628 -17.9861 830.285 -21.7546 835.046 -27.167C821.721 -33.7319 812.311 -23.9775 801.947 -22.7517C785.119 -20.729 788.344 -8.39785 788.909 2.8951C789.429 13.3679 777.678 16.7075 774.948 27.0624C770.606 43.489 761.568 28.281 754.311 26.7264C743.531 24.4232 723.817 41.8236 726.388 53.8152C729.183 66.8325 723.89 69.3591 713.869 72.2878C648.452 91.4608 631.664 152.518 640.688 201.953C644.36 222.084 654.524 236.536 671.531 244.482C697.23 256.495 710.167 274.181 707.176 302.921C706.195 312.39 711.101 320.658 714.768 329.006C721.004 343.235 723.688 357.449 721.762 373.395C717.8 406.386 742.146 427.506 757.787 452.076C769.198 469.985 786.32 479.161 807.217 481.259C812.47 481.807 817.993 481.97 823.116 480.944C841.641 477.227 875.572 427.928 871.742 409.547C868.583 394.387 870.901 384.307 886.143 375.764C905.963 364.652 924.546 350.734 938.041 331.602C942.836 324.799 949.784 317.757 946.151 308.995C941.823 298.574 931.749 303.732 923.862 303.718C919.377 303.718 914.704 305.278 908.918 299.219C929.408 292.2 949.242 286.602 968.078 278.67C995.302 267.184 1002.8 251.947 993.771 231.266C1040.73 228.157 1063.28 243.962 1074.55 288.966C1079.31 307.93 1089.13 321.73 1107.66 329.184C1111.27 330.643 1114.3 333.164 1117.96 330.598C1122.39 327.507 1123.08 322.539 1120.68 318.376C1099.17 280.887 1130.97 261.416 1148.4 237.576C1154.82 228.788 1161.99 230.498 1170.97 238.839C1189.12 255.664 1201.08 274.968 1206.85 298.853C1208.73 306.659 1211.94 311.396 1199.41 310.481C1186.33 309.529 1187.83 316.718 1194.33 324.56C1199.17 330.396 1203.97 336.314 1208.38 342.498C1222.28 362.073 1232.09 363.969 1252.06 350.707C1256.35 347.852 1260.87 345.295 1265.48 342.491C1266.8 344.655 1268.41 346.32 1268.1 346.892C1236.24 403.234 1285.27 349.43 1303.87 250.852C1305.83 240.456 1307.26 230.094 1308.29 219.779ZM893.801 -129.709C898.513 -134.452 903.374 -135.976 909.963 -133.464C905.175 -127.197 900.327 -125.598 893.801 -129.709ZM878.218 92.188C881.718 89.4863 885.994 90.3136 887.592 94.5502C890.32 101.8 898.195 103.009 902.341 108.398C902.341 108.398 902.341 108.398 902.341 108.384C906.543 109.662 911.686 109.529 913.544 114.533C913.873 115.43 911.391 118.525 909.978 118.696C905.545 119.237 903.493 115.705 901.651 112.303C894.203 110.659 886.763 109.029 879.329 107.344C875.522 106.458 870.963 104.964 871.589 100.654C872.041 97.545 875.395 94.3591 878.218 92.188ZM878.079 14.474C877.251 7.93049 879.778 3.13455 885.966 -0.133613C889.638 8.24497 881.527 10.1927 878.218 14.5937C872.816 19.3128 866.911 21.9752 858.527 18.607C864.516 12.4298 871.619 14.7045 878.079 14.474ZM839.057 158.752C829.756 149.675 820.634 144.307 805.269 144.761C790.17 145.19 782.008 128.697 782.751 113.425C783.167 104.878 784.313 97.05 780.239 89.2736C780.223 89.2879 780.208 89.2951 780.196 89.2951C780.196 89.2879 780.21 89.2736 780.21 89.2576C768.844 85.2818 757.463 81.2971 744.854 76.8818C754.272 72.0269 762.652 67.9761 770.754 63.441C776.263 60.3551 782.06 57.0816 787.629 61.4237C795.465 67.5347 786.314 71.5927 784.708 76.5673C783.334 80.8361 781.725 85.0441 780.208 89.2576C780.216 89.2683 780.223 89.2754 780.239 89.2754C781.636 88.6858 783.041 87.6065 784.425 87.6386C792.089 87.7887 792.699 70.8386 801.835 78.8366C809.381 85.439 806.808 93.9409 797.328 99.2211C794.287 100.92 793.858 104.253 796.14 107.083C798.97 110.602 802.927 110.609 806.422 108.595C816.132 102.99 820.277 104.878 823.803 116.416C828.976 133.363 837.204 119.731 846.424 115.153C845.86 132.784 854.043 142.56 870.961 144.738C877.105 145.533 883.48 148.612 881.788 156.631C880.196 164.163 874.487 168.982 866.791 167.74C857.233 166.2 846.919 166.393 839.057 158.752ZM868.91 202.343C883.959 224.587 887.34 250.986 895.452 275.984C874.948 255.557 874.56 228.088 868.91 202.343ZM967.157 100.418C954.698 114.297 972.556 125.929 969.182 139.097C968.176 142.985 971.723 149.137 964.928 149.657C959.218 150.089 956.744 144.336 958.12 140.122C962.401 127.06 938.226 109.383 967.157 100.418ZM943.712 198.644C956.099 204.315 960.258 211.459 961.954 224.905C947.377 219.555 945.034 211.413 943.712 198.644ZM1242.95 31.8011C1254.24 37.6817 1251.02 49.5607 1257.44 64.5167C1240.67 56.4973 1235.11 48.6691 1236.87 36.8133C1237.18 34.7745 1241.96 31.2883 1242.95 31.8011Z" fill="#BEDD07"/>
<path opacity="0.3" d="M1223.85 415.871C1225.52 413.977 1227.19 412.095 1228.8 410.165C1230.63 407.971 1232.4 405.727 1234.19 403.49C1235.81 401.451 1237.43 399.414 1239.01 397.341C1240.7 395.097 1242.35 392.822 1243.99 390.539C1245.56 388.367 1247.12 386.189 1248.65 383.981C1250.22 381.699 1251.73 379.389 1253.25 377.067C1254.75 374.764 1256.23 372.461 1257.68 370.125C1259.12 367.797 1260.52 365.449 1261.91 363.087C1263.33 360.668 1264.73 358.214 1266.09 355.754C1267.4 353.399 1268.69 351.028 1269.94 348.642C1271.28 346.078 1272.58 343.491 1273.87 340.887C1275.03 338.511 1276.2 336.13 1277.32 333.722C1278.58 331.024 1279.78 328.281 1280.97 325.527C1282 323.144 1283.04 320.763 1284.04 318.348C1285.2 315.469 1286.3 312.565 1287.4 309.64C1288.29 307.285 1289.2 304.943 1290.04 302.548C1291.13 299.428 1292.14 296.266 1293.15 293.101C1293.87 290.857 1294.63 288.627 1295.31 286.345C1296.38 282.753 1297.35 279.096 1298.3 275.445C1298.8 273.537 1299.37 271.662 1299.83 269.743C1301.21 264.138 1302.47 258.481 1303.59 252.757C1306.34 238.55 1308.1 224.405 1309.09 210.33C1306.7 216.263 1304.11 222.099 1301.42 227.884C1300.76 229.312 1300.1 230.74 1299.41 232.15C1296.75 237.719 1293.97 243.233 1291.04 248.653C1290.48 249.711 1289.87 250.726 1289.29 251.776C1286.8 256.258 1284.23 260.682 1281.58 265.046C1280.57 266.704 1279.56 268.367 1278.54 270.019C1275.5 274.859 1272.35 279.63 1269.1 284.321C1267.88 286.097 1266.6 287.839 1265.34 289.583C1262.96 292.897 1260.52 296.166 1258.04 299.396C1256.59 301.292 1255.15 303.204 1253.67 305.061C1250.34 309.224 1246.93 313.314 1243.44 317.327C1241.68 319.348 1239.88 321.341 1238.07 323.326C1235.63 326.024 1233.15 328.679 1230.62 331.311C1228.51 333.516 1226.38 335.72 1224.23 337.876C1220.86 341.212 1217.43 344.489 1213.95 347.711C1146.96 409.592 1057.94 447.807 961.287 447.807C926.2 447.807 892.121 442.761 859.741 433.395C859.777 433.373 859.814 433.357 859.859 433.336C825.648 423.456 793.339 408.773 763.713 390.033C763.713 390.04 763.713 390.04 763.713 390.04C694.429 346.21 639.88 280.434 610.552 203.049C618.112 360.351 731.83 498.115 893.311 529.499C994.828 549.228 1094.59 522.882 1171.09 465.092C1171.08 465.12 1171.07 465.136 1171.06 465.151C1172.52 464.034 1173.94 462.858 1175.39 461.727C1184.81 454.374 1193.86 446.546 1202.51 438.257C1203.92 436.906 1205.36 435.591 1206.75 434.211C1208.92 432.058 1211.01 429.821 1213.13 427.612C1214.76 425.902 1216.44 424.207 1218.04 422.468C1220.02 420.309 1221.93 418.079 1223.85 415.871Z" fill="#005D6A"/>
<path opacity="0.2" d="M1176.68 -49.6435C1176.68 -8.97997 1079.7 3.22069 960.08 3.22069C840.453 3.22069 743.483 -8.97997 743.483 -49.6435C743.483 -90.307 840.453 -144.025 960.08 -144.025C1079.7 -144.025 1176.68 -90.3088 1176.68 -49.6435Z" fill="white"/>
<path opacity="0.2" d="M752.926 6.95617C752.926 22.0927 740.661 34.3666 725.525 34.3666C710.388 34.3666 698.123 22.0927 698.123 6.95617C698.123 -8.17137 710.388 -20.4453 725.525 -20.4453C740.661 -20.4453 752.926 -8.17137 752.926 6.95617Z" fill="white"/>
</g>
<defs>
<clipPath id="clip0_342_932">
<rect width="1920" height="1080" fill="white"/>
</clipPath>
</defs>
</svg>
